{
  "accessors": [
    {
      "bufferView": 2,
      "componentType": 5126,
      "count": 2548,
      "max": [
        0.44847676157951355,
        0.4484768211841583,
        1.5123789310455322
      ],
      "min": [
        -0.44847676157951355,
        -0.4484768509864807,
        0.070755235850811
      ],
      "type": "VEC3"
    },
    {
      "bufferView": 2,
      "byteOffset": 30576,
      "componentType": 5126,
      "count": 2548,
      "max": [
        0.9998984336853027,
        0.9998984336853027,
        1.0
      ],
      "min": [
        -0.9998984336853027,
        -0.9998984336853027,
        -1.0
      ],
      "type": "VEC3"
    },
    {
      "bufferView": 1,
      "componentType": 5126,
      "count": 2548,
      "max": [
        1.0000001192092896,
        1.0000001192092896
      ],
      "min": [
        0.0,
        0.01000000536441803
      ],
      "type": "VEC2"
    },
    {
      "bufferView": 0,
      "componentType": 5125,
      "count": 13056,
      "type": "SCALAR"
    },
    {
      "bufferView": 2,
      "byteOffset": 61152,
      "componentType": 5126,
      "count": 363,
      "max": [
        0.42530015110969543,
        0.4253002107143402,
        1.1842097043991089
      ],
      "min": [
        -0.42530012130737305,
        -0.425300270318985,
        0.4749230444431305
      ],
      "type": "VEC3"
    },
    {
      "bufferView": 2,
      "byteOffset": 65508,
      "componentType": 5126,
      "count": 363,
      "max": [
        0.9956413507461548,
        0.9956413507461548,
        0.7928168177604675
      ],
      "min": [
        -0.9956413507461548,
        -0.9956413507461548,
        -0.7492154240608215
      ],
      "type": "VEC3"
    },
    {
      "bufferView": 3,
      "componentType": 5126,
      "count": 363,
      "max": [
        0.7924883365631104,
        0.7926903367042542,
        0.995647668838501,
        1.0
      ],
      "min": [
        -0.791577935218811,
        -0.7921071648597717,
        -0.9956474900245667,
        1.0
      ],
      "type": "VEC4"
    },
    {
      "bufferView": 1,
      "byteOffset": 20384,
      "componentType": 5126,
      "count": 363,
      "max": [
        0.5765542387962341,
        0.9932292103767395
      ],
      "min": [
        0.014180341735482216,
        0.006756668910384178
      ],
      "type": "VEC2"
    },
    {
      "bufferView": 1,
      "byteOffset": 23288,
      "componentType": 5126,
      "count": 363,
      "max": [
        0.5765542387962341,
        0.9932292103767395
      ],
      "min": [
        0.014180341735482216,
        0.006756668910384178
      ],
      "type": "VEC2"
    },
    {
      "bufferView": 0,
      "byteOffset": 52224,
      "componentType": 5125,
      "count": 1920,
      "type": "SCALAR"
    },
    {
      "bufferView": 2,
      "byteOffset": 69864,
      "componentType": 5126,
      "count": 3311,
      "max": [
        0.46361884474754333,
        0.46620914340019226,
        1.7252482175827026
      ],
      "min": [
        -0.46361884474754333,
        -0.4662092328071594,
        1.435370683670044
      ],
      "type": "VEC3"
    },
    {
      "bufferView": 2,
      "byteOffset": 109596,
      "componentType": 5126,
      "count": 3311,
      "max": [
        1.0,
        0.9999966621398926,
        0.9999990463256836
      ],
      "min": [
        -1.0,
        -0.9999997615814209,
        -0.619579017162323
      ],
      "type": "VEC3"
    },
    {
      "bufferView": 1,
      "byteOffset": 26192,
      "componentType": 5126,
      "count": 3311,
      "max": [
        1.0000001192092896,
        1.000000238418579
      ],
      "min": [
        0.5,
        0.5
      ],
      "type": "VEC2"
    },
    {
      "bufferView": 0,
      "byteOffset": 59904,
      "componentType": 5125,
      "count": 17136,
      "type": "SCALAR"
    }
  ],
  "asset": {
    "extras": {
      "author": "berzerkey (https://sketchfab.com/berzerkey)",
      "license": "CC-BY-4.0 (http://creativecommons.org/licenses/by/4.0/)",
      "source": "https://sketchfab.com/3d-models/venti-coffee-cup-cf77f5b93f3e447383a1ae9c645176a5",
      "title": "Venti Coffee Cup"
    },
    "generator": "Sketchfab-12.67.0",
    "version": "2.0"
  },
  "bufferViews": [
    {
      "buffer": 0,
      "byteLength": 128448,
      "name": "floatBufferViews",
      "target": 34963
    },
    {
      "buffer": 0,
      "byteLength": 52680,
      "byteOffset": 128448,
      "byteStride": 8,
      "name": "floatBufferViews",
      "target": 34962
    },
    {
      "buffer": 0,
      "byteLength": 149328,
      "byteOffset": 181128,
      "byteStride": 12,
      "name": "floatBufferViews",
      "target": 34962
    },
    {
      "buffer": 0,
      "byteLength": 5808,
      "byteOffset": 330456,
      "byteStride": 16,
      "name": "floatBufferViews",
      "target": 34962
    }
  ],
  "buffers": [
    {
      "byteLength": 336264,
      "uri": "scene.bin"
    }
  ],
  "images": [
    {
      "uri": "textures/m_heatguard_baseColor.png"
    },
    {
      "uri": "textures/m_heatguard_metallicRoughness.png"
    },
    {
      "uri": "textures/m_heatguard_normal.png"
    }
  ],
  "materials": [
    {
      "doubleSided": true,
      "name": "m_cup",
      "pbrMetallicRoughness": {
        "baseColorFactor": [
          0.8,
          0.8,
          0.8,
          1.0
        ],
        "metallicFactor": 0.0,
        "roughnessFactor": 0.5483571372112678
      }
    },
    {
      "doubleSided": true,
      "name": "m_heatguard",
      "normalTexture": {
        "index": 2,
        "scale": 0.5671661528920344
      },
      "pbrMetallicRoughness": {
        "baseColorTexture": {
          "index": 0
        },
        "metallicFactor": 0.0,
        "metallicRoughnessTexture": {
          "index": 1
        }
      }
    },
    {
      "doubleSided": true,
      "name": "m_blacktop",
      "pbrMetallicRoughness": {
        "baseColorFactor": [
          0.00424183,
          0.00424183,
          0.00424183,
          1.0
        ],
        "metallicFactor": 0.0,
        "roughnessFactor": 0.444994193434629
      }
    }
  ],
  "meshes": [
    {
      "name": "g_cup_m_cup_0",
      "primitives": [
        {
          "attributes": {
            "NORMAL": 1,
            "POSITION": 0,
            "TEXCOORD_0": 2
          },
          "indices": 3,
          "material": 0,
          "mode": 4
        }
      ]
    },
    {
      "name": "g_heat_guard_m_heatguard_0",
      "primitives": [
        {
          "attributes": {
            "NORMAL": 5,
            "POSITION": 4,
            "TANGENT": 6,
            "TEXCOORD_0": 7,
            "TEXCOORD_1": 8
          },
          "indices": 9,
          "material": 1,
          "mode": 4
        }
      ]
    },
    {
      "name": "g_lid_m_blacktop_0",
      "primitives": [
        {
          "attributes": {
            "NORMAL": 11,
            "POSITION": 10,
            "TEXCOORD_0": 12
          },
          "indices": 13,
          "material": 2,
          "mode": 4
        }
      ]
    }
  ],
  "nodes": [
    {
      "children": [
        1
      ],
      "matrix": [
        1.0,
        0.0,
        0.0,
        0.0,
        0.0,
        2.220446049250313e-16,
        -1.0,
        0.0,
        0.0,
        1.0,
        2.220446049250313e-16,
        0.0,
        0.0,
        0.0,
        0.0,
        1.0
      ],
      "name": "Sketchfab_model"
    },
    {
      "children": [
        2
      ],
      "matrix": [
        0.009999999776482582,
        0.0,
        0.0,
        0.0,
        0.0,
        0.0,
        0.009999999776482582,
        0.0,
        0.0,
        -0.009999999776482582,
        0.0,
        0.0,
        0.0,
        0.0,
        0.0,
        1.0
      ],
      "name": "e59173fb7fca4535a93272b11259439e.fbx"
    },
    {
      "children": [
        3,
        5,
        7
      ],
      "name": "RootNode"
    },
    {
      "children": [
        4
      ],
      "matrix": [
        100.0,
        0.0,
        0.0,
        0.0,
        0.0,
        -1.629206793918314e-05,
        -99.99999999999868,
        0.0,
        0.0,
        99.99999999999868,
        -1.629206793918314e-05,
        0.0,
        0.0,
        0.0,
        0.0,
        1.0
      ],
      "name": "g_cup"
    },
    {
      "mesh": 0,
      "name": "g_cup_m_cup_0"
    },
    {
      "children": [
        6
      ],
      "matrix": [
        100.0,
        0.0,
        0.0,
        0.0,
        0.0,
        -1.629206793918314e-05,
        -99.99999999999868,
        0.0,
        0.0,
        99.99999999999868,
        -1.629206793918314e-05,
        0.0,
        0.0,
        0.0,
        0.0,
        1.0
      ],
      "name": "g_heat_guard"
    },
    {
      "mesh": 1,
      "name": "g_heat_guard_m_heatguard_0"
    },
    {
      "children": [
        8
      ],
      "matrix": [
        100.0,
        0.0,
        0.0,
        0.0,
        0.0,
        -1.629206793918314e-05,
        -99.99999999999868,
        0.0,
        0.0,
        99.99999999999868,
        -1.629206793918314e-05,
        0.0,
        0.0,
        0.0,
        0.0,
        1.0
      ],
      "name": "g_lid"
    },
    {
      "mesh": 2,
      "name": "g_lid_m_blacktop_0"
    }
  ],
  "samplers": [
    {
      "magFilter": 9729,
      "minFilter": 9987,
      "wrapS": 10497,
      "wrapT": 10497
    }
  ],
  "scene": 0,
  "scenes": [
    {
      "name": "Sketchfab_Scene",
      "nodes": [
        0
      ]
    }
  ],
  "textures": [
    {
      "sampler": 0,
      "source": 0
    },
    {
      "sampler": 0,
      "source": 1
    },
    {
      "sampler": 0,
      "source": 2
    }
  ]
}
