{
  "accessors": [
    {
      "bufferView": 2,
      "componentType": 5126,
      "count": 8569,
      "max": [
        0.1272449940443039,
        0.32199200987815857,
        0.32199200987815857
      ],
      "min": [
        -0.12780100107192993,
        -0.3219909965991974,
        -0.3219909965991974
      ],
      "type": "VEC3"
    },
    {
      "bufferView": 2,
      "byteOffset": 102828,
      "componentType": 5126,
      "count": 8569,
      "max": [
        1.0,
        0.9992009997367859,
        1.0
      ],
      "min": [
        -1.0,
        -0.9992009997367859,
        -1.0
      ],
      "type": "VEC3"
    },
    {
      "bufferView": 3,
      "componentType": 5126,
      "count": 8569,
      "max": [
        1.0,
        1.0,
        1.0,
        1.0
      ],
      "min": [
        -1.0,
        -1.0,
        -1.0,
        -1.0
      ],
      "type": "VEC4"
    },
    {
      "bufferView": 1,
      "componentType": 5126,
      "count": 8569,
      "max": [
        0.9926760196685791,
        0.9960939884185791
      ],
      "min": [
        0.13476599752902985,
        0.02607700042426586
      ],
      "type": "VEC2"
    },
    {
      "bufferView": 1,
      "byteOffset": 68552,
      "componentType": 5126,
      "count": 8569,
      "max": [
        0.9926760196685791,
        0.9960939884185791
      ],
      "min": [
        0.13476599752902985,
        0.02607700042426586
      ],
      "type": "VEC2"
    },
    {
      "bufferView": 0,
      "componentType": 5125,
      "count": 25173,
      "type": "SCALAR"
    },
    {
      "bufferView": 2,
      "byteOffset": 205656,
      "componentType": 5126,
      "count": 8566,
      "max": [
        0.1272449940443039,
        0.32242000102996826,
        0.32242000102996826
      ],
      "min": [
        -0.12780100107192993,
        -0.3224189877510071,
        -0.32242000102996826
      ],
      "type": "VEC3"
    },
    {
      "bufferView": 2,
      "byteOffset": 308448,
      "componentType": 5126,
      "count": 8566,
      "max": [
        1.0,
        0.9997501373291016,
        1.0
      ],
      "min": [
        -1.0,
        -0.9997501373291016,
        -1.0
      ],
      "type": "VEC3"
    },
    {
      "bufferView": 3,
      "byteOffset": 137104,
      "componentType": 5126,
      "count": 8566,
      "max": [
        1.0,
        1.0,
        1.0,
        1.0
      ],
      "min": [
        -1.0,
        -1.0,
        -1.0,
        -1.0
      ],
      "type": "VEC4"
    },
    {
      "bufferView": 1,
      "byteOffset": 137104,
      "componentType": 5126,
      "count": 8566,
      "max": [
        0.9926760196685791,
        0.9960939884185791
      ],
      "min": [
        0.13476599752902985,
        0.02607700042426586
      ],
      "type": "VEC2"
    },
    {
      "bufferView": 1,
      "byteOffset": 205632,
      "componentType": 5126,
      "count": 8566,
      "max": [
        0.9926760196685791,
        0.9960939884185791
      ],
      "min": [
        0.13476599752902985,
        0.02607700042426586
      ],
      "type": "VEC2"
    },
    {
      "bufferView": 0,
      "byteOffset": 100692,
      "componentType": 5125,
      "count": 25173,
      "type": "SCALAR"
    },
    {
      "bufferView": 2,
      "byteOffset": 411240,
      "componentType": 5126,
      "count": 8644,
      "max": [
        0.13724499940872192,
        0.31870201230049133,
        0.31870201230049133
      ],
      "min": [
        -0.13780100643634796,
        -0.3187029957771301,
        -0.31870201230049133
      ],
      "type": "VEC3"
    },
    {
      "bufferView": 2,
      "byteOffset": 514968,
      "componentType": 5126,
      "count": 8644,
      "max": [
        1.0,
        0.9999499917030334,
        1.0
      ],
      "min": [
        -1.0,
        -0.9999499917030334,
        -1.0
      ],
      "type": "VEC3"
    },
    {
      "bufferView": 3,
      "byteOffset": 274160,
      "componentType": 5126,
      "count": 8644,
      "max": [
        1.0,
        1.0,
        0.9999992251396179,
        1.0
      ],
      "min": [
        -1.0,
        -0.9999499917030334,
        -0.9999504685401917,
        -1.0
      ],
      "type": "VEC4"
    },
    {
      "bufferView": 1,
      "byteOffset": 274160,
      "componentType": 5126,
      "count": 8644,
      "max": [
        0.9926760196685791,
        0.9960939884185791
      ],
      "min": [
        0.13476599752902985,
        0.02607700042426586
      ],
      "type": "VEC2"
    },
    {
      "bufferView": 1,
      "byteOffset": 343312,
      "componentType": 5126,
      "count": 8644,
      "max": [
        0.9926760196685791,
        0.9960939884185791
      ],
      "min": [
        0.13476599752902985,
        0.02607700042426586
      ],
      "type": "VEC2"
    },
    {
      "bufferView": 0,
      "byteOffset": 201384,
      "componentType": 5125,
      "count": 25413,
      "type": "SCALAR"
    },
    {
      "bufferView": 2,
      "byteOffset": 618696,
      "componentType": 5126,
      "count": 8644,
      "max": [
        0.13724499940872192,
        0.31870201230049133,
        0.31870201230049133
      ],
      "min": [
        -0.13780100643634796,
        -0.3187029957771301,
        -0.31870201230049133
      ],
      "type": "VEC3"
    },
    {
      "bufferView": 2,
      "byteOffset": 722424,
      "componentType": 5126,
      "count": 8644,
      "max": [
        1.0,
        0.9999499917030334,
        1.0
      ],
      "min": [
        -1.0,
        -0.9999499917030334,
        -1.0
      ],
      "type": "VEC3"
    },
    {
      "bufferView": 3,
      "byteOffset": 412464,
      "componentType": 5126,
      "count": 8644,
      "max": [
        1.0,
        1.0,
        0.9999992251396179,
        1.0
      ],
      "min": [
        -1.0,
        -0.9999499917030334,
        -0.9999504685401917,
        -1.0
      ],
      "type": "VEC4"
    },
    {
      "bufferView": 1,
      "byteOffset": 412464,
      "componentType": 5126,
      "count": 8644,
      "max": [
        0.9926760196685791,
        0.9960939884185791
      ],
      "min": [
        0.13476599752902985,
        0.02607700042426586
      ],
      "type": "VEC2"
    },
    {
      "bufferView": 1,
      "byteOffset": 481616,
      "componentType": 5126,
      "count": 8644,
      "max": [
        0.9926760196685791,
        0.9960939884185791
      ],
      "min": [
        0.13476599752902985,
        0.02607700042426586
      ],
      "type": "VEC2"
    },
    {
      "bufferView": 0,
      "byteOffset": 303036,
      "componentType": 5125,
      "count": 25413,
      "type": "SCALAR"
    },
    {
      "bufferView": 2,
      "byteOffset": 826152,
      "componentType": 5126,
      "count": 240,
      "max": [
        0.07535400241613388,
        0.14003300666809082,
        0.04305100068449974
      ],
      "min": [
        -0.07535400241613388,
        -0.14003300666809082,
        -0.04305100068449974
      ],
      "type": "VEC3"
    },
    {
      "bufferView": 2,
      "byteOffset": 829032,
      "componentType": 5126,
      "count": 240,
      "max": [
        0.9999987483024597,
        1.0,
        0.9987025260925293
      ],
      "min": [
        -0.9206908345222473,
        -1.0,
        -0.9934333562850952
      ],
      "type": "VEC3"
    },
    {
      "bufferView": 3,
      "byteOffset": 550768,
      "componentType": 5126,
      "count": 240,
      "max": [
        0.9997979998588562,
        0.9958478212356567,
        1.0,
        1.0
      ],
      "min": [
        -0.9899376630783081,
        -0.5605738162994385,
        -0.9838769435882568,
        -1.0
      ],
      "type": "VEC4"
    },
    {
      "bufferView": 1,
      "byteOffset": 550768,
      "componentType": 5126,
      "count": 240,
      "max": [
        0.8701170086860657,
        1.9912110567092896
      ],
      "min": [
        0.39135700464248657,
        0.5068359971046448
      ],
      "type": "VEC2"
    },
    {
      "bufferView": 0,
      "byteOffset": 404688,
      "componentType": 5125,
      "count": 744,
      "type": "SCALAR"
    },
    {
      "bufferView": 2,
      "byteOffset": 831912,
      "componentType": 5126,
      "count": 237,
      "max": [
        0.07535400241613388,
        0.14003300666809082,
        0.04305100068449974
      ],
      "min": [
        -0.07535400241613388,
        -0.14003300666809082,
        -0.04305100068449974
      ],
      "type": "VEC3"
    },
    {
      "bufferView": 2,
      "byteOffset": 834756,
      "componentType": 5126,
      "count": 237,
      "max": [
        0.99473637342453,
        1.0,
        0.9987025260925293
      ],
      "min": [
        -0.9206908345222473,
        -1.0,
        -0.9934333562850952
      ],
      "type": "VEC3"
    },
    {
      "bufferView": 3,
      "byteOffset": 554608,
      "componentType": 5126,
      "count": 237,
      "max": [
        0.9997979998588562,
        0.9958478212356567,
        1.0,
        1.0
      ],
      "min": [
        -0.9899376630783081,
        -0.5605738759040833,
        -0.9838769435882568,
        -1.0
      ],
      "type": "VEC4"
    },
    {
      "bufferView": 1,
      "byteOffset": 552688,
      "componentType": 5126,
      "count": 237,
      "max": [
        0.8701170086860657,
        1.9912110567092896
      ],
      "min": [
        0.39135700464248657,
        0.5068359971046448
      ],
      "type": "VEC2"
    },
    {
      "bufferView": 0,
      "byteOffset": 407664,
      "componentType": 5125,
      "count": 744,
      "type": "SCALAR"
    },
    {
      "bufferView": 2,
      "byteOffset": 837600,
      "componentType": 5126,
      "count": 298,
      "max": [
        0.07530099898576736,
        0.08765900135040283,
        0.06514299660921097
      ],
      "min": [
        -0.07530100643634796,
        -0.08765900135040283,
        -0.06514299660921097
      ],
      "type": "VEC3"
    },
    {
      "bufferView": 2,
      "byteOffset": 841176,
      "componentType": 5126,
      "count": 298,
      "max": [
        1.0,
        0.9995004534721375,
        0.9999499917030334
      ],
      "min": [
        -0.8813672065734863,
        -0.9991511702537537,
        -1.0
      ],
      "type": "VEC3"
    },
    {
      "bufferView": 3,
      "byteOffset": 558400,
      "componentType": 5126,
      "count": 298,
      "max": [
        0.9984050989151001,
        1.0,
        0.9959437251091003,
        1.0
      ],
      "min": [
        -0.9999937415122986,
        -0.9980213046073914,
        -0.9959440231323242,
        -1.0
      ],
      "type": "VEC4"
    },
    {
      "bufferView": 1,
      "byteOffset": 554584,
      "componentType": 5126,
      "count": 298,
      "max": [
        0.5385739803314209,
        1.4990229606628418
      ],
      "min": [
        0.004294999875128269,
        0.01217699982225895
      ],
      "type": "VEC2"
    },
    {
      "bufferView": 0,
      "byteOffset": 410640,
      "componentType": 5125,
      "count": 735,
      "type": "SCALAR"
    },
    {
      "bufferView": 2,
      "byteOffset": 844752,
      "componentType": 5126,
      "count": 303,
      "max": [
        0.07530099898576736,
        0.08765900135040283,
        0.06514299660921097
      ],
      "min": [
        -0.07530100643634796,
        -0.08765900135040283,
        -0.06514299660921097
      ],
      "type": "VEC3"
    },
    {
      "bufferView": 2,
      "byteOffset": 848388,
      "componentType": 5126,
      "count": 303,
      "max": [
        1.0,
        0.9995004534721375,
        0.9999499917030334
      ],
      "min": [
        -0.8813672065734863,
        -0.9991511702537537,
        -1.0
      ],
      "type": "VEC3"
    },
    {
      "bufferView": 3,
      "byteOffset": 563168,
      "componentType": 5126,
      "count": 303,
      "max": [
        0.9984050989151001,
        1.0,
        0.9959437251091003,
        1.0
      ],
      "min": [
        -0.9999937415122986,
        -0.9980213046073914,
        -0.9959440231323242,
        -1.0
      ],
      "type": "VEC4"
    },
    {
      "bufferView": 1,
      "byteOffset": 556968,
      "componentType": 5126,
      "count": 303,
      "max": [
        0.5385739803314209,
        1.4990229606628418
      ],
      "min": [
        0.004294999875128269,
        0.01217699982225895
      ],
      "type": "VEC2"
    },
    {
      "bufferView": 0,
      "byteOffset": 413580,
      "componentType": 5125,
      "count": 735,
      "type": "SCALAR"
    },
    {
      "bufferView": 2,
      "byteOffset": 852024,
      "componentType": 5126,
      "count": 1710,
      "max": [
        0.8514699935913086,
        1.1612310409545898,
        2.1303019523620605
      ],
      "min": [
        -0.8514699935913086,
        0.08777400106191635,
        -2.1542270183563232
      ],
      "type": "VEC3"
    },
    {
      "bufferView": 2,
      "byteOffset": 872544,
      "componentType": 5126,
      "count": 1710,
      "max": [
        0.9993506669998169,
        0.9999499917030334,
        0.9999499917030334
      ],
      "min": [
        -0.9993506669998169,
        -1.0,
        -0.9990015029907227
      ],
      "type": "VEC3"
    },
    {
      "bufferView": 0,
      "byteOffset": 416520,
      "componentType": 5125,
      "count": 5196,
      "type": "SCALAR"
    },
    {
      "bufferView": 2,
      "byteOffset": 893064,
      "componentType": 5126,
      "count": 17503,
      "max": [
        0.6867489814758301,
        0.7641630172729492,
        2.085890054702759
      ],
      "min": [
        -0.6867489814758301,
        0.21521900594234467,
        -0.2321069985628128
      ],
      "type": "VEC3"
    },
    {
      "bufferView": 2,
      "byteOffset": 1103100,
      "componentType": 5126,
      "count": 17503,
      "max": [
        1.0,
        1.0,
        1.0
      ],
      "min": [
        -1.0,
        -1.0,
        -1.0
      ],
      "type": "VEC3"
    },
    {
      "bufferView": 3,
      "byteOffset": 568016,
      "componentType": 5126,
      "count": 17503,
      "max": [
        1.0,
        1.0,
        1.0,
        1.0
      ],
      "min": [
        -1.0,
        -1.0,
        -1.0,
        -1.0
      ],
      "type": "VEC4"
    },
    {
      "bufferView": 1,
      "byteOffset": 559392,
      "componentType": 5126,
      "count": 17503,
      "max": [
        1.7167969942092896,
        0.9975590109825134
      ],
      "min": [
        -0.6044920086860657,
        0.008094999939203262
      ],
      "type": "VEC2"
    },
    {
      "bufferView": 1,
      "byteOffset": 699416,
      "componentType": 5126,
      "count": 17503,
      "max": [
        1.7167969942092896,
        0.9975590109825134
      ],
      "min": [
        -0.6044920086860657,
        0.008094999939203262
      ],
      "type": "VEC2"
    },
    {
      "bufferView": 1,
      "byteOffset": 839440,
      "componentType": 5126,
      "count": 17503,
      "max": [
        1.7167969942092896,
        0.9975590109825134
      ],
      "min": [
        -0.6044920086860657,
        0.008094999939203262
      ],
      "type": "VEC2"
    },
    {
      "bufferView": 0,
      "byteOffset": 437304,
      "componentType": 5125,
      "count": 58929,
      "type": "SCALAR"
    },
    {
      "bufferView": 2,
      "byteOffset": 1313136,
      "componentType": 5126,
      "count": 267,
      "max": [
        0.6696370244026184,
        0.7635440230369568,
        0.426923006772995
      ],
      "min": [
        -0.6696370244026184,
        0.32985201478004456,
        -0.7803810238838196
      ],
      "type": "VEC3"
    },
    {
      "bufferView": 2,
      "byteOffset": 1316340,
      "componentType": 5126,
      "count": 267,
      "max": [
        0.9949371814727783,
        0.756190836429596,
        0.850212574005127
      ],
      "min": [
        -0.9949371814727783,
        -0.8033408522605896,
        -0.6599670052528381
      ],
      "type": "VEC3"
    },
    {
      "bufferView": 3,
      "byteOffset": 848064,
      "componentType": 5126,
      "count": 267,
      "max": [
        0.8627405166625977,
        0.996777355670929,
        0.9877076745033264,
        1.0
      ],
      "min": [
        -0.8627403974533081,
        0.02937491610646248,
        -0.20646098256111145,
        -1.0
      ],
      "type": "VEC4"
    },
    {
      "bufferView": 1,
      "byteOffset": 979464,
      "componentType": 5126,
      "count": 267,
      "max": [
        1.9189449548721313,
        5.070312023162842
      ],
      "min": [
        -1.46875,
        -0.7163090109825134
      ],
      "type": "VEC2"
    },
    {
      "bufferView": 1,
      "byteOffset": 981600,
      "componentType": 5126,
      "count": 267,
      "max": [
        1.9189449548721313,
        5.070312023162842
      ],
      "min": [
        -1.46875,
        -0.7163090109825134
      ],
      "type": "VEC2"
    },
    {
      "bufferView": 0,
      "byteOffset": 673020,
      "componentType": 5125,
      "count": 1206,
      "type": "SCALAR"
    },
    {
      "bufferView": 2,
      "byteOffset": 1319544,
      "componentType": 5126,
      "count": 1635,
      "max": [
        0.6605499982833862,
        0.8530150055885315,
        -0.12086900323629379
      ],
      "min": [
        0.12688900530338287,
        0.21087199449539185,
        -0.5792359709739685
      ],
      "type": "VEC3"
    },
    {
      "bufferView": 2,
      "byteOffset": 1339164,
      "componentType": 5126,
      "count": 1635,
      "max": [
        1.0,
        0.9999502301216125,
        0.9995004534721375
      ],
      "min": [
        -1.0,
        -0.9815225601196289,
        -0.9987025260925293
      ],
      "type": "VEC3"
    },
    {
      "bufferView": 1,
      "byteOffset": 983736,
      "componentType": 5126,
      "count": 1635,
      "max": [
        0.9511719942092896,
        0.9575200080871582
      ],
      "min": [
        0.17248499393463135,
        0.4111329913139343
      ],
      "type": "VEC2"
    },
    {
      "bufferView": 0,
      "byteOffset": 677844,
      "componentType": 5125,
      "count": 5442,
      "type": "SCALAR"
    },
    {
      "bufferView": 2,
      "byteOffset": 1358784,
      "componentType": 5126,
      "count": 486,
      "max": [
        0.7130780220031738,
        1.1612310409545898,
        0.7503060102462769
      ],
      "min": [
        -0.7130780220031738,
        0.819625973701477,
        -1.5870449542999268
      ],
      "type": "VEC3"
    },
    {
      "bufferView": 2,
      "byteOffset": 1364616,
      "componentType": 5126,
      "count": 486,
      "max": [
        0.9170700907707214,
        0.9600000381469727,
        0.9702911972999573
      ],
      "min": [
        -0.9170700907707214,
        -0.928978681564331,
        -0.9703396558761597
      ],
      "type": "VEC3"
    },
    {
      "bufferView": 1,
      "byteOffset": 996816,
      "componentType": 5126,
      "count": 486,
      "max": [
        0.9995120167732239,
        1.0
      ],
      "min": [
        -0.0,
        0.0
      ],
      "type": "VEC2"
    },
    {
      "bufferView": 0,
      "byteOffset": 699612,
      "componentType": 5125,
      "count": 2070,
      "type": "SCALAR"
    },
    {
      "bufferView": 2,
      "byteOffset": 1370448,
      "componentType": 5126,
      "count": 769,
      "max": [
        0.7392510175704956,
        0.777442991733551,
        2.1040079593658447
      ],
      "min": [
        -0.7392510175704956,
        0.22529500722885132,
        -2.1523048877716064
      ],
      "type": "VEC3"
    },
    {
      "bufferView": 2,
      "byteOffset": 1379676,
      "componentType": 5126,
      "count": 769,
      "max": [
        0.9897031784057617,
        0.9827556014060974,
        0.9705339670181274
      ],
      "min": [
        -0.9897031784057617,
        -0.9963204264640808,
        -0.9863083362579346
      ],
      "type": "VEC3"
    },
    {
      "bufferView": 1,
      "byteOffset": 1000704,
      "componentType": 5126,
      "count": 769,
      "max": [
        0.9951170086860657,
        0.9462890028953552
      ],
      "min": [
        0.0,
        0.0
      ],
      "type": "VEC2"
    },
    {
      "bufferView": 0,
      "byteOffset": 707892,
      "componentType": 5125,
      "count": 3444,
      "type": "SCALAR"
    },
    {
      "bufferView": 2,
      "byteOffset": 1388904,
      "componentType": 5126,
      "count": 546,
      "max": [
        0.8288760185241699,
        0.810371994972229,
        -1.6439119577407837
      ],
      "min": [
        -0.8288760185241699,
        0.4212050139904022,
        -2.1328771114349365
      ],
      "type": "VEC3"
    },
    {
      "bufferView": 2,
      "byteOffset": 1395456,
      "componentType": 5126,
      "count": 546,
      "max": [
        0.9999499917030334,
        0.98891282081604,
        0.8820310235023499
      ],
      "min": [
        -0.9999499917030334,
        -0.9999001026153564,
        -0.9628446102142334
      ],
      "type": "VEC3"
    },
    {
      "bufferView": 1,
      "byteOffset": 1006856,
      "componentType": 5126,
      "count": 546,
      "max": [
        0.9951170086860657,
        1.0
      ],
      "min": [
        0.8803709745407104,
        0.3720700144767761
      ],
      "type": "VEC2"
    },
    {
      "bufferView": 0,
      "byteOffset": 721668,
      "componentType": 5125,
      "count": 2178,
      "type": "SCALAR"
    },
    {
      "bufferView": 2,
      "byteOffset": 1402008,
      "componentType": 5126,
      "count": 1426,
      "max": [
        0.6993039846420288,
        1.0862849950790405,
        -1.7568440437316895
      ],
      "min": [
        -0.6993039846420288,
        0.9341099858283997,
        -2.0486860275268555
      ],
      "type": "VEC3"
    },
    {
      "bufferView": 2,
      "byteOffset": 1419120,
      "componentType": 5126,
      "count": 1426,
      "max": [
        1.0,
        0.9959744215011597,
        0.9912895560264587
      ],
      "min": [
        -1.0,
        -0.9995504021644592,
        -0.9999499917030334
      ],
      "type": "VEC3"
    },
    {
      "bufferView": 3,
      "byteOffset": 852336,
      "componentType": 5126,
      "count": 1426,
      "max": [
        0.9999982118606567,
        0.9999783635139465,
        0.9959744811058044,
        1.0
      ],
      "min": [
        -0.9999982118606567,
        -0.989151120185852,
        -0.9997460246086121,
        -1.0
      ],
      "type": "VEC4"
    },
    {
      "bufferView": 1,
      "byteOffset": 1011224,
      "componentType": 5126,
      "count": 1426,
      "max": [
        13.484375,
        10.539061546325684
      ],
      "min": [
        -26.34375,
        -14.289061546325684
      ],
      "type": "VEC2"
    },
    {
      "bufferView": 1,
      "byteOffset": 1022632,
      "componentType": 5126,
      "count": 1426,
      "max": [
        13.484375,
        10.539061546325684
      ],
      "min": [
        -26.34375,
        -14.289061546325684
      ],
      "type": "VEC2"
    },
    {
      "bufferView": 0,
      "byteOffset": 730380,
      "componentType": 5125,
      "count": 6372,
      "type": "SCALAR"
    },
    {
      "bufferView": 2,
      "byteOffset": 1436232,
      "componentType": 5126,
      "count": 27,
      "max": [
        0.3551329970359802,
        0.8098239898681641,
        -0.9955480098724365
      ],
      "min": [
        -0.3551329970359802,
        0.7207589745521545,
        -0.9964659810066223
      ],
      "type": "VEC3"
    },
    {
      "bufferView": 2,
      "byteOffset": 1436556,
      "componentType": 5126,
      "count": 27,
      "max": [
        0.0,
        -0.009999499656260014,
        -0.9999473690986633
      ],
      "min": [
        0.0,
        -0.010261368937790394,
        -0.9999499917030334
      ],
      "type": "VEC3"
    },
    {
      "bufferView": 3,
      "byteOffset": 875152,
      "componentType": 5126,
      "count": 27,
      "max": [
        1.0,
        6.663874228252098e-05,
        6.31055854682927e-07,
        1.0
      ],
      "min": [
        -1.0,
        -6.310559547273442e-05,
        -6.663874501100508e-07,
        -1.0
      ],
      "type": "VEC4"
    },
    {
      "bufferView": 1,
      "byteOffset": 1034040,
      "componentType": 5126,
      "count": 27,
      "max": [
        6.258668899536133,
        1.3450469970703125
      ],
      "min": [
        -5.222765922546387,
        -2.0682790279388428
      ],
      "type": "VEC2"
    },
    {
      "bufferView": 1,
      "byteOffset": 1034256,
      "componentType": 5126,
      "count": 27,
      "max": [
        6.258668899536133,
        1.3450469970703125
      ],
      "min": [
        -5.222765922546387,
        -2.0682790279388428
      ],
      "type": "VEC2"
    },
    {
      "bufferView": 0,
      "byteOffset": 755868,
      "componentType": 5125,
      "count": 60,
      "type": "SCALAR"
    },
    {
      "bufferView": 2,
      "byteOffset": 1436880,
      "componentType": 5126,
      "count": 38835,
      "max": [
        0.8415129780769348,
        1.1943249702453613,
        0.8308680057525635
      ],
      "min": [
        -0.8415129780769348,
        0.20961500704288483,
        -2.022231101989746
      ],
      "type": "VEC3"
    },
    {
      "bufferView": 2,
      "byteOffset": 1902900,
      "componentType": 5126,
      "count": 38835,
      "max": [
        1.0,
        1.0,
        1.0
      ],
      "min": [
        -1.0,
        -1.0,
        -1.0
      ],
      "type": "VEC3"
    },
    {
      "bufferView": 3,
      "byteOffset": 875584,
      "componentType": 5126,
      "count": 38835,
      "max": [
        1.0,
        1.0,
        1.0,
        1.0
      ],
      "min": [
        -1.0,
        -1.0,
        -1.0,
        -1.0
      ],
      "type": "VEC4"
    },
    {
      "bufferView": 1,
      "byteOffset": 1034472,
      "componentType": 5126,
      "count": 38835,
      "max": [
        2.464843988418579,
        0.9926760196685791
      ],
      "min": [
        -1.4501949548721313,
        0.007137000095099211
      ],
      "type": "VEC2"
    },
    {
      "bufferView": 1,
      "byteOffset": 1345152,
      "componentType": 5126,
      "count": 38835,
      "max": [
        2.464843988418579,
        0.9926760196685791
      ],
      "min": [
        -1.4501949548721313,
        0.007137000095099211
      ],
      "type": "VEC2"
    },
    {
      "bufferView": 1,
      "byteOffset": 1655832,
      "componentType": 5126,
      "count": 38835,
      "max": [
        2.464843988418579,
        0.9926760196685791
      ],
      "min": [
        -1.4501949548721313,
        0.007137000095099211
      ],
      "type": "VEC2"
    },
    {
      "bufferView": 0,
      "byteOffset": 756108,
      "componentType": 5125,
      "count": 163506,
      "type": "SCALAR"
    },
    {
      "bufferView": 2,
      "byteOffset": 2368920,
      "componentType": 5126,
      "count": 4318,
      "max": [
        0.8278530240058899,
        0.810371994972229,
        2.099297046661377
      ],
      "min": [
        -0.8278530240058899,
        0.108365997672081,
        -2.152306079864502
      ],
      "type": "VEC3"
    },
    {
      "bufferView": 2,
      "byteOffset": 2420736,
      "componentType": 5126,
      "count": 4318,
      "max": [
        1.0,
        0.9999499917030334,
        0.9999499917030334
      ],
      "min": [
        -1.0,
        -0.9999499917030334,
        -0.9999499917030334
      ],
      "type": "VEC3"
    },
    {
      "bufferView": 1,
      "byteOffset": 1966512,
      "componentType": 5126,
      "count": 4318,
      "max": [
        0.9921879768371582,
        0.9902340173721313
      ],
      "min": [
        0.005111999809741974,
        0.007457999978214502
      ],
      "type": "VEC2"
    },
    {
      "bufferView": 0,
      "byteOffset": 1410132,
      "componentType": 5125,
      "count": 16008,
      "type": "SCALAR"
    },
    {
      "bufferView": 2,
      "byteOffset": 2472552,
      "componentType": 5126,
      "count": 47,
      "max": [
        0.15240000188350677,
        0.4531790018081665,
        -2.120398998260498
      ],
      "min": [
        -0.15240000188350677,
        0.3011550009250641,
        -2.134126901626587
      ],
      "type": "VEC3"
    },
    {
      "bufferView": 2,
      "byteOffset": 2473116,
      "componentType": 5126,
      "count": 47,
      "max": [
        0.9999499917030334,
        0.9975589513778687,
        0.06982912868261337
      ],
      "min": [
        -0.9999499917030334,
        -0.9975589513778687,
        -0.9975589513778687
      ],
      "type": "VEC3"
    },
    {
      "bufferView": 1,
      "byteOffset": 2001056,
      "componentType": 5126,
      "count": 47,
      "max": [
        1.0,
        1.0
      ],
      "min": [
        0.0,
        0.0
      ],
      "type": "VEC2"
    },
    {
      "bufferView": 0,
      "byteOffset": 1474164,
      "componentType": 5125,
      "count": 192,
      "type": "SCALAR"
    },
    {
      "bufferView": 2,
      "byteOffset": 2473680,
      "componentType": 5126,
      "count": 2794,
      "max": [
        0.7276530265808105,
        0.8739399909973145,
        0.4839929938316345
      ],
      "min": [
        -0.7282450199127197,
        0.2868860065937042,
        -0.30177900195121765
      ],
      "type": "VEC3"
    },
    {
      "bufferView": 2,
      "byteOffset": 2507208,
      "componentType": 5126,
      "count": 2794,
      "max": [
        0.9901485443115234,
        1.0,
        0.9280069470405579
      ],
      "min": [
        -0.9998001456260681,
        -0.9900990128517151,
        -0.9999499917030334
      ],
      "type": "VEC3"
    },
    {
      "bufferView": 1,
      "byteOffset": 2001432,
      "componentType": 5126,
      "count": 2794,
      "max": [
        6.867187976837158,
        10.125
      ],
      "min": [
        -19.8125,
        -21.34375
      ],
      "type": "VEC2"
    },
    {
      "bufferView": 0,
      "byteOffset": 1474932,
      "componentType": 5125,
      "count": 12282,
      "type": "SCALAR"
    },
    {
      "bufferView": 2,
      "byteOffset": 2540736,
      "componentType": 5126,
      "count": 103,
      "max": [
        0.8055570125579834,
        0.41844698786735535,
        2.0462889671325684
      ],
      "min": [
        -0.8055570125579834,
        0.167822003364563,
        0.8492770195007324
      ],
      "type": "VEC3"
    },
    {
      "bufferView": 2,
      "byteOffset": 2541972,
      "componentType": 5126,
      "count": 103,
      "max": [
        0.7333073616027832,
        0.2700675427913666,
        0.9999504089355469
      ],
      "min": [
        -0.7333073616027832,
        0.009966966696083546,
        -0.6910026669502258
      ],
      "type": "VEC3"
    },
    {
      "bufferView": 3,
      "byteOffset": 1496944,
      "componentType": 5126,
      "count": 103,
      "max": [
        0.4643721878528595,
        0.9999504089355469,
        0.645073413848877,
        1.0
      ],
      "min": [
        -0.46437209844589233,
        0.6574787497520447,
        -0.07066290825605392,
        -1.0
      ],
      "type": "VEC4"
    },
    {
      "bufferView": 1,
      "byteOffset": 2023784,
      "componentType": 5126,
      "count": 103,
      "max": [
        7.158784866333008,
        24.84320831298828
      ],
      "min": [
        -6.206301212310791,
        -23.841331481933594
      ],
      "type": "VEC2"
    },
    {
      "bufferView": 1,
      "byteOffset": 2024608,
      "componentType": 5126,
      "count": 103,
      "max": [
        7.158784866333008,
        24.84320831298828
      ],
      "min": [
        -6.206301212310791,
        -23.841331481933594
      ],
      "type": "VEC2"
    },
    {
      "bufferView": 1,
      "byteOffset": 2025432,
      "componentType": 5126,
      "count": 103,
      "max": [
        7.158784866333008,
        24.84320831298828
      ],
      "min": [
        -6.206301212310791,
        -23.841331481933594
      ],
      "type": "VEC2"
    },
    {
      "bufferView": 0,
      "byteOffset": 1524060,
      "componentType": 5125,
      "count": 282,
      "type": "SCALAR"
    },
    {
      "bufferView": 2,
      "byteOffset": 2543208,
      "componentType": 5126,
      "count": 119,
      "max": [
        -0.6567500233650208,
        0.6488699913024902,
        0.11877000331878662
      ],
      "min": [
        -0.6936370134353638,
        0.5305060148239136,
        0.04695799946784973
      ],
      "type": "VEC3"
    },
    {
      "bufferView": 2,
      "byteOffset": 2544636,
      "componentType": 5126,
      "count": 119,
      "max": [
        0.9993506669998169,
        0.6425430774688721,
        0.9811289310455322
      ],
      "min": [
        -0.9912895560264587,
        -0.3987261652946472,
        -0.9890608191490173
      ],
      "type": "VEC3"
    },
    {
      "bufferView": 3,
      "byteOffset": 1498592,
      "componentType": 5126,
      "count": 119,
      "max": [
        0.9997334480285645,
        0.28921738266944885,
        0.8998775482177734,
        1.0
      ],
      "min": [
        -0.9986556172370911,
        -0.5066547989845276,
        -0.9679579734802246,
        1.0
      ],
      "type": "VEC4"
    },
    {
      "bufferView": 1,
      "byteOffset": 2026256,
      "componentType": 5126,
      "count": 119,
      "max": [
        3.0763471126556396,
        2.8380041122436523
      ],
      "min": [
        -0.46532899141311646,
        -1.2987860441207886
      ],
      "type": "VEC2"
    },
    {
      "bufferView": 1,
      "byteOffset": 2027208,
      "componentType": 5126,
      "count": 119,
      "max": [
        3.0763471126556396,
        2.8380041122436523
      ],
      "min": [
        -0.46532899141311646,
        -1.2987860441207886
      ],
      "type": "VEC2"
    },
    {
      "bufferView": 0,
      "byteOffset": 1525188,
      "componentType": 5125,
      "count": 558,
      "type": "SCALAR"
    },
    {
      "bufferView": 2,
      "byteOffset": 2546064,
      "componentType": 5126,
      "count": 4819,
      "max": [
        0.8675379753112793,
        0.8211550116539001,
        1.7995489835739136
      ],
      "min": [
        -0.8675379753112793,
        0.3184550106525421,
        -1.9137829542160034
      ],
      "type": "VEC3"
    },
    {
      "bufferView": 2,
      "byteOffset": 2603892,
      "componentType": 5126,
      "count": 4819,
      "max": [
        1.0,
        0.9828544855117798,
        0.9431649446487427
      ],
      "min": [
        -1.0,
        -0.8834521770477295,
        -0.9835471510887146
      ],
      "type": "VEC3"
    },
    {
      "bufferView": 1,
      "byteOffset": 2028160,
      "componentType": 5126,
      "count": 4819,
      "max": [
        0.9790040254592896,
        0.9980469942092896
      ],
      "min": [
        0.005936000030487776,
        0.012810000218451023
      ],
      "type": "VEC2"
    },
    {
      "bufferView": 0,
      "byteOffset": 1527420,
      "componentType": 5125,
      "count": 14250,
      "type": "SCALAR"
    },
    {
      "bufferView": 2,
      "byteOffset": 2661720,
      "componentType": 5126,
      "count": 423,
      "max": [
        0.7102900147438049,
        1.1573760509490967,
        0.7484440207481384
      ],
      "min": [
        -0.7102900147438049,
        0.6720730066299438,
        -1.9629080295562744
      ],
      "type": "VEC3"
    },
    {
      "bufferView": 2,
      "byteOffset": 2666796,
      "componentType": 5126,
      "count": 423,
      "max": [
        0.9170700907707214,
        0.06019899621605873,
        0.37124577164649963
      ],
      "min": [
        -0.9170700907707214,
        -0.9600000381469727,
        -0.6380569338798523
      ],
      "type": "VEC3"
    },
    {
      "bufferView": 1,
      "byteOffset": 2066712,
      "componentType": 5126,
      "count": 423,
      "max": [
        1.0068360567092896,
        1.0029300451278687
      ],
      "min": [
        0.034363001585006714,
        0.35961899161338806
      ],
      "type": "VEC2"
    },
    {
      "bufferView": 0,
      "byteOffset": 1584420,
      "componentType": 5125,
      "count": 1656,
      "type": "SCALAR"
    },
    {
      "bufferView": 2,
      "byteOffset": 2671872,
      "componentType": 5126,
      "count": 68,
      "max": [
        0.5976309776306152,
        0.7750920057296753,
        -1.9548380374908447
      ],
      "min": [
        -0.5976309776306152,
        0.6723740100860596,
        -2.0128419399261475
      ],
      "type": "VEC3"
    },
    {
      "bufferView": 2,
      "byteOffset": 2672688,
      "componentType": 5126,
      "count": 68,
      "max": [
        0.9032576084136963,
        0.9867491126060486,
        -0.0898473933339119
      ],
      "min": [
        -0.9032576084136963,
        -0.9240749478340149,
        -0.9987025260925293
      ],
      "type": "VEC3"
    },
    {
      "bufferView": 1,
      "byteOffset": 2070096,
      "componentType": 5126,
      "count": 68,
      "max": [
        0.46679699420928955,
        0.5839840173721313
      ],
      "min": [
        0.3159179985523224,
        0.42724600434303284
      ],
      "type": "VEC2"
    },
    {
      "bufferView": 0,
      "byteOffset": 1591044,
      "componentType": 5125,
      "count": 294,
      "type": "SCALAR"
    },
    {
      "bufferView": 2,
      "byteOffset": 2673504,
      "componentType": 5126,
      "count": 86,
      "max": [
        0.7074509859085083,
        0.7557820081710815,
        -1.9222979545593262
      ],
      "min": [
        -0.7074509859085083,
        0.6672970056533813,
        -1.9629080295562744
      ],
      "type": "VEC3"
    },
    {
      "bufferView": 2,
      "byteOffset": 2674536,
      "componentType": 5126,
      "count": 86,
      "max": [
        0.9811289310455322,
        0.9323338270187378,
        -0.1500375121831894
      ],
      "min": [
        -0.9811289310455322,
        -0.9609133005142212,
        -0.9569426774978638
      ],
      "type": "VEC3"
    },
    {
      "bufferView": 1,
      "byteOffset": 2070640,
      "componentType": 5126,
      "count": 86,
      "max": [
        0.3134770095348358,
        0.5502930283546448
      ],
      "min": [
        0.238646999001503,
        0.4169920086860657
      ],
      "type": "VEC2"
    },
    {
      "bufferView": 0,
      "byteOffset": 1592220,
      "componentType": 5125,
      "count": 210,
      "type": "SCALAR"
    },
    {
      "bufferView": 2,
      "byteOffset": 2675568,
      "componentType": 5126,
      "count": 12594,
      "max": [
        0.9409840106964111,
        1.2126120328903198,
        2.097475051879883
      ],
      "min": [
        -0.9409840106964111,
        0.13586099445819855,
        -2.107059955596924
      ],
      "type": "VEC3"
    },
    {
      "bufferView": 2,
      "byteOffset": 2826696,
      "componentType": 5126,
      "count": 12594,
      "max": [
        1.0,
        0.9999499917030334,
        0.9999499917030334
      ],
      "min": [
        -1.0,
        -1.0,
        -1.0
      ],
      "type": "VEC3"
    },
    {
      "bufferView": 1,
      "byteOffset": 2071328,
      "componentType": 5126,
      "count": 12594,
      "max": [
        0.9589840173721313,
        0.9726560115814209
      ],
      "min": [
        0.03637700155377388,
        0.40869098901748657
      ],
      "type": "VEC2"
    },
    {
      "bufferView": 0,
      "byteOffset": 1593060,
      "componentType": 5125,
      "count": 44358,
      "type": "SCALAR"
    },
    {
      "bufferView": 2,
      "byteOffset": 2977824,
      "componentType": 5126,
      "count": 65,
      "max": [
        0.08762399852275848,
        0.8200219869613647,
        0.609620988368988
      ],
      "min": [
        -0.06633000075817108,
        0.8041390180587769,
        0.5337399840354919
      ],
      "type": "VEC3"
    },
    {
      "bufferView": 2,
      "byteOffset": 2978604,
      "componentType": 5126,
      "count": 65,
      "max": [
        0.5314368009567261,
        0.9852356910705566,
        0.3985479474067688
      ],
      "min": [
        -0.5803192853927612,
        0.7079499363899231,
        -0.70119309425354
      ],
      "type": "VEC3"
    },
    {
      "bufferView": 3,
      "byteOffset": 1500496,
      "componentType": 5126,
      "count": 65,
      "max": [
        0.999944806098938,
        0.5687873959541321,
        0.13768546283245087,
        -1.0
      ],
      "min": [
        0.8143594861030579,
        -0.5302705764770508,
        -0.21245430409908295,
        -1.0
      ],
      "type": "VEC4"
    },
    {
      "bufferView": 1,
      "byteOffset": 2172080,
      "componentType": 5126,
      "count": 65,
      "max": [
        1.9646339416503906,
        1.3067049980163574
      ],
      "min": [
        -1.0968589782714844,
        -0.21420300006866455
      ],
      "type": "VEC2"
    },
    {
      "bufferView": 1,
      "byteOffset": 2172600,
      "componentType": 5126,
      "count": 65,
      "max": [
        1.9646339416503906,
        1.3067049980163574
      ],
      "min": [
        -1.0968589782714844,
        -0.21420300006866455
      ],
      "type": "VEC2"
    },
    {
      "bufferView": 0,
      "byteOffset": 1770492,
      "componentType": 5125,
      "count": 279,
      "type": "SCALAR"
    },
    {
      "bufferView": 2,
      "byteOffset": 2979384,
      "componentType": 5126,
      "count": 52527,
      "max": [
        0.9608839750289917,
        1.2223759889602661,
        2.2498600482940674
      ],
      "min": [
        -0.9608839750289917,
        0.08777400106191635,
        -2.1792759895324707
      ],
      "type": "VEC3"
    },
    {
      "bufferView": 2,
      "byteOffset": 3609708,
      "componentType": 5126,
      "count": 52527,
      "max": [
        1.0,
        1.0,
        1.0
      ],
      "min": [
        -1.0,
        -1.0,
        -1.0
      ],
      "type": "VEC3"
    },
    {
      "bufferView": 1,
      "byteOffset": 2173120,
      "componentType": 5126,
      "count": 52527,
      "max": [
        1.0244139432907104,
        0.9965819716453552
      ],
      "min": [
        -0.014519000425934792,
        0.0044559999369084835
      ],
      "type": "VEC2"
    },
    {
      "bufferView": 0,
      "byteOffset": 1771608,
      "componentType": 5125,
      "count": 188655,
      "type": "SCALAR"
    },
    {
      "bufferView": 2,
      "byteOffset": 4240032,
      "componentType": 5126,
      "count": 9,
      "max": [
        1.399999976158142,
        2.9999999242136255e-05,
        3.0
      ],
      "min": [
        -1.399999976158142,
        2.9999999242136255e-05,
        -3.0
      ],
      "type": "VEC3"
    },
    {
      "bufferView": 2,
      "byteOffset": 4240140,
      "componentType": 5126,
      "count": 9,
      "max": [
        0.0,
        1.0,
        0.0
      ],
      "min": [
        0.0,
        1.0,
        0.0
      ],
      "type": "VEC3"
    },
    {
      "bufferView": 1,
      "byteOffset": 2593336,
      "componentType": 5126,
      "count": 9,
      "max": [
        1.0,
        1.0
      ],
      "min": [
        0.0,
        0.0
      ],
      "type": "VEC2"
    },
    {
      "bufferView": 0,
      "byteOffset": 2526228,
      "componentType": 5125,
      "count": 12,
      "type": "SCALAR"
    },
    {
      "bufferView": 4,
      "componentType": 5126,
      "count": 7,
      "max": [
        1.0,
        0.0,
        0.0,
        0.0,
        0.0,
        1.0,
        0.0,
        0.0,
        0.0,
        0.0,
        1.0,
        0.0,
        0.0,
        0.0,
        0.0,
        1.0
      ],
      "min": [
        1.0,
        0.0,
        0.0,
        0.0,
        0.0,
        1.0,
        0.0,
        0.0,
        0.0,
        0.0,
        1.0,
        0.0,
        0.0,
        0.0,
        0.0,
        1.0
      ],
      "type": "MAT4"
    }
  ],
  "asset": {
    "extras": {
      "author": "Ddiaz Design (https://sketchfab.com/ddiaz-design)",
      "license": "CC-BY-NC-SA-4.0 (http://creativecommons.org/licenses/by-nc-sa/4.0/)",
      "source": "https://sketchfab.com/3d-models/1993-veilside-c-ii-mazda-rx-7-fast-furious-e145e48775b8460da9de844769cc407b",
      "title": "1993 VeilSide C-II Mazda RX-7 Fast & Furious"
    },
    "generator": "Sketchfab-16.95.0",
    "version": "2.0"
  },
  "bufferViews": [
    {
      "buffer": 0,
      "byteLength": 2526276,
      "name": "floatBufferViews",
      "target": 34963
    },
    {
      "buffer": 0,
      "byteLength": 2593408,
      "byteOffset": 2526276,
      "byteStride": 8,
      "name": "floatBufferViews",
      "target": 34962
    },
    {
      "buffer": 0,
      "byteLength": 4240248,
      "byteOffset": 5119684,
      "byteStride": 12,
      "name": "floatBufferViews",
      "target": 34962
    },
    {
      "buffer": 0,
      "byteLength": 1501536,
      "byteOffset": 9359932,
      "byteStride": 16,
      "name": "floatBufferViews",
      "target": 34962
    },
    {
      "buffer": 0,
      "byteLength": 448,
      "byteOffset": 10861468,
      "name": "floatBufferViews"
    }
  ],
  "buffers": [
    {
      "byteLength": 10861916,
      "uri": "scene.bin"
    }
  ],
  "extensionsUsed": [
    "KHR_materials_specular",
    "KHR_materials_transmission",
    "KHR_materials_clearcoat"
  ],
  "images": [
    {
      "uri": "textures/F1Mazda_RX7F1_1993_Wheel1A_3D_3DWheel1A_Material1_baseColor.png"
    },
    {
      "uri": "textures/F1Mazda_RX7F1_1993_Wheel1A_3D_3DWheel1A_Material1_normal.png"
    },
    {
      "uri": "textures/F1Mazda_RX7F1_1993CalliperGloss_Material1_normal.png"
    },
    {
      "uri": "textures/F1Mazda_RX7F1_1993EngineA_Material1_baseColor.png"
    },
    {
      "uri": "textures/F1Mazda_RX7F1_1993EngineA_Material1_normal.png"
    },
    {
      "uri": "textures/F1Mazda_RX7F1_1993Grille4A_Material1_baseColor.png"
    },
    {
      "uri": "textures/F1Mazda_RX7F1_1993Grille4A_Material1_normal.png"
    },
    {
      "uri": "textures/F1Mazda_RX7F1_1993Coloured_Material1_baseColor.png"
    },
    {
      "uri": "textures/F1Mazda_RX7F1_1993Carbon1_Material1_baseColor.png"
    },
    {
      "uri": "textures/F1Mazda_RX7F1_1993Carbon1_Material1_normal.png"
    },
    {
      "uri": "textures/F1Mazda_RX7F1_1993Grille1A_Material1_baseColor.png"
    },
    {
      "uri": "textures/F1Mazda_RX7F1_1993Grille1A_Material1_normal.png"
    },
    {
      "uri": "textures/F1Mazda_RX7F1_1993InteriorA_Material1_baseColor.png"
    },
    {
      "uri": "textures/F1Mazda_RX7F1_1993InteriorA_Material1_normal.png"
    },
    {
      "uri": "textures/F1Mazda_RX7F1_1993LightA_Material1_baseColor.png"
    },
    {
      "uri": "textures/F1Mazda_RX7F1_1993ManufacturerPlateA_Material1_baseColor.png"
    },
    {
      "uri": "textures/F1Mazda_RX7F1_1993Grille2A_Material1_baseColor.png"
    },
    {
      "uri": "textures/F1Mazda_RX7F1_1993Grille2A_Material1_normal.png"
    },
    {
      "uri": "textures/F1Mazda_RX7F1_1993InteriorTillingA_Material1_baseColor.png"
    },
    {
      "uri": "textures/F1Mazda_RX7F1_1993InteriorTillingA_Material1_normal.png"
    },
    {
      "uri": "textures/F1Mazda_RX7F1_1993TexturedA_Material1_baseColor.png"
    },
    {
      "uri": "textures/F1Mazda_RX7F1_1993Grille3A_Material1_baseColor.png"
    },
    {
      "uri": "textures/F1Mazda_RX7F1_1993Grille3A_Material1_normal.png"
    },
    {
      "uri": "textures/F1Mazda_RX7F1_1993Paint_Material1_baseColor.png"
    },
    {
      "uri": "textures/F1Mazda_RX7F1_1993UnderLightingA_Material1_baseColor.png"
    },
    {
      "uri": "textures/F1Mazda_RX7F1_1993UnderLightingA_Material1_emissive.png"
    }
  ],
  "materials": [
    {
      "doubleSided": true,
      "extensions": {
        "KHR_materials_specular": {
          "specularColorFactor": [
            1.0,
            1.0,
            1.0
          ],
          "specularFactor": 0.24228645268252244
        }
      },
      "name": "F1Mazda_RX7F1_1993_Wheel1A_3D_3DWheel1A_Material1",
      "normalTexture": {
        "index": 1
      },
      "pbrMetallicRoughness": {
        "baseColorTexture": {
          "index": 0
        },
        "metallicFactor": 0.851812119808365,
        "roughnessFactor": 0.28495324938133143
      }
    },
    {
      "doubleSided": true,
      "extensions": {
        "KHR_materials_specular": {
          "specularColorFactor": [
            1.0,
            1.0,
            1.0
          ],
          "specularFactor": 0.2118101693262303
        }
      },
      "name": "F1Mazda_RX7F1_1993CalliperGloss_Material1",
      "normalTexture": {
        "index": 2
      },
      "pbrMetallicRoughness": {
        "baseColorFactor": [
          0.027972,
          0.027972,
          0.027972,
          1.0
        ],
        "metallicFactor": 0.693335446355646,
        "roughnessFactor": 0.5226682595604101
      }
    },
    {
      "doubleSided": true,
      "extensions": {
        "KHR_materials_specular": {
          "specularColorFactor": [
            1.0,
            1.0,
            1.0
          ],
          "specularFactor": 0.1386670892711292
        }
      },
      "name": "F1Mazda_RX7F1_1993Base_Material1",
      "pbrMetallicRoughness": {
        "baseColorFactor": [
          0.0,
          0.0,
          0.0,
          1.0
        ],
        "metallicFactor": 0.0,
        "roughnessFactor": 0.7725737830820055
      }
    },
    {
      "alphaMode": "BLEND",
      "doubleSided": true,
      "extensions": {
        "KHR_materials_specular": {
          "specularColorFactor": [
            1.0,
            1.0,
            1.0
          ],
          "specularFactor": 0.23009593934000558
        }
      },
      "name": "F1Mazda_RX7F1_1993EngineA_Material1",
      "normalTexture": {
        "index": 4
      },
      "pbrMetallicRoughness": {
        "baseColorTexture": {
          "index": 3
        },
        "metallicFactor": 0.7725737830820055,
        "roughnessFactor": 0.4678109495190842
      }
    },
    {
      "doubleSided": true,
      "extensions": {
        "KHR_materials_specular": {
          "specularColorFactor": [
            1.0,
            1.0,
            1.0
          ],
          "specularFactor": 0.2971437627238483
        }
      },
      "name": "F1Mazda_RX7F1_1993Grille4A_Material1",
      "normalTexture": {
        "index": 6
      },
      "pbrMetallicRoughness": {
        "baseColorTexture": {
          "index": 5
        },
        "metallicFactor": 0.6811449330131292,
        "roughnessFactor": 0.5897160829442527
      }
    },
    {
      "doubleSided": true,
      "extensions": {
        "KHR_materials_specular": {
          "specularColorFactor": [
            1.0,
            1.0,
            1.0
          ],
          "specularFactor": 0.21790542599748874
        }
      },
      "name": "F1Mazda_RX7F1_1993Coloured_Material1",
      "pbrMetallicRoughness": {
        "baseColorTexture": {
          "index": 7
        },
        "metallicFactor": 0.7969548097670393,
        "roughnessFactor": 0.1630481159561629
      }
    },
    {
      "alphaMode": "BLEND",
      "doubleSided": true,
      "extensions": {
        "KHR_materials_transmission": {
          "transmissionFactor": 1.0
        }
      },
      "name": "F1Mazda_RX7F1_1993Window_Material1",
      "pbrMetallicRoughness": {
        "baseColorFactor": [
          0.0,
          0.0,
          0.0,
          0.25
        ],
        "metallicFactor": 0.0,
        "roughnessFactor": 0.0
      }
    },
    {
      "alphaMode": "BLEND",
      "doubleSided": true,
      "extensions": {
        "KHR_materials_clearcoat": {
          "clearcoatFactor": 1.0,
          "clearcoatRoughnessFactor": 0.0
        },
        "KHR_materials_specular": {
          "specularColorFactor": [
            1.0,
            1.0,
            1.0
          ],
          "specularFactor": 1.0
        }
      },
      "name": "light_glass",
      "pbrMetallicRoughness": {
        "baseColorFactor": [
          0.0,
          0.0,
          0.0,
          0.5470492862454438
        ],
        "metallicFactor": 0.0,
        "roughnessFactor": 0.0
      }
    },
    {
      "alphaMode": "BLEND",
      "doubleSided": true,
      "extensions": {
        "KHR_materials_specular": {
          "specularColorFactor": [
            1.0,
            1.0,
            1.0
          ],
          "specularFactor": 1.0
        },
        "KHR_materials_transmission": {
          "transmissionFactor": 1.0
        }
      },
      "name": "red_glass",
      "pbrMetallicRoughness": {
        "baseColorFactor": [
          0.5,
          0.0,
          0.0,
          0.25
        ],
        "metallicFactor": 0.0,
        "roughnessFactor": 0.0
      }
    },
    {
      "doubleSided": true,
      "extensions": {
        "KHR_materials_clearcoat": {
          "clearcoatFactor": 0.33981055942265725,
          "clearcoatRoughnessFactor": 0.04
        },
        "KHR_materials_specular": {
          "specularColorFactor": [
            1.0,
            1.0,
            1.0
          ],
          "specularFactor": 0.05
        }
      },
      "name": "F1Mazda_RX7F1_1993Carbon1_Material1",
      "normalTexture": {
        "index": 9,
        "texCoord": 1
      },
      "pbrMetallicRoughness": {
        "baseColorTexture": {
          "index": 8
        },
        "metallicFactor": 0.4,
        "roughnessFactor": 0.48
      }
    },
    {
      "doubleSided": true,
      "extensions": {
        "KHR_materials_specular": {
          "specularColorFactor": [
            1.0,
            1.0,
            1.0
          ],
          "specularFactor": 0.2971437627238483
        }
      },
      "name": "F1Mazda_RX7F1_1993Grille1A_Material1",
      "normalTexture": {
        "index": 11,
        "texCoord": 1
      },
      "pbrMetallicRoughness": {
        "baseColorTexture": {
          "index": 10
        },
        "metallicFactor": 0.6689544196706123,
        "roughnessFactor": 0.5897160829442527
      }
    },
    {
      "alphaMode": "BLEND",
      "doubleSided": true,
      "extensions": {
        "KHR_materials_specular": {
          "specularColorFactor": [
            1.0,
            1.0,
            1.0
          ],
          "specularFactor": 0.236191196011264
        }
      },
      "name": "F1Mazda_RX7F1_1993InteriorA_Material1",
      "normalTexture": {
        "index": 13
      },
      "pbrMetallicRoughness": {
        "baseColorFactor": [
          0.8091453231095561,
          0.8091453231095561,
          0.8091453231095561,
          1.0
        ],
        "baseColorTexture": {
          "index": 12
        },
        "metallicFactor": 0.6750496763418707,
        "roughnessFactor": 0.46171569284782576
      }
    },
    {
      "doubleSided": true,
      "extensions": {
        "KHR_materials_specular": {
          "specularColorFactor": [
            1.0,
            1.0,
            1.0
          ],
          "specularFactor": 0.19961965598371345
        }
      },
      "name": "F1Mazda_RX7F1_1993LightA_Material1",
      "pbrMetallicRoughness": {
        "baseColorTexture": {
          "index": 14
        },
        "metallicFactor": 0.40685838280649994,
        "roughnessFactor": 0.1630481159561629
      }
    },
    {
      "doubleSided": true,
      "extensions": {
        "KHR_materials_specular": {
          "specularColorFactor": [
            1.0,
            1.0,
            1.0
          ],
          "specularFactor": 0.0
        }
      },
      "name": "F1Mazda_RX7F1_1993ManufacturerPlateA_Material1",
      "pbrMetallicRoughness": {
        "baseColorTexture": {
          "index": 15
        },
        "metallicFactor": 0.0
      }
    },
    {
      "doubleSided": true,
      "extensions": {
        "KHR_materials_specular": {
          "specularColorFactor": [
            1.0,
            1.0,
            1.0
          ],
          "specularFactor": 0.851812119808365
        }
      },
      "name": "phong2",
      "pbrMetallicRoughness": {
        "baseColorFactor": [
          0.006072930432828698,
          0.006072930432828698,
          0.006072930432828698,
          1.0
        ],
        "metallicFactor": 0.0,
        "roughnessFactor": 0.10573712634405641
      }
    },
    {
      "alphaMode": "BLEND",
      "doubleSided": true,
      "extensions": {
        "KHR_materials_specular": {
          "specularColorFactor": [
            1.0,
            1.0,
            1.0
          ],
          "specularFactor": 0.3032390193951067
        }
      },
      "name": "F1Mazda_RX7F1_1993Grille2A_Material1",
      "normalTexture": {
        "index": 17
      },
      "pbrMetallicRoughness": {
        "baseColorFactor": [
          0.008329261933796989,
          0.008329261933796989,
          0.008329261933796989,
          1.0
        ],
        "baseColorTexture": {
          "index": 16
        },
        "metallicFactor": 0.8030500664382977,
        "roughnessFactor": 0.5226682595604101
      }
    },
    {
      "doubleSided": true,
      "extensions": {
        "KHR_materials_specular": {
          "specularColorFactor": [
            1.0,
            1.0,
            1.0
          ],
          "specularFactor": 0.18742914264119662
        }
      },
      "name": "F1Mazda_RX7F1_1993InteriorTillingA_Material1",
      "normalTexture": {
        "index": 19,
        "texCoord": 1
      },
      "pbrMetallicRoughness": {
        "baseColorTexture": {
          "index": 18
        },
        "metallicFactor": 0.4860967195328595,
        "roughnessFactor": 0.44952517950530896
      }
    },
    {
      "doubleSided": true,
      "extensions": {
        "KHR_materials_specular": {
          "specularColorFactor": [
            1.0,
            1.0,
            1.0
          ],
          "specularFactor": 0.5226682595604101
        }
      },
      "name": "F1Mazda_RX7F1_1993TexturedA_Material1",
      "pbrMetallicRoughness": {
        "baseColorTexture": {
          "index": 20
        },
        "metallicFactor": 0.565335056259219,
        "roughnessFactor": 0.2605722226962977
      }
    },
    {
      "alphaMode": "BLEND",
      "doubleSided": true,
      "extensions": {
        "KHR_materials_specular": {
          "specularColorFactor": [
            1.0,
            1.0,
            1.0
          ],
          "specularFactor": 1.0
        },
        "KHR_materials_transmission": {
          "transmissionFactor": 1.0
        }
      },
      "name": "orange_glass",
      "pbrMetallicRoughness": {
        "baseColorFactor": [
          0.915,
          0.10557600000000003,
          0.0,
          0.25
        ],
        "metallicFactor": 0.0,
        "roughnessFactor": 0.0
      }
    },
    {
      "doubleSided": true,
      "extensions": {
        "KHR_materials_specular": {
          "specularColorFactor": [
            1.0,
            1.0,
            1.0
          ],
          "specularFactor": 0.22400068266874718
        }
      },
      "name": "F1Mazda_RX7F1_1993Grille3A_Material1",
      "normalTexture": {
        "index": 22,
        "texCoord": 1
      },
      "pbrMetallicRoughness": {
        "baseColorTexture": {
          "index": 21
        },
        "metallicFactor": 0.7238117297119381,
        "roughnessFactor": 0.5714303129304774
      }
    },
    {
      "doubleSided": true,
      "extensions": {
        "KHR_materials_specular": {
          "specularColorFactor": [
            1.0,
            1.0,
            1.0
          ],
          "specularFactor": 0.23009593934000558
        }
      },
      "name": "F1Mazda_RX7F1_1993Paint_Material1",
      "pbrMetallicRoughness": {
        "baseColorTexture": {
          "index": 23
        },
        "metallicFactor": 0.1386670892711292,
        "roughnessFactor": 0.08990503590106179
      }
    },
    {
      "alphaMode": "BLEND",
      "doubleSided": true,
      "emissiveFactor": [
        1.0,
        1.0,
        1.0
      ],
      "emissiveTexture": {
        "index": 25
      },
      "extensions": {
        "KHR_materials_specular": {
          "specularColorFactor": [
            1.0,
            1.0,
            1.0
          ],
          "specularFactor": 0.0
        }
      },
      "name": "F1Mazda_RX7F1_1993UnderLightingA_Material1",
      "pbrMetallicRoughness": {
        "baseColorFactor": [
          1.0,
          1.0,
          1.0,
          0.37638209945020784
        ],
        "baseColorTexture": {
          "index": 24
        },
        "metallicFactor": 0.0,
        "roughnessFactor": 0.3769969549419716
      }
    }
  ],
  "meshes": [
    {
      "name": "polySurface669_F1:Mazda_RX7F1_1993_Wheel1A_3D_3DWheel1A_Material1_0",
      "primitives": [
        {
          "attributes": {
            "NORMAL": 1,
            "POSITION": 0,
            "TANGENT": 2,
            "TEXCOORD_0": 3,
            "TEXCOORD_1": 4
          },
          "indices": 5,
          "material": 0,
          "mode": 4
        }
      ]
    },
    {
      "name": "polySurface1338_F1:Mazda_RX7F1_1993_Wheel1A_3D_3DWheel1A_Material1_0",
      "primitives": [
        {
          "attributes": {
            "NORMAL": 7,
            "POSITION": 6,
            "TANGENT": 8,
            "TEXCOORD_0": 9,
            "TEXCOORD_1": 10
          },
          "indices": 11,
          "material": 0,
          "mode": 4
        }
      ]
    },
    {
      "name": "polySurface1339_F1:Mazda_RX7F1_1993_Wheel1A_3D_3DWheel1A_Material1_0",
      "primitives": [
        {
          "attributes": {
            "NORMAL": 13,
            "POSITION": 12,
            "TANGENT": 14,
            "TEXCOORD_0": 15,
            "TEXCOORD_1": 16
          },
          "indices": 17,
          "material": 0,
          "mode": 4
        }
      ]
    },
    {
      "name": "polySurface2008_F1:Mazda_RX7F1_1993_Wheel1A_3D_3DWheel1A_Material1_0",
      "primitives": [
        {
          "attributes": {
            "NORMAL": 19,
            "POSITION": 18,
            "TANGENT": 20,
            "TEXCOORD_0": 21,
            "TEXCOORD_1": 22
          },
          "indices": 23,
          "material": 0,
          "mode": 4
        }
      ]
    },
    {
      "name": "polySurface2009_F1:Mazda_RX7F1_1993CalliperGloss_Material1_0",
      "primitives": [
        {
          "attributes": {
            "NORMAL": 25,
            "POSITION": 24,
            "TANGENT": 26,
            "TEXCOORD_0": 27
          },
          "indices": 28,
          "material": 1,
          "mode": 4
        }
      ]
    },
    {
      "name": "polySurface2034_F1:Mazda_RX7F1_1993CalliperGloss_Material1_0",
      "primitives": [
        {
          "attributes": {
            "NORMAL": 30,
            "POSITION": 29,
            "TANGENT": 31,
            "TEXCOORD_0": 32
          },
          "indices": 33,
          "material": 1,
          "mode": 4
        }
      ]
    },
    {
      "name": "polySurface2059_F1:Mazda_RX7F1_1993CalliperGloss_Material1_0",
      "primitives": [
        {
          "attributes": {
            "NORMAL": 35,
            "POSITION": 34,
            "TANGENT": 36,
            "TEXCOORD_0": 37
          },
          "indices": 38,
          "material": 1,
          "mode": 4
        }
      ]
    },
    {
      "name": "polySurface2118_F1:Mazda_RX7F1_1993CalliperGloss_Material1_0",
      "primitives": [
        {
          "attributes": {
            "NORMAL": 40,
            "POSITION": 39,
            "TANGENT": 41,
            "TEXCOORD_0": 42
          },
          "indices": 43,
          "material": 1,
          "mode": 4
        }
      ]
    },
    {
      "name": "F1:Base_Geo_lodA_Base_Geo_lodA_Mazda_RX7F1_1993Base_Material_F1:Mazda_RX7F1_1993Base_Material1_0",
      "primitives": [
        {
          "attributes": {
            "NORMAL": 45,
            "POSITION": 44
          },
          "indices": 46,
          "material": 2,
          "mode": 4
        }
      ]
    },
    {
      "name": "F1:Engine_Geo_lodA_Engine_Geo_lodA_Mazda_RX7F1_1993EngineA_Material_F1:Mazda_RX7F1_1993EngineA_Material1_0",
      "primitives": [
        {
          "attributes": {
            "NORMAL": 48,
            "POSITION": 47,
            "TANGENT": 49,
            "TEXCOORD_0": 50,
            "TEXCOORD_1": 51,
            "TEXCOORD_2": 52
          },
          "indices": 53,
          "material": 3,
          "mode": 4
        }
      ]
    },
    {
      "name": "F1:Grille4_Geo_lodA_Grille4_Geo_lodA_Mazda_RX7F1_1993Grille4A_Material_F1:Mazda_RX7F1_1993Grille4A_Material1_0",
      "primitives": [
        {
          "attributes": {
            "NORMAL": 55,
            "POSITION": 54,
            "TANGENT": 56,
            "TEXCOORD_0": 57,
            "TEXCOORD_1": 58
          },
          "indices": 59,
          "material": 4,
          "mode": 4
        }
      ]
    },
    {
      "name": "F1:SeatBelt_Geo_lodA_SeatBelt_Geo_lodA_Mazda_RX7F1_1993SeatBelt_Material_F1:Mazda_RX7F1_1993Coloured_Material1_0",
      "primitives": [
        {
          "attributes": {
            "NORMAL": 61,
            "POSITION": 60,
            "TEXCOORD_0": 62
          },
          "indices": 63,
          "material": 5,
          "mode": 4
        }
      ]
    },
    {
      "name": "F1:Window_Geo_lodA_Window_Geo_lodA_Mazda_RX7F1_1993Window_Material_F1:Mazda_RX7F1_1993Window_Material1_0",
      "primitives": [
        {
          "attributes": {
            "NORMAL": 65,
            "POSITION": 64,
            "TEXCOORD_0": 66
          },
          "indices": 67,
          "material": 6,
          "mode": 4
        }
      ]
    },
    {
      "name": "F1:Window_Geo_lodA_Window_Geo_lodA_Mazda_RX7F1_1993Window_Material_light_glass_0",
      "primitives": [
        {
          "attributes": {
            "NORMAL": 69,
            "POSITION": 68,
            "TEXCOORD_0": 70
          },
          "indices": 71,
          "material": 7,
          "mode": 4
        }
      ]
    },
    {
      "name": "F1:Window_Geo_lodA_Window_Geo_lodA_Mazda_RX7F1_1993Window_Material_red_glass_0",
      "primitives": [
        {
          "attributes": {
            "NORMAL": 73,
            "POSITION": 72,
            "TEXCOORD_0": 74
          },
          "indices": 75,
          "material": 8,
          "mode": 4
        }
      ]
    },
    {
      "name": "F1:Carbon1_Geo_lodA_Carbon1_Geo_lodA_Mazda_RX7F1_1993Carbon1_Material_F1:Mazda_RX7F1_1993Carbon1_Material1_0",
      "primitives": [
        {
          "attributes": {
            "NORMAL": 77,
            "POSITION": 76,
            "TANGENT": 78,
            "TEXCOORD_0": 79,
            "TEXCOORD_1": 80
          },
          "indices": 81,
          "material": 9,
          "mode": 4
        }
      ]
    },
    {
      "name": "F1:Grille1_Geo_lodA_Grille1_Geo_lodA_Mazda_RX7F1_1993Grille1A_Material_F1:Mazda_RX7F1_1993Grille1A_Material1_0",
      "primitives": [
        {
          "attributes": {
            "NORMAL": 83,
            "POSITION": 82,
            "TANGENT": 84,
            "TEXCOORD_0": 85,
            "TEXCOORD_1": 86
          },
          "indices": 87,
          "material": 10,
          "mode": 4
        }
      ]
    },
    {
      "name": "F1:Interior_Geo_lodA_Interior_Geo_lodA_Mazda_RX7F1_1993InteriorA_Material_F1:Mazda_RX7F1_1993InteriorA_Material1_0",
      "primitives": [
        {
          "attributes": {
            "NORMAL": 89,
            "POSITION": 88,
            "TANGENT": 90,
            "TEXCOORD_0": 91,
            "TEXCOORD_1": 92,
            "TEXCOORD_2": 93
          },
          "indices": 94,
          "material": 11,
          "mode": 4
        }
      ]
    },
    {
      "name": "F1:Light_Geo_lodA_Light_Geo_lodA_Mazda_RX7F1_1993LightA_Material_F1:Mazda_RX7F1_1993LightA_Material1_0",
      "primitives": [
        {
          "attributes": {
            "NORMAL": 96,
            "POSITION": 95,
            "TEXCOORD_0": 97
          },
          "indices": 98,
          "material": 12,
          "mode": 4
        }
      ]
    },
    {
      "name": "F1:ManufacturerPlate_Geo_lodA_ManufacturerPlate_Geo_lodA_Mazda_RX7F1_1993ManufacturerPlateA_Material_F1:Mazda_RX7F1_1993ManufacturerPlateA_Material1_0",
      "primitives": [
        {
          "attributes": {
            "NORMAL": 100,
            "POSITION": 99,
            "TEXCOORD_0": 101
          },
          "indices": 102,
          "material": 13,
          "mode": 4
        }
      ]
    },
    {
      "name": "F1:Carbon2_Geo_lodA_Carbon2_Geo_lodA_Mazda_RX7F1_1993Carbon2_Material_phong2_0",
      "primitives": [
        {
          "attributes": {
            "NORMAL": 104,
            "POSITION": 103,
            "TEXCOORD_0": 105
          },
          "indices": 106,
          "material": 14,
          "mode": 4
        }
      ]
    },
    {
      "name": "F1:Grille2_Geo_lodA_Grille2_Geo_lodA_Mazda_RX7F1_1993Grille2A_Material_F1:Mazda_RX7F1_1993Grille2A_Material1_0",
      "primitives": [
        {
          "attributes": {
            "NORMAL": 108,
            "POSITION": 107,
            "TANGENT": 109,
            "TEXCOORD_0": 110,
            "TEXCOORD_1": 111,
            "TEXCOORD_2": 112
          },
          "indices": 113,
          "material": 15,
          "mode": 4
        }
      ]
    },
    {
      "name": "F1:InteriorTilling_Geo_lodA_InteriorTilling_Geo_lodA_Mazda_RX7F1_1993InteriorTillingA_Material_F1:Mazda_RX7F1_1993InteriorTillingA_Material1_0",
      "primitives": [
        {
          "attributes": {
            "NORMAL": 115,
            "POSITION": 114,
            "TANGENT": 116,
            "TEXCOORD_0": 117,
            "TEXCOORD_1": 118
          },
          "indices": 119,
          "material": 16,
          "mode": 4
        }
      ]
    },
    {
      "name": "F1:Textured_Geo_lodA_Textured_Geo_lodA_Mazda_RX7F1_1993TexturedA_Material_F1:Mazda_RX7F1_1993TexturedA_Material1_0",
      "primitives": [
        {
          "attributes": {
            "NORMAL": 121,
            "POSITION": 120,
            "TEXCOORD_0": 122
          },
          "indices": 123,
          "material": 17,
          "mode": 4
        }
      ]
    },
    {
      "name": "F1:WindowInside_Geo_lodA_WindowInside_Geo_lodA_Mazda_RX7F1_1993WindowInside_Material_F1:Mazda_RX7F1_1993Window_Material1_0",
      "primitives": [
        {
          "attributes": {
            "NORMAL": 125,
            "POSITION": 124,
            "TEXCOORD_0": 126
          },
          "indices": 127,
          "material": 6,
          "mode": 4
        }
      ]
    },
    {
      "name": "F1:WindowInside_Geo_lodA_WindowInside_Geo_lodA_Mazda_RX7F1_1993WindowInside_Material_red_glass_0",
      "primitives": [
        {
          "attributes": {
            "NORMAL": 129,
            "POSITION": 128,
            "TEXCOORD_0": 130
          },
          "indices": 131,
          "material": 8,
          "mode": 4
        }
      ]
    },
    {
      "name": "F1:WindowInside_Geo_lodA_WindowInside_Geo_lodA_Mazda_RX7F1_1993WindowInside_Material_orange_glass_0",
      "primitives": [
        {
          "attributes": {
            "NORMAL": 133,
            "POSITION": 132,
            "TEXCOORD_0": 134
          },
          "indices": 135,
          "material": 18,
          "mode": 4
        }
      ]
    },
    {
      "name": "F1:Coloured_Geo_lodA_Coloured_Geo_lodA_Mazda_RX7F1_1993Coloured_Material_F1:Mazda_RX7F1_1993Coloured_Material1_0",
      "primitives": [
        {
          "attributes": {
            "NORMAL": 137,
            "POSITION": 136,
            "TEXCOORD_0": 138
          },
          "indices": 139,
          "material": 5,
          "mode": 4
        }
      ]
    },
    {
      "name": "F1:Grille3_Geo_lodA_Grille3_Geo_lodA_Mazda_RX7F1_1993Grille3A_Material_F1:Mazda_RX7F1_1993Grille3A_Material1_0",
      "primitives": [
        {
          "attributes": {
            "NORMAL": 141,
            "POSITION": 140,
            "TANGENT": 142,
            "TEXCOORD_0": 143,
            "TEXCOORD_1": 144
          },
          "indices": 145,
          "material": 19,
          "mode": 4
        }
      ]
    },
    {
      "name": "F1:Paint_Geo_lodA_Paint_Geo_lodA_Mazda_RX7F1_1993Paint_Material_F1:Mazda_RX7F1_1993Paint_Material1_0",
      "primitives": [
        {
          "attributes": {
            "NORMAL": 147,
            "POSITION": 146,
            "TEXCOORD_0": 148
          },
          "indices": 149,
          "material": 20,
          "mode": 4
        }
      ]
    },
    {
      "name": "F1:UnderLighting_UnderLighting_Mazda_RX7F1_1993UnderLightingA_Material_F1:Mazda_RX7F1_1993UnderLightingA_Material1_0",
      "primitives": [
        {
          "attributes": {
            "NORMAL": 151,
            "POSITION": 150,
            "TEXCOORD_0": 152
          },
          "indices": 153,
          "material": 21,
          "mode": 4
        }
      ]
    }
  ],
  "nodes": [
    {
      "children": [
        1
      ],
      "matrix": [
        1.0,
        0.0,
        0.0,
        0.0,
        0.0,
        2.220446049250313e-16,
        -1.0,
        0.0,
        0.0,
        1.0,
        2.220446049250313e-16,
        0.0,
        0.0,
        0.0,
        0.0,
        1.0
      ],
      "name": "Sketchfab_model"
    },
    {
      "children": [
        2
      ],
      "matrix": [
        0.009999999776482582,
        0.0,
        0.0,
        0.0,
        0.0,
        0.0,
        0.009999999776482582,
        0.0,
        0.0,
        -0.009999999776482582,
        0.0,
        0.0,
        0.0,
        0.0,
        0.0,
        1.0
      ],
      "name": "FINAL_MODEL_F1.fbx"
    },
    {
      "children": [
        3
      ],
      "name": "RootNode"
    },
    {
      "children": [
        4,
        35,
        37,
        39,
        41,
        43,
        47,
        49,
        51,
        53,
        55,
        57,
        59,
        61,
        63,
        65,
        69,
        71,
        73,
        75
      ],
      "name": "Object_3"
    },
    {
      "children": [
        5,
        18
      ],
      "name": "_rootJoint"
    },
    {
      "children": [
        6,
        9,
        12,
        15
      ],
      "name": "Wheel1A_3D_00"
    },
    {
      "children": [
        7
      ],
      "matrix": [
        0.9993908239694004,
        0.034899584034241544,
        0.0,
        0.0,
        -0.034899584034241544,
        0.9993908239694004,
        0.0,
        0.0,
        0.0,
        0.0,
        1.0,
        0.0,
        0.7379999756813049,
        0.30730000138282776,
        1.3489999771118164,
        1.0
      ],
      "name": "3DWheel Front L"
    },
    {
      "children": [
        8
      ],
      "name": "polySurface669"
    },
    {
      "mesh": 0,
      "name": "polySurface669_F1:Mazda_RX7F1_1993_Wheel1A_3D_3DWheel1A_Material1_0"
    },
    {
      "children": [
        10
      ],
      "matrix": [
        -0.9993908270189382,
        0.03489949670249565,
        5.614183694555229e-07,
        0.0,
        0.03489949670250114,
        0.9993908270190958,
        -1.224646802954331e-16,
        0.0,
        -5.610763685581411e-07,
        1.959321841114651e-08,
        -0.9999999999998423,
        0.0,
        -0.7379999756813049,
        0.30730000138282776,
        1.3489999771118164,
        1.0
      ],
      "name": "3DWheel Front R"
    },
    {
      "children": [
        11
      ],
      "matrix": [
        0.9999999999998426,
        -1.3746596108113946e-22,
        -5.610763685581413e-07,
        0.0,
        1.374659632250068e-22,
        1.0,
        3.82095167755843e-24,
        0.0,
        5.610763685581413e-07,
        -3.8210288064612746e-24,
        0.9999999999998426,
        0.0,
        0.0,
        0.0,
        0.0,
        1.0
      ],
      "name": "polySurface1338"
    },
    {
      "mesh": 1,
      "name": "polySurface1338_F1:Mazda_RX7F1_1993_Wheel1A_3D_3DWheel1A_Material1_0"
    },
    {
      "children": [
        13
      ],
      "matrix": [
        0.9993908239694004,
        0.034899584034241544,
        0.0,
        0.0,
        -0.034899584034241544,
        0.9993908239694004,
        0.0,
        0.0,
        0.0,
        0.0,
        1.0,
        0.0,
        0.7379999756813049,
        0.3061999976634979,
        -1.1299999952316284,
        1.0
      ],
      "name": "3DWheel Rear L"
    },
    {
      "children": [
        14
      ],
      "name": "polySurface1339"
    },
    {
      "mesh": 2,
      "name": "polySurface1339_F1:Mazda_RX7F1_1993_Wheel1A_3D_3DWheel1A_Material1_0"
    },
    {
      "children": [
        16
      ],
      "matrix": [
        -0.9993908270189382,
        0.03489949670249565,
        5.614183694555229e-07,
        0.0,
        0.03489949670250114,
        0.9993908270190958,
        -1.224646802954331e-16,
        0.0,
        -5.610763685581411e-07,
        1.959321841114651e-08,
        -0.9999999999998423,
        0.0,
        -0.7379999756813049,
        0.3061999976634979,
        -1.1299999952316284,
        1.0
      ],
      "name": "3DWheel Rear R"
    },
    {
      "children": [
        17
      ],
      "matrix": [
        1.0,
        -6.875392205614272e-23,
        0.0,
        0.0,
        6.875392205614272e-23,
        1.0,
        3.820951677558428e-24,
        0.0,
        -2.627054138191399e-46,
        -3.820951677558428e-24,
        1.0,
        0.0,
        0.0,
        0.0,
        0.0,
        1.0
      ],
      "name": "polySurface2008"
    },
    {
      "mesh": 3,
      "name": "polySurface2008_F1:Mazda_RX7F1_1993_Wheel1A_3D_3DWheel1A_Material1_0"
    },
    {
      "children": [
        19,
        23,
        27,
        31
      ],
      "name": "Common_01"
    },
    {
      "children": [
        20
      ],
      "name": "Calliper Front L_02",
      "rotation": [
        0.0,
        0.0,
        0.017452457919716835,
        0.9998477101325989
      ],
      "translation": [
        0.7379999756813049,
        0.30730000138282776,
        1.3489999771118164
      ]
    },
    {
      "children": [
        21
      ],
      "matrix": [
        0.8851135969161987,
        0.0,
        0.0,
        0.0,
        0.0,
        0.8851136565208435,
        0.0,
        0.0,
        0.0,
        0.0,
        0.8851137161254883,
        0.0,
        0.013700000010430813,
        -0.00039999998989515007,
        -0.12470000237226486,
        1.0
      ],
      "name": "CalliperBody Front L"
    },
    {
      "children": [
        22
      ],
      "matrix": [
        1.1297985315322876,
        0.0,
        0.0,
        0.0,
        0.0,
        1.129798412322998,
        0.0,
        0.0,
        0.0,
        0.0,
        1.1297982931137085,
        0.0,
        0.0,
        0.0,
        0.0,
        1.0
      ],
      "name": "polySurface2009"
    },
    {
      "mesh": 4,
      "name": "polySurface2009_F1:Mazda_RX7F1_1993CalliperGloss_Material1_0"
    },
    {
      "children": [
        24
      ],
      "name": "Calliper Front R_03",
      "rotation": [
        0.017452405765652657,
        0.9998477101325989,
        5.475260689280503e-09,
        -3.136774751055782e-07
      ],
      "translation": [
        -0.7379999756813049,
        0.30730000138282776,
        1.3489999771118164
      ]
    },
    {
      "children": [
        25
      ],
      "matrix": [
        0.8851135969161987,
        1.0839515333452234e-16,
        -1.0587911840678751e-22,
        -0.0,
        -1.0839516063398608e-16,
        0.8851136565208435,
        5.903904693278695e-24,
        -0.0,
        -1.0587912553681835e-22,
        5.9039046932786816e-24,
        -0.8851136565208435,
        -0.0,
        0.013700000010430813,
        -0.00039999998989515007,
        0.12470000237226486,
        1.0
      ],
      "name": "CalliperBody Front R"
    },
    {
      "children": [
        26
      ],
      "matrix": [
        1.1297985315322876,
        6.938807381847053e-18,
        3.1763736859835947e-22,
        0.0,
        -6.938806649707406e-18,
        1.129798412322998,
        -7.008561621387723e-24,
        0.0,
        -3.1769400913872195e-22,
        7.009812115477237e-24,
        1.1299999952316284,
        0.0,
        0.0,
        0.0,
        0.0,
        1.0
      ],
      "name": "polySurface2034"
    },
    {
      "mesh": 5,
      "name": "polySurface2034_F1:Mazda_RX7F1_1993CalliperGloss_Material1_0"
    },
    {
      "children": [
        28
      ],
      "name": "Calliper Rear L_04",
      "rotation": [
        0.0,
        0.0,
        0.017452457919716835,
        0.9998477101325989
      ],
      "translation": [
        0.7379999756813049,
        0.3061999976634979,
        -1.1299999952316284
      ]
    },
    {
      "children": [
        29
      ],
      "matrix": [
        0.7344352943640016,
        -0.00019888642086719407,
        -0.0015368303274391232,
        0.0,
        0.0005669101310031686,
        0.712355114821641,
        0.1787321897958916,
        0.0,
        0.0014422262301300355,
        -0.17873342788139343,
        0.7123554748232661,
        0.0,
        -0.004899900406599045,
        0.0370602160692215,
        -0.09688881039619446,
        1.0
      ],
      "name": "CalliperBody Rear L"
    },
    {
      "children": [
        30
      ],
      "matrix": [
        1.3615872859954834,
        9.757819385852831e-18,
        -4.3368086159345914e-19,
        0.0,
        -9.75783903506868e-18,
        1.361590027809143,
        5.551115345560712e-17,
        0.0,
        4.3368074768496187e-19,
        -5.5511027093360934e-17,
        1.3615869283676147,
        0.0,
        0.0,
        0.0,
        0.0,
        1.0
      ],
      "name": "polySurface2059"
    },
    {
      "mesh": 6,
      "name": "polySurface2059_F1:Mazda_RX7F1_1993CalliperGloss_Material1_0"
    },
    {
      "children": [
        32
      ],
      "name": "Calliper Rear R_05",
      "rotation": [
        0.017452405765652657,
        0.9998477101325989,
        -6.12230120319488e-17,
        -1.0686516939573904e-18
      ],
      "translation": [
        -0.7379999756813049,
        0.3061999976634979,
        -1.1299999952316284
      ]
    },
    {
      "children": [
        33
      ],
      "matrix": [
        0.7344354887055987,
        -0.00020471568622106555,
        -0.0014401500122482216,
        -0.0,
        -0.00015191270065658628,
        0.7123554550373251,
        -0.1787316683466636,
        -0.0,
        -0.0014466736682664384,
        -0.17873206533302233,
        -0.7123558076737374,
        -0.0,
        -0.004899900406599045,
        0.0370602160692215,
        0.09688881039619446,
        1.0
      ],
      "name": "CalliperBody Rear R"
    },
    {
      "children": [
        34
      ],
      "matrix": [
        1.3615872859954834,
        8.023095938150035e-18,
        1.7347234460864936e-18,
        0.0,
        -8.023112094171952e-18,
        1.361590027809143,
        -5.551115346474181e-17,
        0.0,
        -1.735249247711695e-18,
        5.552786730184652e-17,
        1.3619999885559082,
        0.0,
        0.0,
        0.0,
        0.0,
        1.0
      ],
      "name": "polySurface2118"
    },
    {
      "mesh": 7,
      "name": "polySurface2118_F1:Mazda_RX7F1_1993CalliperGloss_Material1_0"
    },
    {
      "children": [
        36
      ],
      "name": "F1:Base_Geo_lodA_Base_Geo_lodA_Mazda_RX7F1_1993Base_Material"
    },
    {
      "mesh": 8,
      "name": "F1:Base_Geo_lodA_Base_Geo_lodA_Mazda_RX7F1_1993Base_Material_F1:Mazda_RX7F1_1993Base_Material1_0"
    },
    {
      "children": [
        38
      ],
      "name": "F1:Engine_Geo_lodA_Engine_Geo_lodA_Mazda_RX7F1_1993EngineA_Material"
    },
    {
      "mesh": 9,
      "name": "F1:Engine_Geo_lodA_Engine_Geo_lodA_Mazda_RX7F1_1993EngineA_Material_F1:Mazda_RX7F1_1993EngineA_Material1_0"
    },
    {
      "children": [
        40
      ],
      "name": "F1:Grille4_Geo_lodA_Grille4_Geo_lodA_Mazda_RX7F1_1993Grille4A_Material"
    },
    {
      "mesh": 10,
      "name": "F1:Grille4_Geo_lodA_Grille4_Geo_lodA_Mazda_RX7F1_1993Grille4A_Material_F1:Mazda_RX7F1_1993Grille4A_Material1_0"
    },
    {
      "children": [
        42
      ],
      "name": "F1:SeatBelt_Geo_lodA_SeatBelt_Geo_lodA_Mazda_RX7F1_1993SeatBelt_Material"
    },
    {
      "mesh": 11,
      "name": "F1:SeatBelt_Geo_lodA_SeatBelt_Geo_lodA_Mazda_RX7F1_1993SeatBelt_Material_F1:Mazda_RX7F1_1993Coloured_Material1_0"
    },
    {
      "children": [
        44,
        45,
        46
      ],
      "name": "F1:Window_Geo_lodA_Window_Geo_lodA_Mazda_RX7F1_1993Window_Material"
    },
    {
      "mesh": 12,
      "name": "F1:Window_Geo_lodA_Window_Geo_lodA_Mazda_RX7F1_1993Window_Material_F1:Mazda_RX7F1_1993Window_Material1_0"
    },
    {
      "mesh": 13,
      "name": "F1:Window_Geo_lodA_Window_Geo_lodA_Mazda_RX7F1_1993Window_Material_light_glass_0"
    },
    {
      "mesh": 14,
      "name": "F1:Window_Geo_lodA_Window_Geo_lodA_Mazda_RX7F1_1993Window_Material_red_glass_0"
    },
    {
      "children": [
        48
      ],
      "name": "F1:Carbon1_Geo_lodA_Carbon1_Geo_lodA_Mazda_RX7F1_1993Carbon1_Material"
    },
    {
      "mesh": 15,
      "name": "F1:Carbon1_Geo_lodA_Carbon1_Geo_lodA_Mazda_RX7F1_1993Carbon1_Material_F1:Mazda_RX7F1_1993Carbon1_Material1_0"
    },
    {
      "children": [
        50
      ],
      "name": "F1:Grille1_Geo_lodA_Grille1_Geo_lodA_Mazda_RX7F1_1993Grille1A_Material"
    },
    {
      "mesh": 16,
      "name": "F1:Grille1_Geo_lodA_Grille1_Geo_lodA_Mazda_RX7F1_1993Grille1A_Material_F1:Mazda_RX7F1_1993Grille1A_Material1_0"
    },
    {
      "children": [
        52
      ],
      "name": "F1:Interior_Geo_lodA_Interior_Geo_lodA_Mazda_RX7F1_1993InteriorA_Material"
    },
    {
      "mesh": 17,
      "name": "F1:Interior_Geo_lodA_Interior_Geo_lodA_Mazda_RX7F1_1993InteriorA_Material_F1:Mazda_RX7F1_1993InteriorA_Material1_0"
    },
    {
      "children": [
        54
      ],
      "name": "F1:Light_Geo_lodA_Light_Geo_lodA_Mazda_RX7F1_1993LightA_Material"
    },
    {
      "mesh": 18,
      "name": "F1:Light_Geo_lodA_Light_Geo_lodA_Mazda_RX7F1_1993LightA_Material_F1:Mazda_RX7F1_1993LightA_Material1_0"
    },
    {
      "children": [
        56
      ],
      "name": "F1:ManufacturerPlate_Geo_lodA_ManufacturerPlate_Geo_lodA_Mazda_RX7F1_1993ManufacturerPlateA_Material"
    },
    {
      "mesh": 19,
      "name": "F1:ManufacturerPlate_Geo_lodA_ManufacturerPlate_Geo_lodA_Mazda_RX7F1_1993ManufacturerPlateA_Material_F1:Mazda_RX7F1_1993ManufacturerPlateA_Material1_0"
    },
    {
      "children": [
        58
      ],
      "name": "F1:Carbon2_Geo_lodA_Carbon2_Geo_lodA_Mazda_RX7F1_1993Carbon2_Material"
    },
    {
      "mesh": 20,
      "name": "F1:Carbon2_Geo_lodA_Carbon2_Geo_lodA_Mazda_RX7F1_1993Carbon2_Material_phong2_0"
    },
    {
      "children": [
        60
      ],
      "name": "F1:Grille2_Geo_lodA_Grille2_Geo_lodA_Mazda_RX7F1_1993Grille2A_Material"
    },
    {
      "mesh": 21,
      "name": "F1:Grille2_Geo_lodA_Grille2_Geo_lodA_Mazda_RX7F1_1993Grille2A_Material_F1:Mazda_RX7F1_1993Grille2A_Material1_0"
    },
    {
      "children": [
        62
      ],
      "name": "F1:InteriorTilling_Geo_lodA_InteriorTilling_Geo_lodA_Mazda_RX7F1_1993InteriorTillingA_Material"
    },
    {
      "mesh": 22,
      "name": "F1:InteriorTilling_Geo_lodA_InteriorTilling_Geo_lodA_Mazda_RX7F1_1993InteriorTillingA_Material_F1:Mazda_RX7F1_1993InteriorTillingA_Material1_0"
    },
    {
      "children": [
        64
      ],
      "name": "F1:Textured_Geo_lodA_Textured_Geo_lodA_Mazda_RX7F1_1993TexturedA_Material"
    },
    {
      "mesh": 23,
      "name": "F1:Textured_Geo_lodA_Textured_Geo_lodA_Mazda_RX7F1_1993TexturedA_Material_F1:Mazda_RX7F1_1993TexturedA_Material1_0"
    },
    {
      "children": [
        66,
        67,
        68
      ],
      "name": "F1:WindowInside_Geo_lodA_WindowInside_Geo_lodA_Mazda_RX7F1_1993WindowInside_Material"
    },
    {
      "mesh": 24,
      "name": "F1:WindowInside_Geo_lodA_WindowInside_Geo_lodA_Mazda_RX7F1_1993WindowInside_Material_F1:Mazda_RX7F1_1993Window_Material1_0"
    },
    {
      "mesh": 25,
      "name": "F1:WindowInside_Geo_lodA_WindowInside_Geo_lodA_Mazda_RX7F1_1993WindowInside_Material_red_glass_0"
    },
    {
      "mesh": 26,
      "name": "F1:WindowInside_Geo_lodA_WindowInside_Geo_lodA_Mazda_RX7F1_1993WindowInside_Material_orange_glass_0"
    },
    {
      "children": [
        70
      ],
      "name": "F1:Coloured_Geo_lodA_Coloured_Geo_lodA_Mazda_RX7F1_1993Coloured_Material"
    },
    {
      "mesh": 27,
      "name": "F1:Coloured_Geo_lodA_Coloured_Geo_lodA_Mazda_RX7F1_1993Coloured_Material_F1:Mazda_RX7F1_1993Coloured_Material1_0"
    },
    {
      "children": [
        72
      ],
      "name": "F1:Grille3_Geo_lodA_Grille3_Geo_lodA_Mazda_RX7F1_1993Grille3A_Material"
    },
    {
      "mesh": 28,
      "name": "F1:Grille3_Geo_lodA_Grille3_Geo_lodA_Mazda_RX7F1_1993Grille3A_Material_F1:Mazda_RX7F1_1993Grille3A_Material1_0"
    },
    {
      "children": [
        74
      ],
      "name": "F1:Paint_Geo_lodA_Paint_Geo_lodA_Mazda_RX7F1_1993Paint_Material"
    },
    {
      "mesh": 29,
      "name": "F1:Paint_Geo_lodA_Paint_Geo_lodA_Mazda_RX7F1_1993Paint_Material_F1:Mazda_RX7F1_1993Paint_Material1_0"
    },
    {
      "children": [
        76
      ],
      "matrix": [
        1.0,
        0.0,
        0.0,
        0.0,
        0.0,
        1.0,
        0.0,
        0.0,
        0.0,
        0.0,
        1.0,
        0.0,
        0.0,
        -0.014042777009308338,
        0.0,
        1.0
      ],
      "name": "F1:UnderLighting_UnderLighting_Mazda_RX7F1_1993UnderLightingA_Material"
    },
    {
      "mesh": 30,
      "name": "F1:UnderLighting_UnderLighting_Mazda_RX7F1_1993UnderLightingA_Material_F1:Mazda_RX7F1_1993UnderLightingA_Material1_0"
    }
  ],
  "samplers": [
    {
      "magFilter": 9729,
      "minFilter": 9987,
      "wrapS": 10497,
      "wrapT": 10497
    }
  ],
  "scene": 0,
  "scenes": [
    {
      "name": "Sketchfab_Scene",
      "nodes": [
        0
      ]
    }
  ],
  "skins": [
    {
      "inverseBindMatrices": 154,
      "joints": [
        4,
        5,
        18,
        19,
        23,
        27,
        31
      ],
      "skeleton": 4
    }
  ],
  "textures": [
    {
      "sampler": 0,
      "source": 0
    },
    {
      "sampler": 0,
      "source": 1
    },
    {
      "sampler": 0,
      "source": 2
    },
    {
      "sampler": 0,
      "source": 3
    },
    {
      "sampler": 0,
      "source": 4
    },
    {
      "sampler": 0,
      "source": 5
    },
    {
      "sampler": 0,
      "source": 6
    },
    {
      "sampler": 0,
      "source": 7
    },
    {
      "sampler": 0,
      "source": 8
    },
    {
      "sampler": 0,
      "source": 9
    },
    {
      "sampler": 0,
      "source": 10
    },
    {
      "sampler": 0,
      "source": 11
    },
    {
      "sampler": 0,
      "source": 12
    },
    {
      "sampler": 0,
      "source": 13
    },
    {
      "sampler": 0,
      "source": 14
    },
    {
      "sampler": 0,
      "source": 15
    },
    {
      "sampler": 0,
      "source": 16
    },
    {
      "sampler": 0,
      "source": 17
    },
    {
      "sampler": 0,
      "source": 18
    },
    {
      "sampler": 0,
      "source": 19
    },
    {
      "sampler": 0,
      "source": 20
    },
    {
      "sampler": 0,
      "source": 21
    },
    {
      "sampler": 0,
      "source": 22
    },
    {
      "sampler": 0,
      "source": 23
    },
    {
      "sampler": 0,
      "source": 24
    },
    {
      "sampler": 0,
      "source": 25
    }
  ]
}
