{
  "accessors": [
    {
      "bufferView": 2,
      "componentType": 5126,
      "count": 21926,
      "max": [
        11.988752365112305,
        18.79916763305664,
        17.154199600219727
      ],
      "min": [
        -12.29541301727295,
        0.07364709675312042,
        -17.15317726135254
      ],
      "type": "VEC3"
    },
    {
      "bufferView": 2,
      "byteOffset": 263112,
      "componentType": 5126,
      "count": 21926,
      "max": [
        0.9999978542327881,
        1.0,
        0.999998152256012
      ],
      "min": [
        -0.9999979734420776,
        -1.0,
        -0.9999982714653015
      ],
      "type": "VEC3"
    },
    {
      "bufferView": 1,
      "componentType": 5126,
      "count": 21926,
      "max": [
        0.9979709982872009,
        0.9980469942092896
      ],
      "min": [
        0.0019529999699443579,
        0.005257010459899902
      ],
      "type": "VEC2"
    },
    {
      "bufferView": 1,
      "byteOffset": 175408,
      "componentType": 5126,
      "count": 21926,
      "max": [
        0.9979709982872009,
        0.9980469942092896
      ],
      "min": [
        0.0019529999699443579,
        0.005257010459899902
      ],
      "type": "VEC2"
    },
    {
      "bufferView": 1,
      "byteOffset": 350816,
      "componentType": 5126,
      "count": 21926,
      "max": [
        0.9979709982872009,
        0.9980469942092896
      ],
      "min": [
        0.0019529999699443579,
        0.005257010459899902
      ],
      "type": "VEC2"
    },
    {
      "bufferView": 0,
      "componentType": 5125,
      "count": 95328,
      "type": "SCALAR"
    }
  ],
  "asset": {
    "extras": {
      "author": "Arham Abdullah (https://sketchfab.com/arhamabdullahanimates)",
      "license": "CC-BY-4.0 (http://creativecommons.org/licenses/by/4.0/)",
      "source": "https://sketchfab.com/3d-models/sony-camera-4k-f7c8d7831aa24f979ff531934c8439de",
      "title": "SONY CAMERA 4K"
    },
    "generator": "Sketchfab-16.59.0",
    "version": "2.0"
  },
  "bufferViews": [
    {
      "buffer": 0,
      "byteLength": 381312,
      "name": "floatBufferViews",
      "target": 34963
    },
    {
      "buffer": 0,
      "byteLength": 526224,
      "byteOffset": 381312,
      "byteStride": 8,
      "name": "floatBufferViews",
      "target": 34962
    },
    {
      "buffer": 0,
      "byteLength": 526224,
      "byteOffset": 907536,
      "byteStride": 12,
      "name": "floatBufferViews",
      "target": 34962
    }
  ],
  "buffers": [
    {
      "byteLength": 1433760,
      "uri": "scene.bin"
    }
  ],
  "images": [
    {
      "uri": "textures/Camera_baseColor.png"
    },
    {
      "uri": "textures/Camera_metallicRoughness.png"
    }
  ],
  "materials": [
    {
      "doubleSided": true,
      "name": "Camera",
      "pbrMetallicRoughness": {
        "baseColorTexture": {
          "index": 0
        },
        "metallicRoughnessTexture": {
          "index": 1
        }
      }
    }
  ],
  "meshes": [
    {
      "name": "Object_0",
      "primitives": [
        {
          "attributes": {
            "NORMAL": 1,
            "POSITION": 0,
            "TEXCOORD_0": 2,
            "TEXCOORD_1": 3,
            "TEXCOORD_2": 4
          },
          "indices": 5,
          "material": 0,
          "mode": 4
        }
      ]
    }
  ],
  "nodes": [
    {
      "children": [
        1
      ],
      "matrix": [
        1.0,
        0.0,
        0.0,
        0.0,
        0.0,
        2.220446049250313e-16,
        -1.0,
        0.0,
        0.0,
        1.0,
        2.220446049250313e-16,
        0.0,
        0.0,
        0.0,
        0.0,
        1.0
      ],
      "name": "Sketchfab_model"
    },
    {
      "children": [
        2
      ],
      "name": "root"
    },
    {
      "children": [
        3
      ],
      "matrix": [
        1.0,
        0.0,
        0.0,
        0.0,
        0.0,
        2.220446049250313e-16,
        1.0,
        0.0,
        0.0,
        -1.0,
        2.220446049250313e-16,
        0.0,
        0.0,
        0.0,
        0.0,
        1.0
      ],
      "name": "GLTF_SceneRootNode"
    },
    {
      "children": [
        4
      ],
      "matrix": [
        1.0,
        0.0,
        0.0,
        0.0,
        0.0,
        2.220446049250313e-16,
        -1.0,
        0.0,
        0.0,
        1.0,
        2.220446049250313e-16,
        0.0,
        0.0,
        0.0,
        0.0,
        1.0
      ],
      "name": "Sketchfab_model_0"
    },
    {
      "children": [
        5
      ],
      "name": "root_1"
    },
    {
      "children": [
        6
      ],
      "matrix": [
        1.0,
        0.0,
        0.0,
        0.0,
        0.0,
        2.220446049250313e-16,
        1.0,
        0.0,
        0.0,
        -1.0,
        2.220446049250313e-16,
        0.0,
        0.0,
        0.0,
        0.0,
        1.0
      ],
      "name": "GLTF_SceneRootNode_2"
    },
    {
      "children": [
        7
      ],
      "matrix": [
        0.1996825486421585,
        0.0,
        0.0,
        0.0,
        0.0,
        0.1996825486421585,
        0.0,
        0.0,
        0.0,
        0.0,
        0.1996825486421585,
        0.0,
        0.0,
        0.0,
        0.0,
        1.0
      ],
      "name": "object_0_0_3"
    },
    {
      "children": [
        8
      ],
      "name": "Object_4_4"
    },
    {
      "mesh": 0,
      "name": "Object_8"
    }
  ],
  "samplers": [
    {
      "magFilter": 9729,
      "minFilter": 9987,
      "wrapS": 10497,
      "wrapT": 10497
    }
  ],
  "scene": 0,
  "scenes": [
    {
      "name": "Sketchfab_Scene",
      "nodes": [
        0
      ]
    }
  ],
  "textures": [
    {
      "sampler": 0,
      "source": 0
    },
    {
      "sampler": 0,
      "source": 1
    }
  ]
}
