{
  "accessors": [
    {
      "bufferView": 2,
      "componentType": 5126,
      "count": 4690,
      "max": [
        6.387930870056152,
        1.290556788444519,
        5.7347941398620605
      ],
      "min": [
        1.3792753219604492,
        -1.782045841217041,
        -5.69351053237915
      ],
      "type": "VEC3"
    },
    {
      "bufferView": 2,
      "byteOffset": 56280,
      "componentType": 5126,
      "count": 4690,
      "max": [
        1.0,
        1.0,
        0.9999901056289673
      ],
      "min": [
        -1.0,
        -0.9999938011169434,
        -1.0
      ],
      "type": "VEC3"
    },
    {
      "bufferView": 1,
      "componentType": 5126,
      "count": 4690,
      "max": [
        0.9890347719192505,
        0.9408692121505737
      ],
      "min": [
        0.1492164134979248,
        0.005273148417472839
      ],
      "type": "VEC2"
    },
    {
      "bufferView": 1,
      "byteOffset": 37520,
      "componentType": 5126,
      "count": 4690,
      "max": [
        0.9890347719192505,
        0.9408692121505737
      ],
      "min": [
        0.1492164134979248,
        0.005273148417472839
      ],
      "type": "VEC2"
    },
    {
      "bufferView": 0,
      "componentType": 5125,
      "count": 18582,
      "type": "SCALAR"
    },
    {
      "bufferView": 2,
      "byteOffset": 112560,
      "componentType": 5126,
      "count": 54,
      "max": [
        -1.320202350616455,
        1.9332349300384521,
        0.612822413444519
      ],
      "min": [
        -2.560222625732422,
        -1.8094968795776367,
        -0.10441556572914124
      ],
      "type": "VEC3"
    },
    {
      "bufferView": 2,
      "byteOffset": 113208,
      "componentType": 5126,
      "count": 54,
      "max": [
        0.049706846475601196,
        0.8867360949516296,
        0.505070149898529
      ],
      "min": [
        0.006745368242263794,
        -0.8867361545562744,
        0.462124228477478
      ],
      "type": "VEC3"
    },
    {
      "bufferView": 1,
      "byteOffset": 75040,
      "componentType": 5126,
      "count": 54,
      "max": [
        0.47770529985427856,
        0.13132336735725403
      ],
      "min": [
        0.4247267246246338,
        0.05396654084324837
      ],
      "type": "VEC2"
    },
    {
      "bufferView": 0,
      "byteOffset": 74328,
      "componentType": 5125,
      "count": 192,
      "type": "SCALAR"
    },
    {
      "bufferView": 2,
      "byteOffset": 113856,
      "componentType": 5126,
      "count": 574,
      "max": [
        -8.6251859664917,
        2.287026882171631,
        -0.9373611807823181
      ],
      "min": [
        -10.287360191345215,
        -2.1632885932922363,
        -2.3185083866119385
      ],
      "type": "VEC3"
    },
    {
      "bufferView": 2,
      "byteOffset": 120744,
      "componentType": 5126,
      "count": 574,
      "max": [
        1.0,
        0.9959977865219116,
        0.9518247246742249
      ],
      "min": [
        -1.0,
        -0.9959977865219116,
        -1.0
      ],
      "type": "VEC3"
    },
    {
      "bufferView": 1,
      "byteOffset": 75472,
      "componentType": 5126,
      "count": 574,
      "max": [
        0.9638504981994629,
        0.9682489037513733
      ],
      "min": [
        0.2607262432575226,
        0.007096606772392988
      ],
      "type": "VEC2"
    },
    {
      "bufferView": 1,
      "byteOffset": 80064,
      "componentType": 5126,
      "count": 574,
      "max": [
        0.9638504981994629,
        0.9682489037513733
      ],
      "min": [
        0.2607262432575226,
        0.007096606772392988
      ],
      "type": "VEC2"
    },
    {
      "bufferView": 1,
      "byteOffset": 84656,
      "componentType": 5126,
      "count": 574,
      "max": [
        0.9638504981994629,
        0.9682489037513733
      ],
      "min": [
        0.2607262432575226,
        0.007096606772392988
      ],
      "type": "VEC2"
    },
    {
      "bufferView": 0,
      "byteOffset": 75096,
      "componentType": 5125,
      "count": 1926,
      "type": "SCALAR"
    },
    {
      "bufferView": 2,
      "byteOffset": 127632,
      "componentType": 5126,
      "count": 408,
      "max": [
        0.4371547996997833,
        2.953939199447632,
        0.1794539839029312
      ],
      "min": [
        -0.33272746205329895,
        -0.7057430744171143,
        -0.36181914806365967
      ],
      "type": "VEC3"
    },
    {
      "bufferView": 2,
      "byteOffset": 132528,
      "componentType": 5126,
      "count": 408,
      "max": [
        0.9856603741645813,
        0.9848077893257141,
        0.9996750354766846
      ],
      "min": [
        -0.9742680788040161,
        -0.9848079085350037,
        -0.9995560050010681
      ],
      "type": "VEC3"
    },
    {
      "bufferView": 1,
      "byteOffset": 89248,
      "componentType": 5126,
      "count": 408,
      "max": [
        0.8723950386047363,
        0.8010814189910889
      ],
      "min": [
        0.7693465948104858,
        0.49192458391189575
      ],
      "type": "VEC2"
    },
    {
      "bufferView": 1,
      "byteOffset": 92512,
      "componentType": 5126,
      "count": 408,
      "max": [
        0.8723950386047363,
        0.8010814189910889
      ],
      "min": [
        0.7693465948104858,
        0.49192458391189575
      ],
      "type": "VEC2"
    },
    {
      "bufferView": 0,
      "byteOffset": 82800,
      "componentType": 5125,
      "count": 1560,
      "type": "SCALAR"
    },
    {
      "bufferView": 2,
      "byteOffset": 137424,
      "componentType": 5126,
      "count": 2706,
      "max": [
        6.3879313468933105,
        1.1584997177124023,
        5.7347941398620605
      ],
      "min": [
        1.3792753219604492,
        -1.782045841217041,
        -5.679450035095215
      ],
      "type": "VEC3"
    },
    {
      "bufferView": 2,
      "byteOffset": 169896,
      "componentType": 5126,
      "count": 2706,
      "max": [
        1.0,
        0.9998392462730408,
        1.0
      ],
      "min": [
        -1.0,
        -0.9999991655349731,
        -1.0
      ],
      "type": "VEC3"
    },
    {
      "bufferView": 1,
      "byteOffset": 95776,
      "componentType": 5126,
      "count": 2706,
      "max": [
        0.9906440377235413,
        0.9945236444473267
      ],
      "min": [
        0.018229294568300247,
        0.012717334553599358
      ],
      "type": "VEC2"
    },
    {
      "bufferView": 1,
      "byteOffset": 117424,
      "componentType": 5126,
      "count": 2706,
      "max": [
        0.9906440377235413,
        0.9945236444473267
      ],
      "min": [
        0.018229294568300247,
        0.012717334553599358
      ],
      "type": "VEC2"
    },
    {
      "bufferView": 1,
      "byteOffset": 139072,
      "componentType": 5126,
      "count": 2706,
      "max": [
        0.9906440377235413,
        0.9945236444473267
      ],
      "min": [
        0.018229294568300247,
        0.012717334553599358
      ],
      "type": "VEC2"
    },
    {
      "bufferView": 0,
      "byteOffset": 89040,
      "componentType": 5125,
      "count": 8016,
      "type": "SCALAR"
    },
    {
      "bufferView": 2,
      "byteOffset": 202368,
      "componentType": 5126,
      "count": 124,
      "max": [
        -9.033844947814941,
        1.7696864604949951,
        -0.8456754684448242
      ],
      "min": [
        -9.598535537719727,
        -1.6459484100341797,
        -1.1211590766906738
      ],
      "type": "VEC3"
    },
    {
      "bufferView": 2,
      "byteOffset": 203856,
      "componentType": 5126,
      "count": 124,
      "max": [
        -0.2549576163291931,
        0.9509333968162537,
        0.9650977849960327
      ],
      "min": [
        -0.9979969263076782,
        -0.9509333968162537,
        -0.9187942147254944
      ],
      "type": "VEC3"
    },
    {
      "bufferView": 1,
      "byteOffset": 160720,
      "componentType": 5126,
      "count": 124,
      "max": [
        0.16571149230003357,
        0.6968069672584534
      ],
      "min": [
        0.08506336808204651,
        0.6489772796630859
      ],
      "type": "VEC2"
    },
    {
      "bufferView": 0,
      "byteOffset": 121104,
      "componentType": 5125,
      "count": 552,
      "type": "SCALAR"
    },
    {
      "bufferView": 2,
      "byteOffset": 205344,
      "componentType": 5126,
      "count": 1402,
      "max": [
        6.161736488342285,
        -0.32241103053092957,
        -4.109740257263184
      ],
      "min": [
        1.605469822883606,
        -1.7820460796356201,
        -5.976771831512451
      ],
      "type": "VEC3"
    },
    {
      "bufferView": 2,
      "byteOffset": 222168,
      "componentType": 5126,
      "count": 1402,
      "max": [
        1.0,
        0.9998494982719421,
        0.9999061822891235
      ],
      "min": [
        -1.0,
        -0.9999285340309143,
        -1.0
      ],
      "type": "VEC3"
    },
    {
      "bufferView": 1,
      "byteOffset": 161712,
      "componentType": 5126,
      "count": 1402,
      "max": [
        0.9769728183746338,
        0.9313249588012695
      ],
      "min": [
        0.02514783851802349,
        0.008892620913684368
      ],
      "type": "VEC2"
    },
    {
      "bufferView": 1,
      "byteOffset": 172928,
      "componentType": 5126,
      "count": 1402,
      "max": [
        0.9769728183746338,
        0.9313249588012695
      ],
      "min": [
        0.02514783851802349,
        0.008892620913684368
      ],
      "type": "VEC2"
    },
    {
      "bufferView": 0,
      "byteOffset": 123312,
      "componentType": 5125,
      "count": 5784,
      "type": "SCALAR"
    },
    {
      "bufferView": 2,
      "byteOffset": 238992,
      "componentType": 5126,
      "count": 297,
      "max": [
        5.766759395599365,
        0.2740129232406616,
        -2.0309057235717773
      ],
      "min": [
        2.0004467964172363,
        -0.3963349759578705,
        -5.693510055541992
      ],
      "type": "VEC3"
    },
    {
      "bufferView": 2,
      "byteOffset": 242556,
      "componentType": 5126,
      "count": 297,
      "max": [
        0.8713379502296448,
        0.9999938607215881,
        0.5409369468688965
      ],
      "min": [
        -0.8713395595550537,
        -0.9947471618652344,
        -0.9504801034927368
      ],
      "type": "VEC3"
    },
    {
      "bufferView": 1,
      "byteOffset": 184144,
      "componentType": 5126,
      "count": 297,
      "max": [
        0.7582943439483643,
        0.761336088180542
      ],
      "min": [
        0.11180849373340607,
        0.005495790392160416
      ],
      "type": "VEC2"
    },
    {
      "bufferView": 1,
      "byteOffset": 186520,
      "componentType": 5126,
      "count": 297,
      "max": [
        0.7582943439483643,
        0.761336088180542
      ],
      "min": [
        0.11180849373340607,
        0.005495790392160416
      ],
      "type": "VEC2"
    },
    {
      "bufferView": 0,
      "byteOffset": 146448,
      "componentType": 5125,
      "count": 1272,
      "type": "SCALAR"
    },
    {
      "bufferView": 2,
      "byteOffset": 246120,
      "componentType": 5126,
      "count": 1432,
      "max": [
        6.17627477645874,
        -0.30172044038772583,
        5.883272647857666
      ],
      "min": [
        1.5909314155578613,
        -1.5581697225570679,
        4.005613803863525
      ],
      "type": "VEC3"
    },
    {
      "bufferView": 2,
      "byteOffset": 263304,
      "componentType": 5126,
      "count": 1432,
      "max": [
        0.999212920665741,
        0.9637039303779602,
        0.9999696612358093
      ],
      "min": [
        -0.999212920665741,
        -0.9981018304824829,
        -0.9998777508735657
      ],
      "type": "VEC3"
    },
    {
      "bufferView": 1,
      "byteOffset": 188896,
      "componentType": 5126,
      "count": 1432,
      "max": [
        0.9880657196044922,
        0.93260657787323
      ],
      "min": [
        0.7162154912948608,
        0.20917218923568726
      ],
      "type": "VEC2"
    },
    {
      "bufferView": 1,
      "byteOffset": 200352,
      "componentType": 5126,
      "count": 1432,
      "max": [
        0.9880657196044922,
        0.93260657787323
      ],
      "min": [
        0.7162154912948608,
        0.20917218923568726
      ],
      "type": "VEC2"
    },
    {
      "bufferView": 0,
      "byteOffset": 151536,
      "componentType": 5125,
      "count": 6432,
      "type": "SCALAR"
    },
    {
      "bufferView": 2,
      "byteOffset": 280488,
      "componentType": 5126,
      "count": 141,
      "max": [
        -4.498490810394287,
        2.041757822036743,
        0.6890462636947632
      ],
      "min": [
        -9.970309257507324,
        -1.9180197715759277,
        -1.155369520187378
      ],
      "type": "VEC3"
    },
    {
      "bufferView": 2,
      "byteOffset": 282180,
      "componentType": 5126,
      "count": 141,
      "max": [
        -0.3325032591819763,
        0.8925212621688843,
        0.9335894584655762
      ],
      "min": [
        -0.8916602730751038,
        -0.8925212621688843,
        0.14349544048309326
      ],
      "type": "VEC3"
    },
    {
      "bufferView": 1,
      "byteOffset": 211808,
      "componentType": 5126,
      "count": 141,
      "max": [
        0.31518059968948364,
        0.5654100775718689
      ],
      "min": [
        0.030433475971221924,
        0.3447416424751282
      ],
      "type": "VEC2"
    },
    {
      "bufferView": 0,
      "byteOffset": 177264,
      "componentType": 5125,
      "count": 594,
      "type": "SCALAR"
    },
    {
      "bufferView": 2,
      "byteOffset": 283872,
      "componentType": 5126,
      "count": 94,
      "max": [
        0.5524415969848633,
        1.5619478225708008,
        0.6753281354904175
      ],
      "min": [
        -1.2706413269042969,
        -1.4382097721099854,
        0.009018540382385254
      ],
      "type": "VEC3"
    },
    {
      "bufferView": 2,
      "byteOffset": 285000,
      "componentType": 5126,
      "count": 94,
      "max": [
        0.3782194256782532,
        0.35198184847831726,
        0.9546285271644592
      ],
      "min": [
        0.2977992594242096,
        -0.3519824743270874,
        0.8830585479736328
      ],
      "type": "VEC3"
    },
    {
      "bufferView": 1,
      "byteOffset": 212936,
      "componentType": 5126,
      "count": 94,
      "max": [
        0.4810304641723633,
        0.4675047993659973
      ],
      "min": [
        0.3595098853111267,
        0.20627692341804504
      ],
      "type": "VEC2"
    },
    {
      "bufferView": 0,
      "byteOffset": 179640,
      "componentType": 5125,
      "count": 390,
      "type": "SCALAR"
    },
    {
      "bufferView": 2,
      "byteOffset": 286128,
      "componentType": 5126,
      "count": 566,
      "max": [
        2.1180412769317627,
        1.9583971500396729,
        -0.10317979753017426
      ],
      "min": [
        1.856832504272461,
        -1.8346590995788574,
        -0.7050398588180542
      ],
      "type": "VEC3"
    },
    {
      "bufferView": 2,
      "byteOffset": 292920,
      "componentType": 5126,
      "count": 566,
      "max": [
        0.9995329976081848,
        0.8553373217582703,
        0.8294484615325928
      ],
      "min": [
        0.4969621002674103,
        -0.8553364276885986,
        -0.7019460201263428
      ],
      "type": "VEC3"
    },
    {
      "bufferView": 1,
      "byteOffset": 213688,
      "componentType": 5126,
      "count": 566,
      "max": [
        0.6087849736213684,
        0.8063884377479553
      ],
      "min": [
        0.2534201741218567,
        0.010378558188676834
      ],
      "type": "VEC2"
    },
    {
      "bufferView": 0,
      "byteOffset": 181200,
      "componentType": 5125,
      "count": 1686,
      "type": "SCALAR"
    },
    {
      "bufferView": 2,
      "byteOffset": 299712,
      "componentType": 5126,
      "count": 20,
      "max": [
        2.3257150650024414,
        0.9087587594985962,
        -1.181021809577942
      ],
      "min": [
        2.296052932739258,
        -0.7850205898284912,
        -1.3436527252197266
      ],
      "type": "VEC3"
    },
    {
      "bufferView": 2,
      "byteOffset": 299952,
      "componentType": 5126,
      "count": 20,
      "max": [
        0.9964377284049988,
        0.07559070736169815,
        -0.04881923273205757
      ],
      "min": [
        0.9957402944564819,
        -0.0755893886089325,
        -0.06550481170415878
      ],
      "type": "VEC3"
    },
    {
      "bufferView": 1,
      "byteOffset": 218216,
      "componentType": 5126,
      "count": 20,
      "max": [
        0.9885861873626709,
        0.15906807780265808
      ],
      "min": [
        0.8919183015823364,
        0.12270893156528473
      ],
      "type": "VEC2"
    },
    {
      "bufferView": 0,
      "byteOffset": 187944,
      "componentType": 5125,
      "count": 48,
      "type": "SCALAR"
    },
    {
      "bufferView": 2,
      "byteOffset": 300192,
      "componentType": 5126,
      "count": 1078,
      "max": [
        -1.5624715089797974,
        2.232189655303955,
        1.2046840190887451
      ],
      "min": [
        -3.0644633769989014,
        -0.2277204394340515,
        0.17350217700004578
      ],
      "type": "VEC3"
    },
    {
      "bufferView": 2,
      "byteOffset": 313128,
      "componentType": 5126,
      "count": 1078,
      "max": [
        0.9998950362205505,
        1.0,
        1.0
      ],
      "min": [
        -0.9998916983604431,
        -0.9999871850013733,
        -0.999550998210907
      ],
      "type": "VEC3"
    },
    {
      "bufferView": 1,
      "byteOffset": 218376,
      "componentType": 5126,
      "count": 1078,
      "max": [
        0.33365902304649353,
        0.49730581045150757
      ],
      "min": [
        8.536502718925476e-05,
        0.004701441153883934
      ],
      "type": "VEC2"
    },
    {
      "bufferView": 1,
      "byteOffset": 227000,
      "componentType": 5126,
      "count": 1078,
      "max": [
        0.33365902304649353,
        0.49730581045150757
      ],
      "min": [
        8.536502718925476e-05,
        0.004701441153883934
      ],
      "type": "VEC2"
    },
    {
      "bufferView": 0,
      "byteOffset": 188136,
      "componentType": 5125,
      "count": 2901,
      "type": "SCALAR"
    },
    {
      "bufferView": 2,
      "byteOffset": 326064,
      "componentType": 5126,
      "count": 854,
      "max": [
        2.80706524848938,
        1.1458911895751953,
        0.21750988066196442
      ],
      "min": [
        -0.15380859375,
        -0.1494642198085785,
        -0.28770312666893005
      ],
      "type": "VEC3"
    },
    {
      "bufferView": 2,
      "byteOffset": 336312,
      "componentType": 5126,
      "count": 854,
      "max": [
        1.0,
        1.0,
        1.0
      ],
      "min": [
        -1.0,
        -1.0,
        -0.9989156723022461
      ],
      "type": "VEC3"
    },
    {
      "bufferView": 1,
      "byteOffset": 235624,
      "componentType": 5126,
      "count": 854,
      "max": [
        0.7009059190750122,
        0.9747613668441772
      ],
      "min": [
        0.13325455784797668,
        0.6233004927635193
      ],
      "type": "VEC2"
    },
    {
      "bufferView": 1,
      "byteOffset": 242456,
      "componentType": 5126,
      "count": 854,
      "max": [
        0.7009059190750122,
        0.9747613668441772
      ],
      "min": [
        0.13325455784797668,
        0.6233004927635193
      ],
      "type": "VEC2"
    },
    {
      "bufferView": 1,
      "byteOffset": 249288,
      "componentType": 5126,
      "count": 854,
      "max": [
        0.7009059190750122,
        0.9747613668441772
      ],
      "min": [
        0.13325455784797668,
        0.6233004927635193
      ],
      "type": "VEC2"
    },
    {
      "bufferView": 0,
      "byteOffset": 199740,
      "componentType": 5125,
      "count": 2442,
      "type": "SCALAR"
    },
    {
      "bufferView": 2,
      "byteOffset": 346560,
      "componentType": 5126,
      "count": 122,
      "max": [
        5.793444633483887,
        0.04108378291130066,
        5.615630149841309
      ],
      "min": [
        1.973762035369873,
        -0.6339434385299683,
        -5.074377059936523
      ],
      "type": "VEC3"
    },
    {
      "bufferView": 2,
      "byteOffset": 348024,
      "componentType": 5126,
      "count": 122,
      "max": [
        0.6728774905204773,
        0.7233484387397766,
        0.9967026710510254
      ],
      "min": [
        -0.6728768944740295,
        -0.7701559066772461,
        -0.9996375441551208
      ],
      "type": "VEC3"
    },
    {
      "bufferView": 1,
      "byteOffset": 256120,
      "componentType": 5126,
      "count": 122,
      "max": [
        0.6947725415229797,
        0.7063541412353516
      ],
      "min": [
        0.5782923698425293,
        0.11020214855670929
      ],
      "type": "VEC2"
    },
    {
      "bufferView": 0,
      "byteOffset": 209508,
      "componentType": 5125,
      "count": 348,
      "type": "SCALAR"
    },
    {
      "bufferView": 2,
      "byteOffset": 349488,
      "componentType": 5126,
      "count": 32,
      "max": [
        -2.5757312774658203,
        2.0181052684783936,
        0.6610609292984009
      ],
      "min": [
        -5.178144454956055,
        1.5244970321655273,
        -0.28708136081695557
      ],
      "type": "VEC3"
    },
    {
      "bufferView": 2,
      "byteOffset": 349872,
      "componentType": 5126,
      "count": 32,
      "max": [
        0.01021729689091444,
        0.9124451875686646,
        0.5372918248176575
      ],
      "min": [
        -0.013625689782202244,
        0.8433964848518372,
        0.40914446115493774
      ],
      "type": "VEC3"
    },
    {
      "bufferView": 1,
      "byteOffset": 257096,
      "componentType": 5126,
      "count": 32,
      "max": [
        0.18295618891716003,
        0.1388145387172699
      ],
      "min": [
        0.024093033745884895,
        0.04288596287369728
      ],
      "type": "VEC2"
    },
    {
      "bufferView": 0,
      "byteOffset": 210900,
      "componentType": 5125,
      "count": 126,
      "type": "SCALAR"
    },
    {
      "bufferView": 2,
      "byteOffset": 350256,
      "componentType": 5126,
      "count": 32,
      "max": [
        -2.5757312774658203,
        -1.400758981704712,
        0.6610609292984009
      ],
      "min": [
        -5.178144454956055,
        -1.8943672180175781,
        -0.28708136081695557
      ],
      "type": "VEC3"
    },
    {
      "bufferView": 2,
      "byteOffset": 350640,
      "componentType": 5126,
      "count": 32,
      "max": [
        0.010217491537332535,
        -0.8433964848518372,
        0.5372918248176575
      ],
      "min": [
        -0.01362565252929926,
        -0.9124453067779541,
        0.40914425253868103
      ],
      "type": "VEC3"
    },
    {
      "bufferView": 1,
      "byteOffset": 257352,
      "componentType": 5126,
      "count": 32,
      "max": [
        0.1829562485218048,
        0.13881459832191467
      ],
      "min": [
        0.024093033745884895,
        0.042886022478342056
      ],
      "type": "VEC2"
    },
    {
      "bufferView": 0,
      "byteOffset": 211404,
      "componentType": 5125,
      "count": 126,
      "type": "SCALAR"
    },
    {
      "bufferView": 2,
      "byteOffset": 351024,
      "componentType": 5126,
      "count": 240,
      "max": [
        -1.7994093894958496,
        0.3340696394443512,
        0.8710873126983643
      ],
      "min": [
        -2.149322032928467,
        0.2142060250043869,
        0.5276675224304199
      ],
      "type": "VEC3"
    },
    {
      "bufferView": 2,
      "byteOffset": 353904,
      "componentType": 5126,
      "count": 240,
      "max": [
        0.9514130353927612,
        0.9883869290351868,
        0.9978286623954773
      ],
      "min": [
        -0.9514135122299194,
        -0.9147011637687683,
        -0.9159154891967773
      ],
      "type": "VEC3"
    },
    {
      "bufferView": 1,
      "byteOffset": 257608,
      "componentType": 5126,
      "count": 240,
      "max": [
        0.3310454487800598,
        0.32189542055130005
      ],
      "min": [
        0.23258432745933533,
        0.17533156275749207
      ],
      "type": "VEC2"
    },
    {
      "bufferView": 1,
      "byteOffset": 259528,
      "componentType": 5126,
      "count": 240,
      "max": [
        0.3310454487800598,
        0.32189542055130005
      ],
      "min": [
        0.23258432745933533,
        0.17533156275749207
      ],
      "type": "VEC2"
    },
    {
      "bufferView": 0,
      "byteOffset": 211908,
      "componentType": 5125,
      "count": 672,
      "type": "SCALAR"
    },
    {
      "bufferView": 2,
      "byteOffset": 356784,
      "componentType": 5126,
      "count": 1160,
      "max": [
        0.15523219108581543,
        0.15523219108581543,
        -0.0012485783081501722
      ],
      "min": [
        -0.15523220598697662,
        -0.15523222088813782,
        -0.15257833898067474
      ],
      "type": "VEC3"
    },
    {
      "bufferView": 2,
      "byteOffset": 370704,
      "componentType": 5126,
      "count": 1160,
      "max": [
        1.0,
        0.9998619556427002,
        1.0
      ],
      "min": [
        -1.0,
        -0.9980455040931702,
        -1.0
      ],
      "type": "VEC3"
    },
    {
      "bufferView": 1,
      "byteOffset": 261448,
      "componentType": 5126,
      "count": 1160,
      "max": [
        0.988741934299469,
        0.9732575416564941
      ],
      "min": [
        0.015149518847465515,
        0.007186064030975103
      ],
      "type": "VEC2"
    },
    {
      "bufferView": 1,
      "byteOffset": 270728,
      "componentType": 5126,
      "count": 1160,
      "max": [
        0.988741934299469,
        0.9732575416564941
      ],
      "min": [
        0.015149518847465515,
        0.007186064030975103
      ],
      "type": "VEC2"
    },
    {
      "bufferView": 0,
      "byteOffset": 214596,
      "componentType": 5125,
      "count": 3723,
      "type": "SCALAR"
    },
    {
      "bufferView": 2,
      "byteOffset": 384624,
      "componentType": 5126,
      "count": 1160,
      "max": [
        0.15523219108581543,
        0.15523219108581543,
        -0.0012485783081501722
      ],
      "min": [
        -0.15523220598697662,
        -0.15523222088813782,
        -0.15257833898067474
      ],
      "type": "VEC3"
    },
    {
      "bufferView": 2,
      "byteOffset": 398544,
      "componentType": 5126,
      "count": 1160,
      "max": [
        1.0,
        0.9998619556427002,
        1.0
      ],
      "min": [
        -1.0,
        -0.9980455040931702,
        -1.0
      ],
      "type": "VEC3"
    },
    {
      "bufferView": 1,
      "byteOffset": 280008,
      "componentType": 5126,
      "count": 1160,
      "max": [
        0.988741934299469,
        0.9732575416564941
      ],
      "min": [
        0.015149518847465515,
        0.007186064030975103
      ],
      "type": "VEC2"
    },
    {
      "bufferView": 1,
      "byteOffset": 289288,
      "componentType": 5126,
      "count": 1160,
      "max": [
        0.988741934299469,
        0.9732575416564941
      ],
      "min": [
        0.015149518847465515,
        0.007186064030975103
      ],
      "type": "VEC2"
    },
    {
      "bufferView": 0,
      "byteOffset": 229488,
      "componentType": 5125,
      "count": 3723,
      "type": "SCALAR"
    },
    {
      "bufferView": 2,
      "byteOffset": 412464,
      "componentType": 5126,
      "count": 1160,
      "max": [
        0.15523219108581543,
        0.15523219108581543,
        -0.0012485783081501722
      ],
      "min": [
        -0.15523220598697662,
        -0.15523222088813782,
        -0.15257833898067474
      ],
      "type": "VEC3"
    },
    {
      "bufferView": 2,
      "byteOffset": 426384,
      "componentType": 5126,
      "count": 1160,
      "max": [
        1.0,
        0.9998619556427002,
        1.0
      ],
      "min": [
        -1.0,
        -0.9980455040931702,
        -1.0
      ],
      "type": "VEC3"
    },
    {
      "bufferView": 1,
      "byteOffset": 298568,
      "componentType": 5126,
      "count": 1160,
      "max": [
        0.988741934299469,
        0.9732575416564941
      ],
      "min": [
        0.015149518847465515,
        0.007186064030975103
      ],
      "type": "VEC2"
    },
    {
      "bufferView": 1,
      "byteOffset": 307848,
      "componentType": 5126,
      "count": 1160,
      "max": [
        0.988741934299469,
        0.9732575416564941
      ],
      "min": [
        0.015149518847465515,
        0.007186064030975103
      ],
      "type": "VEC2"
    },
    {
      "bufferView": 0,
      "byteOffset": 244380,
      "componentType": 5125,
      "count": 3723,
      "type": "SCALAR"
    },
    {
      "bufferView": 2,
      "byteOffset": 440304,
      "componentType": 5126,
      "count": 1160,
      "max": [
        0.15523219108581543,
        0.15523219108581543,
        -0.0012485783081501722
      ],
      "min": [
        -0.15523220598697662,
        -0.15523222088813782,
        -0.15257833898067474
      ],
      "type": "VEC3"
    },
    {
      "bufferView": 2,
      "byteOffset": 454224,
      "componentType": 5126,
      "count": 1160,
      "max": [
        1.0,
        0.9998619556427002,
        1.0
      ],
      "min": [
        -1.0,
        -0.9980455040931702,
        -1.0
      ],
      "type": "VEC3"
    },
    {
      "bufferView": 1,
      "byteOffset": 317128,
      "componentType": 5126,
      "count": 1160,
      "max": [
        0.988741934299469,
        0.9732575416564941
      ],
      "min": [
        0.015149518847465515,
        0.007186064030975103
      ],
      "type": "VEC2"
    },
    {
      "bufferView": 1,
      "byteOffset": 326408,
      "componentType": 5126,
      "count": 1160,
      "max": [
        0.988741934299469,
        0.9732575416564941
      ],
      "min": [
        0.015149518847465515,
        0.007186064030975103
      ],
      "type": "VEC2"
    },
    {
      "bufferView": 0,
      "byteOffset": 259272,
      "componentType": 5125,
      "count": 3723,
      "type": "SCALAR"
    },
    {
      "bufferView": 2,
      "byteOffset": 468144,
      "componentType": 5126,
      "count": 96,
      "max": [
        -0.3421662151813507,
        0.5598644614219666,
        0.004290614277124405
      ],
      "min": [
        -0.642166256904602,
        0.4098644554615021,
        0.0
      ],
      "type": "VEC3"
    },
    {
      "bufferView": 2,
      "byteOffset": 469296,
      "componentType": 5126,
      "count": 96,
      "max": [
        0.8277473449707031,
        0.8206135630607605,
        1.0
      ],
      "min": [
        -0.8277504444122314,
        -0.820611298084259,
        -1.0
      ],
      "type": "VEC3"
    },
    {
      "bufferView": 1,
      "byteOffset": 335688,
      "componentType": 5126,
      "count": 96,
      "max": [
        0.9689458608627319,
        1.0
      ],
      "min": [
        0.0,
        0.18023531138896942
      ],
      "type": "VEC2"
    },
    {
      "bufferView": 1,
      "byteOffset": 336456,
      "componentType": 5126,
      "count": 96,
      "max": [
        0.9689458608627319,
        1.0
      ],
      "min": [
        0.0,
        0.18023531138896942
      ],
      "type": "VEC2"
    },
    {
      "bufferView": 1,
      "byteOffset": 337224,
      "componentType": 5126,
      "count": 96,
      "max": [
        0.9689458608627319,
        1.0
      ],
      "min": [
        0.0,
        0.18023531138896942
      ],
      "type": "VEC2"
    },
    {
      "bufferView": 0,
      "byteOffset": 274164,
      "componentType": 5125,
      "count": 240,
      "type": "SCALAR"
    },
    {
      "bufferView": 2,
      "byteOffset": 470448,
      "componentType": 5126,
      "count": 29,
      "max": [
        -3.541684865951538,
        -2.219238758087158,
        -0.5876458287239075
      ],
      "min": [
        -3.9003303050994873,
        -2.3428826332092285,
        -0.6017468571662903
      ],
      "type": "VEC3"
    },
    {
      "bufferView": 2,
      "byteOffset": 470796,
      "componentType": 5126,
      "count": 29,
      "max": [
        0.06219957768917084,
        0.1856634020805359,
        0.9923408031463623
      ],
      "min": [
        -0.012157795019447803,
        0.11790686100721359,
        0.9825389981269836
      ],
      "type": "VEC3"
    },
    {
      "bufferView": 1,
      "byteOffset": 337992,
      "componentType": 5126,
      "count": 29,
      "max": [
        0.5395115613937378,
        0.3746572732925415
      ],
      "min": [
        -1.6910189915009255e-10,
        0.08683081716299057
      ],
      "type": "VEC2"
    },
    {
      "bufferView": 1,
      "byteOffset": 338224,
      "componentType": 5126,
      "count": 29,
      "max": [
        0.5395115613937378,
        0.3746572732925415
      ],
      "min": [
        -1.6910189915009255e-10,
        0.08683081716299057
      ],
      "type": "VEC2"
    },
    {
      "bufferView": 0,
      "byteOffset": 275124,
      "componentType": 5125,
      "count": 54,
      "type": "SCALAR"
    },
    {
      "bufferView": 2,
      "byteOffset": 471144,
      "componentType": 5126,
      "count": 26,
      "max": [
        -3.2448158264160156,
        -2.324085235595703,
        -1.6098963022232056
      ],
      "min": [
        -3.942612886428833,
        -2.414327621459961,
        -1.6363016366958618
      ],
      "type": "VEC3"
    },
    {
      "bufferView": 2,
      "byteOffset": 471456,
      "componentType": 5126,
      "count": 26,
      "max": [
        0.09674001485109329,
        0.03412412479519844,
        0.9994176626205444
      ],
      "min": [
        -0.0062553840689361095,
        -0.027127640321850777,
        0.994939923286438
      ],
      "type": "VEC3"
    },
    {
      "bufferView": 1,
      "byteOffset": 338456,
      "componentType": 5126,
      "count": 26,
      "max": [
        0.5395115613937378,
        0.29455289244651794
      ],
      "min": [
        0.0,
        0.08683081716299057
      ],
      "type": "VEC2"
    },
    {
      "bufferView": 1,
      "byteOffset": 338664,
      "componentType": 5126,
      "count": 26,
      "max": [
        0.5395115613937378,
        0.29455289244651794
      ],
      "min": [
        0.0,
        0.08683081716299057
      ],
      "type": "VEC2"
    },
    {
      "bufferView": 0,
      "byteOffset": 275340,
      "componentType": 5125,
      "count": 42,
      "type": "SCALAR"
    },
    {
      "bufferView": 2,
      "byteOffset": 471768,
      "componentType": 5126,
      "count": 89,
      "max": [
        0.07635436207056046,
        0.04136143624782562,
        -0.06669098138809204
      ],
      "min": [
        0.04680174961686134,
        -0.0406545028090477,
        -0.08372388780117035
      ],
      "type": "VEC3"
    },
    {
      "bufferView": 2,
      "byteOffset": 472836,
      "componentType": 5126,
      "count": 89,
      "max": [
        0.993736207485199,
        1.0,
        1.0
      ],
      "min": [
        -1.0,
        -1.0,
        -5.294252787280129e-07
      ],
      "type": "VEC3"
    },
    {
      "bufferView": 1,
      "byteOffset": 338872,
      "componentType": 5126,
      "count": 89,
      "max": [
        0.28311872482299805,
        0.7138683199882507
      ],
      "min": [
        0.17776015400886536,
        0.46253782510757446
      ],
      "type": "VEC2"
    },
    {
      "bufferView": 1,
      "byteOffset": 339584,
      "componentType": 5126,
      "count": 89,
      "max": [
        0.28311872482299805,
        0.7138683199882507
      ],
      "min": [
        0.17776015400886536,
        0.46253782510757446
      ],
      "type": "VEC2"
    },
    {
      "bufferView": 0,
      "byteOffset": 275508,
      "componentType": 5125,
      "count": 171,
      "type": "SCALAR"
    },
    {
      "bufferView": 2,
      "byteOffset": 473904,
      "componentType": 5126,
      "count": 89,
      "max": [
        0.07635436207056046,
        0.04136143624782562,
        -0.06669098138809204
      ],
      "min": [
        0.04680174961686134,
        -0.0406545028090477,
        -0.08372388780117035
      ],
      "type": "VEC3"
    },
    {
      "bufferView": 2,
      "byteOffset": 474972,
      "componentType": 5126,
      "count": 89,
      "max": [
        0.993736207485199,
        1.0,
        1.0
      ],
      "min": [
        -1.0,
        -1.0,
        -5.294252787280129e-07
      ],
      "type": "VEC3"
    },
    {
      "bufferView": 1,
      "byteOffset": 340296,
      "componentType": 5126,
      "count": 89,
      "max": [
        0.28311872482299805,
        0.7138683199882507
      ],
      "min": [
        0.17776015400886536,
        0.46253782510757446
      ],
      "type": "VEC2"
    },
    {
      "bufferView": 1,
      "byteOffset": 341008,
      "componentType": 5126,
      "count": 89,
      "max": [
        0.28311872482299805,
        0.7138683199882507
      ],
      "min": [
        0.17776015400886536,
        0.46253782510757446
      ],
      "type": "VEC2"
    },
    {
      "bufferView": 0,
      "byteOffset": 276192,
      "componentType": 5125,
      "count": 171,
      "type": "SCALAR"
    },
    {
      "bufferView": 2,
      "byteOffset": 476040,
      "componentType": 5126,
      "count": 89,
      "max": [
        0.07635436207056046,
        0.04136143624782562,
        -0.06669098138809204
      ],
      "min": [
        0.04680174961686134,
        -0.0406545028090477,
        -0.08372388780117035
      ],
      "type": "VEC3"
    },
    {
      "bufferView": 2,
      "byteOffset": 477108,
      "componentType": 5126,
      "count": 89,
      "max": [
        0.993736207485199,
        1.0,
        1.0
      ],
      "min": [
        -1.0,
        -1.0,
        -5.294252787280129e-07
      ],
      "type": "VEC3"
    },
    {
      "bufferView": 1,
      "byteOffset": 341720,
      "componentType": 5126,
      "count": 89,
      "max": [
        0.28311872482299805,
        0.7138683199882507
      ],
      "min": [
        0.17776015400886536,
        0.46253782510757446
      ],
      "type": "VEC2"
    },
    {
      "bufferView": 1,
      "byteOffset": 342432,
      "componentType": 5126,
      "count": 89,
      "max": [
        0.28311872482299805,
        0.7138683199882507
      ],
      "min": [
        0.17776015400886536,
        0.46253782510757446
      ],
      "type": "VEC2"
    },
    {
      "bufferView": 0,
      "byteOffset": 276876,
      "componentType": 5125,
      "count": 171,
      "type": "SCALAR"
    },
    {
      "bufferView": 2,
      "byteOffset": 478176,
      "componentType": 5126,
      "count": 89,
      "max": [
        0.07635436207056046,
        0.04136143624782562,
        -0.06669098138809204
      ],
      "min": [
        0.04680174961686134,
        -0.0406545028090477,
        -0.08372388780117035
      ],
      "type": "VEC3"
    },
    {
      "bufferView": 2,
      "byteOffset": 479244,
      "componentType": 5126,
      "count": 89,
      "max": [
        0.993736207485199,
        1.0,
        1.0
      ],
      "min": [
        -1.0,
        -1.0,
        -5.294252787280129e-07
      ],
      "type": "VEC3"
    },
    {
      "bufferView": 1,
      "byteOffset": 343144,
      "componentType": 5126,
      "count": 89,
      "max": [
        0.28311872482299805,
        0.7138683199882507
      ],
      "min": [
        0.17776015400886536,
        0.46253782510757446
      ],
      "type": "VEC2"
    },
    {
      "bufferView": 1,
      "byteOffset": 343856,
      "componentType": 5126,
      "count": 89,
      "max": [
        0.28311872482299805,
        0.7138683199882507
      ],
      "min": [
        0.17776015400886536,
        0.46253782510757446
      ],
      "type": "VEC2"
    },
    {
      "bufferView": 0,
      "byteOffset": 277560,
      "componentType": 5125,
      "count": 171,
      "type": "SCALAR"
    }
  ],
  "asset": {
    "extras": {
      "author": "Daniel Zhabotinsky (https://sketchfab.com/DanielZhabotinsky)",
      "license": "CC-BY-4.0 (http://creativecommons.org/licenses/by/4.0/)",
      "source": "https://sketchfab.com/3d-models/jdm-sport-99-low-poly-model-6dd4ae19c454414d9eed2bc524515d78",
      "title": "JDM Sport '99 - Low Poly model"
    },
    "generator": "Sketchfab-16.74.0",
    "version": "2.0"
  },
  "bufferViews": [
    {
      "buffer": 0,
      "byteLength": 278244,
      "name": "floatBufferViews",
      "target": 34963
    },
    {
      "buffer": 0,
      "byteLength": 344568,
      "byteOffset": 278244,
      "byteStride": 8,
      "name": "floatBufferViews",
      "target": 34962
    },
    {
      "buffer": 0,
      "byteLength": 480312,
      "byteOffset": 622812,
      "byteStride": 12,
      "name": "floatBufferViews",
      "target": 34962
    }
  ],
  "buffers": [
    {
      "byteLength": 1103124,
      "uri": "scene.bin"
    }
  ],
  "extensionsUsed": [
    "KHR_texture_transform",
    "KHR_materials_clearcoat",
    "KHR_materials_specular"
  ],
  "images": [
    {
      "uri": "textures/Gallo99_Bodymat_metallicRoughness.png"
    },
    {
      "uri": "textures/Gallo99_Bodymat_specularf0.png"
    },
    {
      "uri": "textures/UCB_Lights_and_Glass_Transperent_baseColor.jpeg"
    },
    {
      "uri": "textures/UCB_BOTTOM_LT_baseColor.jpeg"
    },
    {
      "uri": "textures/UCB_BOTTOM_LT_metallicRoughness.png"
    },
    {
      "uri": "textures/UCB_BOTTOM_LT_specularf0.png"
    },
    {
      "uri": "textures/UCB_Interiors_2_baseColor.jpeg"
    },
    {
      "uri": "textures/UCB_Interiors_2_metallicRoughness.png"
    },
    {
      "uri": "textures/RB1c_Tire_1k_baseColor.jpeg"
    },
    {
      "uri": "textures/RB1c_Tire_1k_metallicRoughness.png"
    },
    {
      "uri": "textures/RB1c_Tire_1k_specularf0.png"
    },
    {
      "uri": "textures/Numberplates_Misk_U_baseColor.png"
    },
    {
      "uri": "textures/Carbadges_misc_U_baseColor.png"
    }
  ],
  "materials": [
    {
      "doubleSided": true,
      "extensions": {
        "KHR_materials_clearcoat": {
          "clearcoatFactor": 0.5584132254862487,
          "clearcoatRoughnessFactor": 0.04
        },
        "KHR_materials_specular": {
          "specularColorFactor": [
            1.0,
            1.0,
            1.0
          ],
          "specularFactor": 1.0,
          "specularTexture": {
            "index": 1
          }
        }
      },
      "name": "Gallo99_Bodymat",
      "occlusionTexture": {
        "index": 0
      },
      "pbrMetallicRoughness": {
        "baseColorFactor": [
          0.0,
          0.05448027644244227,
          0.2581828529215958,
          1.0
        ],
        "metallicRoughnessTexture": {
          "extensions": {
            "KHR_texture_transform": {
              "scale": [
                20.000000000000004,
                20.000000000000004
              ]
            }
          },
          "index": 0
        },
        "roughnessFactor": 0.13330254488404916
      }
    },
    {
      "alphaMode": "BLEND",
      "doubleSided": true,
      "name": "UCB_Lights_and_Glass_Transperent",
      "pbrMetallicRoughness": {
        "baseColorFactor": [
          1.0,
          1.0,
          1.0,
          0.8
        ],
        "baseColorTexture": {
          "index": 2
        },
        "metallicFactor": 0.0,
        "roughnessFactor": 0.048280408763609235
      }
    },
    {
      "doubleSided": true,
      "extensions": {
        "KHR_materials_specular": {
          "specularColorFactor": [
            1.0,
            1.0,
            1.0
          ],
          "specularFactor": 1.0,
          "specularTexture": {
            "index": 5
          }
        }
      },
      "name": "UCB_BOTTOM_LT",
      "occlusionTexture": {
        "index": 4
      },
      "pbrMetallicRoughness": {
        "baseColorTexture": {
          "index": 3
        },
        "metallicRoughnessTexture": {
          "index": 4
        }
      }
    },
    {
      "doubleSided": true,
      "name": "UCB_Lights_and_Glass",
      "pbrMetallicRoughness": {
        "baseColorTexture": {
          "index": 2
        },
        "metallicFactor": 0.0,
        "roughnessFactor": 0.048280408763609235
      }
    },
    {
      "doubleSided": true,
      "name": "UCB_Interiors_2",
      "pbrMetallicRoughness": {
        "baseColorTexture": {
          "index": 6
        },
        "metallicRoughnessTexture": {
          "index": 7
        }
      }
    },
    {
      "doubleSided": true,
      "extensions": {
        "KHR_materials_specular": {
          "specularColorFactor": [
            1.0,
            1.0,
            1.0
          ],
          "specularFactor": 1.0,
          "specularTexture": {
            "index": 10
          }
        }
      },
      "name": "RB1c_Tire_1k",
      "occlusionTexture": {
        "index": 9
      },
      "pbrMetallicRoughness": {
        "baseColorTexture": {
          "index": 8
        },
        "metallicFactor": 0.9,
        "metallicRoughnessTexture": {
          "index": 9
        }
      }
    },
    {
      "alphaMode": "BLEND",
      "doubleSided": true,
      "name": "Numberplates_Misk_U",
      "pbrMetallicRoughness": {
        "baseColorTexture": {
          "index": 11
        },
        "metallicFactor": 0.0,
        "roughnessFactor": 0.10702864035024488
      }
    },
    {
      "alphaMode": "BLEND",
      "doubleSided": true,
      "name": "Carbadges_misc_U",
      "pbrMetallicRoughness": {
        "baseColorTexture": {
          "index": 12
        },
        "metallicFactor": 0.7588225463415714,
        "roughnessFactor": 0.10702864035024488
      }
    }
  ],
  "meshes": [
    {
      "name": "Gallo99_Body_Gallo99_Bodymat_0",
      "primitives": [
        {
          "attributes": {
            "NORMAL": 1,
            "POSITION": 0,
            "TEXCOORD_0": 2,
            "TEXCOORD_1": 3
          },
          "indices": 4,
          "material": 0,
          "mode": 4
        }
      ]
    },
    {
      "name": "Gallo99_Glass_Body_UCB_Lights_and_Glass_Transperent_0",
      "primitives": [
        {
          "attributes": {
            "NORMAL": 6,
            "POSITION": 5,
            "TEXCOORD_0": 7
          },
          "indices": 8,
          "material": 1,
          "mode": 4
        }
      ]
    },
    {
      "name": "Gallo99_Bumper_Front_Inner_UCB_BOTTOM_LT_0",
      "primitives": [
        {
          "attributes": {
            "NORMAL": 10,
            "POSITION": 9,
            "TEXCOORD_0": 11,
            "TEXCOORD_1": 12,
            "TEXCOORD_2": 13
          },
          "indices": 14,
          "material": 2,
          "mode": 4
        }
      ]
    },
    {
      "name": "Gallo99_Spoiler_Gallo99_Bodymat_0",
      "primitives": [
        {
          "attributes": {
            "NORMAL": 16,
            "POSITION": 15,
            "TEXCOORD_0": 17,
            "TEXCOORD_1": 18
          },
          "indices": 19,
          "material": 0,
          "mode": 4
        }
      ]
    },
    {
      "name": "Gallo99_Bottom_UCB_BOTTOM_LT_0",
      "primitives": [
        {
          "attributes": {
            "NORMAL": 21,
            "POSITION": 20,
            "TEXCOORD_0": 22,
            "TEXCOORD_1": 23,
            "TEXCOORD_2": 24
          },
          "indices": 25,
          "material": 2,
          "mode": 4
        }
      ]
    },
    {
      "name": "Gallo99_Headlights_UCB_Lights_and_Glass_0",
      "primitives": [
        {
          "attributes": {
            "NORMAL": 27,
            "POSITION": 26,
            "TEXCOORD_0": 28
          },
          "indices": 29,
          "material": 3,
          "mode": 4
        }
      ]
    },
    {
      "name": "Gallo99_Bumper_Front_Gallo99_Bodymat_0",
      "primitives": [
        {
          "attributes": {
            "NORMAL": 31,
            "POSITION": 30,
            "TEXCOORD_0": 32,
            "TEXCOORD_1": 33
          },
          "indices": 34,
          "material": 0,
          "mode": 4
        }
      ]
    },
    {
      "name": "Gallo99_Hood_Gallo99_Bodymat_0",
      "primitives": [
        {
          "attributes": {
            "NORMAL": 36,
            "POSITION": 35,
            "TEXCOORD_0": 37,
            "TEXCOORD_1": 38
          },
          "indices": 39,
          "material": 0,
          "mode": 4
        }
      ]
    },
    {
      "name": "Gallo99_Bumper_Rear_Gallo99_Bodymat_0",
      "primitives": [
        {
          "attributes": {
            "NORMAL": 41,
            "POSITION": 40,
            "TEXCOORD_0": 42,
            "TEXCOORD_1": 43
          },
          "indices": 44,
          "material": 0,
          "mode": 4
        }
      ]
    },
    {
      "name": "Gallo99_Windshield_UCB_Lights_and_Glass_Transperent_0",
      "primitives": [
        {
          "attributes": {
            "NORMAL": 46,
            "POSITION": 45,
            "TEXCOORD_0": 47
          },
          "indices": 48,
          "material": 1,
          "mode": 4
        }
      ]
    },
    {
      "name": "Gallo99_Glass_Rear_UCB_Lights_and_Glass_Transperent_0",
      "primitives": [
        {
          "attributes": {
            "NORMAL": 50,
            "POSITION": 49,
            "TEXCOORD_0": 51
          },
          "indices": 52,
          "material": 1,
          "mode": 4
        }
      ]
    },
    {
      "name": "Gallo99_Brakelights_UCB_Lights_and_Glass_0",
      "primitives": [
        {
          "attributes": {
            "NORMAL": 54,
            "POSITION": 53,
            "TEXCOORD_0": 55
          },
          "indices": 56,
          "material": 3,
          "mode": 4
        }
      ]
    },
    {
      "name": "Gallo99_Reverse_UCB_Lights_and_Glass_0",
      "primitives": [
        {
          "attributes": {
            "NORMAL": 58,
            "POSITION": 57,
            "TEXCOORD_0": 59
          },
          "indices": 60,
          "material": 3,
          "mode": 4
        }
      ]
    },
    {
      "name": "Gallo99_Interior_UCB_Interiors_2_0",
      "primitives": [
        {
          "attributes": {
            "NORMAL": 62,
            "POSITION": 61,
            "TEXCOORD_0": 63,
            "TEXCOORD_1": 64
          },
          "indices": 65,
          "material": 4,
          "mode": 4
        }
      ]
    },
    {
      "name": "Gallo99_Suspension_UCB_BOTTOM_LT_0",
      "primitives": [
        {
          "attributes": {
            "NORMAL": 67,
            "POSITION": 66,
            "TEXCOORD_0": 68,
            "TEXCOORD_1": 69,
            "TEXCOORD_2": 70
          },
          "indices": 71,
          "material": 2,
          "mode": 4
        }
      ]
    },
    {
      "name": "Gallo99_Blinkers_UCB_Lights_and_Glass_0",
      "primitives": [
        {
          "attributes": {
            "NORMAL": 73,
            "POSITION": 72,
            "TEXCOORD_0": 74
          },
          "indices": 75,
          "material": 3,
          "mode": 4
        }
      ]
    },
    {
      "name": "Gallo99_Body_Passanger_UCB_Lights_and_Glass_Transperent_0",
      "primitives": [
        {
          "attributes": {
            "NORMAL": 77,
            "POSITION": 76,
            "TEXCOORD_0": 78
          },
          "indices": 79,
          "material": 1,
          "mode": 4
        }
      ]
    },
    {
      "name": "Gallo99_Body_Driver_UCB_Lights_and_Glass_Transperent_0",
      "primitives": [
        {
          "attributes": {
            "NORMAL": 81,
            "POSITION": 80,
            "TEXCOORD_0": 82
          },
          "indices": 83,
          "material": 1,
          "mode": 4
        }
      ]
    },
    {
      "name": "Gallo99_Steering_Wheel_UCB_Interiors_2_0",
      "primitives": [
        {
          "attributes": {
            "NORMAL": 85,
            "POSITION": 84,
            "TEXCOORD_0": 86,
            "TEXCOORD_1": 87
          },
          "indices": 88,
          "material": 4,
          "mode": 4
        }
      ]
    },
    {
      "name": "Gallo99_WheelStock_FL_RB1c_Tire_1k_0",
      "primitives": [
        {
          "attributes": {
            "NORMAL": 90,
            "POSITION": 89,
            "TEXCOORD_0": 91,
            "TEXCOORD_1": 92
          },
          "indices": 93,
          "material": 5,
          "mode": 4
        }
      ]
    },
    {
      "name": "Gallo99_WheelStock_RL_RB1c_Tire_1k_0",
      "primitives": [
        {
          "attributes": {
            "NORMAL": 95,
            "POSITION": 94,
            "TEXCOORD_0": 96,
            "TEXCOORD_1": 97
          },
          "indices": 98,
          "material": 5,
          "mode": 4
        }
      ]
    },
    {
      "name": "Gallo99_WheelStock_RR_RB1c_Tire_1k_0",
      "primitives": [
        {
          "attributes": {
            "NORMAL": 100,
            "POSITION": 99,
            "TEXCOORD_0": 101,
            "TEXCOORD_1": 102
          },
          "indices": 103,
          "material": 5,
          "mode": 4
        }
      ]
    },
    {
      "name": "Gallo99_WheelStock_FR_RB1c_Tire_1k_0",
      "primitives": [
        {
          "attributes": {
            "NORMAL": 105,
            "POSITION": 104,
            "TEXCOORD_0": 106,
            "TEXCOORD_1": 107
          },
          "indices": 108,
          "material": 5,
          "mode": 4
        }
      ]
    },
    {
      "name": "Gallo99_Numberplate_rear_Numberplates_Misk_U_0",
      "primitives": [
        {
          "attributes": {
            "NORMAL": 110,
            "POSITION": 109,
            "TEXCOORD_0": 111,
            "TEXCOORD_1": 112,
            "TEXCOORD_2": 113
          },
          "indices": 114,
          "material": 6,
          "mode": 4
        }
      ]
    },
    {
      "name": "Gallo99_Body_Badges_Carbadges_misc_U_0",
      "primitives": [
        {
          "attributes": {
            "NORMAL": 116,
            "POSITION": 115,
            "TEXCOORD_0": 117,
            "TEXCOORD_1": 118
          },
          "indices": 119,
          "material": 7,
          "mode": 4
        }
      ]
    },
    {
      "name": "Gallo99_Badges_Front_Carbadges_misc_U_0",
      "primitives": [
        {
          "attributes": {
            "NORMAL": 121,
            "POSITION": 120,
            "TEXCOORD_0": 122,
            "TEXCOORD_1": 123
          },
          "indices": 124,
          "material": 7,
          "mode": 4
        }
      ]
    },
    {
      "name": "Gallo99_CaliperStock_FL_RB1c_Tire_1k_0",
      "primitives": [
        {
          "attributes": {
            "NORMAL": 126,
            "POSITION": 125,
            "TEXCOORD_0": 127,
            "TEXCOORD_1": 128
          },
          "indices": 129,
          "material": 5,
          "mode": 4
        }
      ]
    },
    {
      "name": "Gallo99_CaliperStock_RL_RB1c_Tire_1k_0",
      "primitives": [
        {
          "attributes": {
            "NORMAL": 131,
            "POSITION": 130,
            "TEXCOORD_0": 132,
            "TEXCOORD_1": 133
          },
          "indices": 134,
          "material": 5,
          "mode": 4
        }
      ]
    },
    {
      "name": "Gallo99_CaliperStock_FR_RB1c_Tire_1k_0",
      "primitives": [
        {
          "attributes": {
            "NORMAL": 136,
            "POSITION": 135,
            "TEXCOORD_0": 137,
            "TEXCOORD_1": 138
          },
          "indices": 139,
          "material": 5,
          "mode": 4
        }
      ]
    },
    {
      "name": "Gallo99_CaliperStock_RR_RB1c_Tire_1k_0",
      "primitives": [
        {
          "attributes": {
            "NORMAL": 141,
            "POSITION": 140,
            "TEXCOORD_0": 142,
            "TEXCOORD_1": 143
          },
          "indices": 144,
          "material": 5,
          "mode": 4
        }
      ]
    }
  ],
  "nodes": [
    {
      "children": [
        1
      ],
      "matrix": [
        1.0,
        0.0,
        0.0,
        0.0,
        0.0,
        2.220446049250313e-16,
        -1.0,
        0.0,
        0.0,
        1.0,
        2.220446049250313e-16,
        0.0,
        0.0,
        0.0,
        0.0,
        1.0
      ],
      "name": "Sketchfab_model"
    },
    {
      "children": [
        2
      ],
      "matrix": [
        1.0,
        0.0,
        0.0,
        0.0,
        0.0,
        0.0,
        1.0,
        0.0,
        0.0,
        -1.0,
        0.0,
        0.0,
        0.0,
        0.0,
        0.0,
        1.0
      ],
      "name": "27768165a1ce4e6f8cbc7f87edb397fd.fbx"
    },
    {
      "children": [
        3,
        6,
        9,
        12,
        15,
        18,
        21,
        24,
        27,
        30,
        33,
        36,
        39,
        42,
        45,
        48,
        51,
        54,
        57,
        60,
        63,
        66,
        69,
        72,
        75,
        78,
        81,
        84,
        87,
        90
      ],
      "name": "RootNode"
    },
    {
      "children": [
        4
      ],
      "matrix": [
        2.3968641271705226e-08,
        -1.0437378405073041e-23,
        0.3943130075931542,
        0.0,
        -6.42417477063871e-08,
        0.39431300759314963,
        3.904987609343189e-15,
        0.0,
        -0.39431300759314897,
        -6.424174770638721e-08,
        2.3968641271705226e-08,
        0.0,
        -0.060775190591812134,
        0.7428311109542847,
        -2.3310542474064277e-07,
        1.0
      ],
      "name": "Gallo99_Body"
    },
    {
      "children": [
        5
      ],
      "matrix": [
        1.0,
        0.0,
        -0.0,
        0.0,
        0.0,
        1.0,
        0.0,
        0.0,
        0.0,
        0.0,
        1.0,
        0.0,
        -3.883603096008301,
        0.24574454128742218,
        -0.020641803741455078,
        1.0
      ],
      "name": "Object_4"
    },
    {
      "mesh": 0,
      "name": "Gallo99_Body_Gallo99_Bodymat_0"
    },
    {
      "children": [
        7
      ],
      "matrix": [
        -0.3699539899826008,
        -4.530630383965248e-17,
        5.586149949690468e-08,
        0.0,
        6.02642345204854e-08,
        -1.7724132657560713e-16,
        0.3991119861602738,
        0.0,
        -4.6442879785370566e-17,
        0.37923499941825867,
        1.2631062842935759e-16,
        0.0,
        -0.7839194536209106,
        1.1125297546386719,
        -9.698680969449924e-09,
        1.0
      ],
      "name": "Gallo99_Glass_Body"
    },
    {
      "children": [
        8
      ],
      "matrix": [
        1.0,
        0.0,
        -0.0,
        0.0,
        0.0,
        1.0,
        0.0,
        0.0,
        0.0,
        0.0,
        1.0,
        0.0,
        1.940212368965149,
        -0.061869025230407715,
        -0.2542036473751068,
        1.0
      ],
      "name": "Object_7"
    },
    {
      "mesh": 1,
      "name": "Gallo99_Glass_Body_UCB_Lights_and_Glass_Transperent_0"
    },
    {
      "children": [
        10
      ],
      "matrix": [
        -0.3699539899826008,
        -4.530630383965248e-17,
        5.586149949690468e-08,
        0.0,
        6.02642345204854e-08,
        -1.7724132657560713e-16,
        0.3991119861602738,
        0.0,
        -4.6442879785370566e-17,
        0.37923499941825867,
        1.2631062842935759e-16,
        0.0,
        1.9966766834259033,
        0.39875686168670654,
        -2.062199939700804e-07,
        1.0
      ],
      "name": "Gallo99_Bumper_Front_Inner"
    },
    {
      "children": [
        11
      ],
      "matrix": [
        1.0,
        0.0,
        -0.0,
        0.0,
        0.0,
        1.0,
        0.0,
        0.0,
        0.0,
        0.0,
        1.0,
        0.0,
        9.456273078918457,
        -0.061869144439697266,
        1.6279349327087402,
        1.0
      ],
      "name": "Object_10"
    },
    {
      "mesh": 2,
      "name": "Gallo99_Bumper_Front_Inner_UCB_BOTTOM_LT_0"
    },
    {
      "children": [
        13
      ],
      "matrix": [
        -0.39431300759315047,
        -4.828942358692406e-17,
        5.953960925219129e-08,
        0.0,
        5.9539609252191295e-08,
        -1.751101519756459e-16,
        0.39431300759315047,
        0.0,
        -4.828940793085645e-17,
        0.3943130075931549,
        1.3133261398173443e-16,
        0.0,
        -2.1188805103302,
        1.0948237180709839,
        6.602913060760329e-08,
        1.0
      ],
      "name": "Gallo99_Spoiler"
    },
    {
      "children": [
        14
      ],
      "matrix": [
        1.0,
        0.0,
        -0.0,
        0.0,
        0.0,
        1.0,
        0.0,
        0.0,
        0.0,
        0.0,
        1.0,
        0.0,
        -0.052213914692401886,
        -1.1240980625152588,
        0.09118252992630005,
        1.0
      ],
      "name": "Object_13"
    },
    {
      "mesh": 3,
      "name": "Gallo99_Spoiler_Gallo99_Bodymat_0"
    },
    {
      "children": [
        16
      ],
      "matrix": [
        2.3968641271705226e-08,
        -1.0437378405073041e-23,
        0.3943130075931542,
        0.0,
        -6.42417477063871e-08,
        0.39431300759314963,
        3.904987609343189e-15,
        0.0,
        -0.39431300759314897,
        -6.424174770638721e-08,
        2.3968641271705226e-08,
        0.0,
        -0.06354731321334839,
        0.7167952060699463,
        5.555482740504658e-09,
        1.0
      ],
      "name": "Gallo99_Bottom"
    },
    {
      "children": [
        17
      ],
      "matrix": [
        1.0,
        0.0,
        -0.0,
        0.0,
        0.0,
        1.0,
        0.0,
        0.0,
        0.0,
        0.0,
        1.0,
        0.0,
        -3.88360333442688,
        0.31177303194999695,
        -0.02767205238342285,
        1.0
      ],
      "name": "Object_16"
    },
    {
      "mesh": 4,
      "name": "Gallo99_Bottom_UCB_BOTTOM_LT_0"
    },
    {
      "children": [
        19
      ],
      "matrix": [
        -0.3699539899826008,
        -4.530630383965248e-17,
        5.586149949690468e-08,
        0.0,
        6.02642345204854e-08,
        -1.7724132657560713e-16,
        0.3991119861602738,
        0.0,
        -4.6442879785370566e-17,
        0.37923499941825867,
        1.2631062842935759e-16,
        0.0,
        1.9448528289794922,
        0.6431806087493896,
        -2.4825553168739134e-07,
        1.0
      ],
      "name": "Gallo99_Headlights"
    },
    {
      "children": [
        20
      ],
      "matrix": [
        1.0,
        0.0,
        -0.0,
        0.0,
        0.0,
        1.0,
        0.0,
        0.0,
        0.0,
        0.0,
        1.0,
        0.0,
        9.316190719604492,
        -0.061869025230407715,
        0.9834172129631042,
        1.0
      ],
      "name": "Object_19"
    },
    {
      "mesh": 5,
      "name": "Gallo99_Headlights_UCB_Lights_and_Glass_0"
    },
    {
      "children": [
        22
      ],
      "matrix": [
        2.3968641271705226e-08,
        -1.0437378405073041e-23,
        0.3943130075931542,
        0.0,
        -6.42417477063871e-08,
        0.39431300759314963,
        3.904987609343189e-15,
        0.0,
        -0.39431300759314897,
        -6.424174770638721e-08,
        2.3968641271705226e-08,
        0.0,
        1.9359865188598633,
        0.42482390999794006,
        -5.268772156341583e-07,
        1.0
      ],
      "name": "Gallo99_Bumper_Front"
    },
    {
      "children": [
        23
      ],
      "matrix": [
        1.0,
        0.0,
        -0.0,
        0.0,
        0.0,
        1.0,
        0.0,
        0.0,
        0.0,
        0.0,
        1.0,
        0.0,
        -3.8836028575897217,
        1.052228569984436,
        5.043255805969238,
        1.0
      ],
      "name": "Object_22"
    },
    {
      "mesh": 6,
      "name": "Gallo99_Bumper_Front_Gallo99_Bodymat_0"
    },
    {
      "children": [
        25
      ],
      "matrix": [
        2.3968641271705226e-08,
        -1.0437378405073041e-23,
        0.3943130075931542,
        0.0,
        -6.42417477063871e-08,
        0.39431300759314963,
        3.904987609343189e-15,
        0.0,
        -0.39431300759314897,
        -6.424174770638721e-08,
        2.3968641271705226e-08,
        0.0,
        1.4702837467193604,
        0.8156149387359619,
        -4.861641400566441e-07,
        1.0
      ],
      "name": "Gallo99_Hood"
    },
    {
      "children": [
        26
      ],
      "matrix": [
        1.0,
        0.0,
        -0.0,
        0.0,
        0.0,
        1.0,
        0.0,
        0.0,
        0.0,
        0.0,
        1.0,
        0.0,
        -3.8836028575897217,
        0.061160918325185776,
        3.862208127975464,
        1.0
      ],
      "name": "Object_25"
    },
    {
      "mesh": 7,
      "name": "Gallo99_Hood_Gallo99_Bodymat_0"
    },
    {
      "children": [
        28
      ],
      "matrix": [
        2.3968641271705226e-08,
        -1.0437378405073041e-23,
        0.3943130075931542,
        0.0,
        -6.42417477063871e-08,
        0.39431300759314963,
        3.904987609343189e-15,
        0.0,
        -0.39431300759314897,
        -6.424174770638721e-08,
        2.3968641271705226e-08,
        0.0,
        -2.0022950172424316,
        0.4730417728424072,
        5.58369066538944e-08,
        1.0
      ],
      "name": "Gallo99_Bumper_Rear"
    },
    {
      "children": [
        29
      ],
      "matrix": [
        1.0,
        0.0,
        -0.0,
        0.0,
        0.0,
        1.0,
        0.0,
        0.0,
        0.0,
        0.0,
        1.0,
        0.0,
        -3.883603096008301,
        0.9299451112747192,
        -4.944443702697754,
        1.0
      ],
      "name": "Object_28"
    },
    {
      "mesh": 8,
      "name": "Gallo99_Bumper_Rear_Gallo99_Bodymat_0"
    },
    {
      "children": [
        31
      ],
      "matrix": [
        -0.3699539899826008,
        -4.530630383965248e-17,
        5.586149949690468e-08,
        0.0,
        6.02642345204854e-08,
        -1.7724132657560713e-16,
        0.3991119861602738,
        0.0,
        -4.6442879785370566e-17,
        0.37923499941825867,
        1.2631062842935759e-16,
        0.0,
        1.1746859550476074,
        0.927703857421875,
        -1.8092541154146602e-07,
        1.0
      ],
      "name": "Gallo99_Windshield"
    },
    {
      "children": [
        32
      ],
      "matrix": [
        1.0,
        0.0,
        -0.0,
        0.0,
        0.0,
        1.0,
        0.0,
        0.0,
        0.0,
        0.0,
        1.0,
        0.0,
        7.234399795532227,
        -0.061869025230407715,
        0.2331615686416626,
        1.0
      ],
      "name": "Object_31"
    },
    {
      "mesh": 9,
      "name": "Gallo99_Windshield_UCB_Lights_and_Glass_Transperent_0"
    },
    {
      "children": [
        34
      ],
      "matrix": [
        -0.3699539899826008,
        -4.530630383965248e-17,
        5.586149949690468e-08,
        0.0,
        6.02642345204854e-08,
        -1.7724132657560713e-16,
        0.3991119861602738,
        0.0,
        -4.6442879785370566e-17,
        0.37923499941825867,
        1.2631062842935759e-16,
        0.0,
        -1.3688584566116333,
        1.1458909511566162,
        4.1438312337049865e-08,
        1.0
      ],
      "name": "Gallo99_Glass_Rear"
    },
    {
      "children": [
        35
      ],
      "matrix": [
        1.0,
        0.0,
        -0.0,
        0.0,
        0.0,
        1.0,
        0.0,
        0.0,
        0.0,
        0.0,
        1.0,
        0.0,
        0.35909971594810486,
        -0.061869025230407715,
        -0.34217333793640137,
        1.0
      ],
      "name": "Object_34"
    },
    {
      "mesh": 10,
      "name": "Gallo99_Glass_Rear_UCB_Lights_and_Glass_Transperent_0"
    },
    {
      "children": [
        37
      ],
      "matrix": [
        -0.3699539899826008,
        -4.530630383965248e-17,
        5.586149949690468e-08,
        0.0,
        6.02642345204854e-08,
        -1.7724132657560713e-16,
        0.3991119861602738,
        0.0,
        -4.6442879785370566e-17,
        0.37923499941825867,
        1.2631062842935759e-16,
        0.0,
        -2.236968755722046,
        0.8628742694854736,
        1.1733092719623528e-07,
        1.0
      ],
      "name": "Gallo99_Brakelights"
    },
    {
      "children": [
        38
      ],
      "matrix": [
        1.0,
        0.0,
        -0.0,
        0.0,
        0.0,
        1.0,
        0.0,
        0.0,
        0.0,
        0.0,
        1.0,
        0.0,
        -1.9874368906021118,
        -0.061869025230407715,
        0.4041097164154053,
        1.0
      ],
      "name": "Object_37"
    },
    {
      "mesh": 11,
      "name": "Gallo99_Brakelights_UCB_Lights_and_Glass_0"
    },
    {
      "children": [
        40
      ],
      "matrix": [
        -0.3699539899826008,
        -4.530630383965248e-17,
        5.586149949690468e-08,
        0.0,
        6.02642345204854e-08,
        -1.7724132657560713e-16,
        0.3991119861602738,
        0.0,
        -4.6442879785370566e-17,
        0.37923499941825867,
        1.2631062842935759e-16,
        0.0,
        -2.3566293716430664,
        0.5374042987823486,
        1.5386902418867976e-07,
        1.0
      ],
      "name": "Gallo99_Reverse"
    },
    {
      "children": [
        41
      ],
      "matrix": [
        1.0,
        0.0,
        -0.0,
        0.0,
        0.0,
        1.0,
        0.0,
        0.0,
        0.0,
        0.0,
        1.0,
        0.0,
        -2.3108837604522705,
        -0.06186908856034279,
        1.2623372077941895,
        1.0
      ],
      "name": "Object_40"
    },
    {
      "mesh": 12,
      "name": "Gallo99_Reverse_UCB_Lights_and_Glass_0"
    },
    {
      "children": [
        43
      ],
      "matrix": [
        1.2397464203751741e-08,
        0.0,
        -1.0396300554275513,
        0.0,
        -1.0396300554275513,
        1.154221224627995e-16,
        -1.2397464261462803e-08,
        0.0,
        1.7313318369419927e-16,
        1.0396300554275513,
        0.0,
        0.0,
        -0.4273889660835266,
        0.7753255367279053,
        -8.184575506220426e-08,
        1.0
      ],
      "name": "Gallo99_Interior"
    },
    {
      "children": [
        44
      ],
      "matrix": [
        1.0,
        0.0,
        -0.0,
        0.0,
        0.0,
        1.0,
        0.0,
        0.0,
        0.0,
        0.0,
        1.0,
        0.0,
        2.313467502593994,
        -1.0022345781326294,
        -0.6890931129455566,
        1.0
      ],
      "name": "Object_43"
    },
    {
      "mesh": 13,
      "name": "Gallo99_Interior_UCB_Interiors_2_0"
    },
    {
      "children": [
        46
      ],
      "matrix": [
        -1.0386999845502713,
        -1.2720409418015996e-16,
        6.521300968870103e-07,
        0.0,
        6.521300968870103e-07,
        0.0,
        1.0386999845502713,
        0.0,
        -1.272039842035213e-16,
        1.038699984550476,
        2.306377277051466e-16,
        0.0,
        -0.05049443244934082,
        0.4299134910106659,
        -6.512367463074042e-07,
        1.0
      ],
      "name": "Gallo99_Suspension"
    },
    {
      "children": [
        47
      ],
      "matrix": [
        1.0,
        0.0,
        -0.0,
        0.0,
        0.0,
        1.0,
        0.0,
        0.0,
        0.0,
        0.0,
        1.0,
        0.0,
        -1.32662832736969,
        -0.49821344017982483,
        0.035096608102321625,
        1.0
      ],
      "name": "Object_46"
    },
    {
      "mesh": 14,
      "name": "Gallo99_Suspension_UCB_BOTTOM_LT_0"
    },
    {
      "children": [
        49
      ],
      "matrix": [
        2.3968641271705226e-08,
        -1.0437378405073041e-23,
        0.3943130075931542,
        0.0,
        -6.42417477063871e-08,
        0.39431300759314963,
        3.904987609343189e-15,
        0.0,
        -0.39431300759314897,
        -6.424174770638721e-08,
        2.3968641271705226e-08,
        0.0,
        -0.15934747457504272,
        0.7228453159332275,
        1.3930598896649826e-08,
        1.0
      ],
      "name": "Gallo99_Blinkers"
    },
    {
      "children": [
        50
      ],
      "matrix": [
        1.0,
        0.0,
        -0.0,
        0.0,
        0.0,
        1.0,
        0.0,
        0.0,
        0.0,
        0.0,
        1.0,
        0.0,
        -3.88360333442688,
        0.29642975330352783,
        -0.2706265449523926,
        1.0
      ],
      "name": "Object_49"
    },
    {
      "mesh": 15,
      "name": "Gallo99_Blinkers_UCB_Lights_and_Glass_0"
    },
    {
      "children": [
        52
      ],
      "matrix": [
        -0.3699539899826008,
        -4.530630383965248e-17,
        5.586149949690468e-08,
        0.0,
        6.02642345204854e-08,
        -1.7724132657560713e-16,
        0.3991119861602738,
        0.0,
        -4.6442879785370566e-17,
        0.37923499941825867,
        1.2631062842935759e-16,
        0.0,
        -0.06742018461227417,
        1.0870399475097656,
        0.6822554469108582,
        1.0
      ],
      "name": "Gallo99_Body_Passanger"
    },
    {
      "children": [
        53
      ],
      "matrix": [
        1.0,
        0.0,
        -0.0,
        0.0,
        0.0,
        1.0,
        0.0,
        0.0,
        0.0,
        0.0,
        1.0,
        0.0,
        3.8769378662109375,
        -1.77130126953125,
        -0.1869899034500122,
        1.0
      ],
      "name": "Object_52"
    },
    {
      "mesh": 16,
      "name": "Gallo99_Body_Passanger_UCB_Lights_and_Glass_Transperent_0"
    },
    {
      "children": [
        55
      ],
      "matrix": [
        -0.3699539899826008,
        -4.530630383965248e-17,
        5.586149949690468e-08,
        0.0,
        6.02642345204854e-08,
        -1.7724132657560713e-16,
        0.3991119861602738,
        0.0,
        -4.6442879785370566e-17,
        0.37923499941825867,
        1.2631062842935759e-16,
        0.0,
        -0.06742030382156372,
        1.0870399475097656,
        -0.6822555661201477,
        1.0
      ],
      "name": "Gallo99_Body_Driver"
    },
    {
      "children": [
        56
      ],
      "matrix": [
        1.0,
        0.0,
        -0.0,
        0.0,
        0.0,
        1.0,
        0.0,
        0.0,
        0.0,
        0.0,
        1.0,
        0.0,
        3.8769378662109375,
        1.6475632190704346,
        -0.1869899034500122,
        1.0
      ],
      "name": "Object_55"
    },
    {
      "mesh": 17,
      "name": "Gallo99_Body_Driver_UCB_Lights_and_Glass_Transperent_0"
    },
    {
      "children": [
        58
      ],
      "matrix": [
        1.2397464203751741e-08,
        0.0,
        -1.0396300554275513,
        0.0,
        -1.0396300554275513,
        1.154221224627995e-16,
        -1.2397464261462803e-08,
        0.0,
        1.7313318369419927e-16,
        1.0396300554275513,
        0.0,
        0.0,
        0.32956212759017944,
        0.7860174179077148,
        -0.35254013538360596,
        1.0
      ],
      "name": "Gallo99_Steering_Wheel"
    },
    {
      "children": [
        59
      ],
      "matrix": [
        1.0,
        0.0,
        -0.0,
        0.0,
        0.0,
        1.0,
        0.0,
        0.0,
        0.0,
        0.0,
        1.0,
        0.0,
        1.9743658304214478,
        -0.27413779497146606,
        -0.6993774175643921,
        1.0
      ],
      "name": "Object_58"
    },
    {
      "mesh": 18,
      "name": "Gallo99_Steering_Wheel_UCB_Interiors_2_0"
    },
    {
      "children": [
        61
      ],
      "matrix": [
        -2.0927109718322523,
        -2.5628317931949724e-16,
        3.159905831302825e-07,
        0.0,
        -5.1737683352203545e-14,
        2.0927109718322474,
        -3.409458912345561e-07,
        0.0,
        -2.6429792350320786e-07,
        -2.851708116981866e-07,
        -1.750365972518878,
        0.0,
        1.3214613199234009,
        0.3248560428619385,
        -0.7634807229042053,
        1.0
      ],
      "name": "Gallo99_WheelStock_FL"
    },
    {
      "children": [
        62
      ],
      "matrix": [
        1.0,
        0.0,
        -0.0,
        0.0,
        0.0,
        1.0,
        0.0,
        0.0,
        0.0,
        0.0,
        1.0,
        0.0,
        7.629394893626795e-09,
        1.525878978725359e-08,
        0.07691346108913422,
        1.0
      ],
      "name": "Object_61"
    },
    {
      "mesh": 19,
      "name": "Gallo99_WheelStock_FL_RB1c_Tire_1k_0"
    },
    {
      "children": [
        64
      ],
      "matrix": [
        2.0927109718322594,
        1.8295060707928807e-07,
        1.8295060707928804e-07,
        0.0,
        1.8295068050453643e-07,
        -2.092710971832099,
        -8.39887086196044e-07,
        0.0,
        1.5302179473058288e-07,
        7.024906086978207e-07,
        -1.7503659725187737,
        0.0,
        -1.3972991704940796,
        0.3248560428619385,
        -0.7634804844856262,
        1.0
      ],
      "name": "Gallo99_WheelStock_RL"
    },
    {
      "children": [
        65
      ],
      "matrix": [
        1.0,
        0.0,
        -0.0,
        0.0,
        0.0,
        1.0,
        0.0,
        0.0,
        0.0,
        0.0,
        1.0,
        0.0,
        7.629394893626795e-09,
        1.525878978725359e-08,
        0.07691346108913422,
        1.0
      ],
      "name": "Object_64"
    },
    {
      "mesh": 20,
      "name": "Gallo99_WheelStock_RL_RB1c_Tire_1k_0"
    },
    {
      "children": [
        67
      ],
      "matrix": [
        2.0927109718322594,
        1.8295060707928793e-07,
        1.82950607079288e-07,
        0.0,
        -1.8295057727284788e-07,
        2.0927109718322394,
        -3.4094590650765063e-07,
        0.0,
        -1.5302188107469835e-07,
        2.8517081109516816e-07,
        1.750365972518891,
        0.0,
        -1.3972986936569214,
        0.32485613226890564,
        0.7629998922348022,
        1.0
      ],
      "name": "Gallo99_WheelStock_RR"
    },
    {
      "children": [
        68
      ],
      "matrix": [
        1.0,
        0.0,
        -0.0,
        0.0,
        0.0,
        1.0,
        0.0,
        0.0,
        0.0,
        0.0,
        1.0,
        0.0,
        7.629394893626795e-09,
        1.525878978725359e-08,
        0.07691346108913422,
        1.0
      ],
      "name": "Object_67"
    },
    {
      "mesh": 21,
      "name": "Gallo99_WheelStock_RR_RB1c_Tire_1k_0"
    },
    {
      "children": [
        70
      ],
      "matrix": [
        -2.0927109718322523,
        -2.5628317931948733e-16,
        3.159905831302826e-07,
        0.0,
        9.945093465375954e-14,
        -2.092710971832173,
        6.569364613060307e-07,
        0.0,
        2.642979235031984e-07,
        5.494687242788736e-07,
        1.7503659725188148,
        0.0,
        1.321461796760559,
        0.32485607266426086,
        0.7629998922348022,
        1.0
      ],
      "name": "Gallo99_WheelStock_FR"
    },
    {
      "children": [
        71
      ],
      "matrix": [
        1.0,
        0.0,
        -0.0,
        0.0,
        0.0,
        1.0,
        0.0,
        0.0,
        0.0,
        0.0,
        1.0,
        0.0,
        7.629394893626795e-09,
        1.525878978725359e-08,
        0.07691346108913422,
        1.0
      ],
      "name": "Object_70"
    },
    {
      "mesh": 22,
      "name": "Gallo99_WheelStock_FR_RB1c_Tire_1k_0"
    },
    {
      "children": [
        73
      ],
      "matrix": [
        9.019871693993764e-08,
        -1.3877787807814457e-17,
        0.999999999999996,
        0.0,
        0.17364810008081288,
        0.9848077666927306,
        -1.5662835847751744e-08,
        0.0,
        -0.9848077666927266,
        0.1736481000808136,
        8.882839708235224e-08,
        0.0,
        -2.3136870861053467,
        0.48682641983032227,
        5.325733809513622e-08,
        1.0
      ],
      "name": "Gallo99_Numberplate_rear"
    },
    {
      "children": [
        74
      ],
      "matrix": [
        1.0,
        0.0,
        -0.0,
        0.0,
        0.0,
        1.0,
        0.0,
        0.0,
        0.0,
        0.0,
        1.0,
        0.0,
        0.4921662211418152,
        -0.4848644733428955,
        -0.002145316218957305,
        1.0
      ],
      "name": "Object_73"
    },
    {
      "mesh": 23,
      "name": "Gallo99_Numberplate_rear_Numberplates_Misk_U_0"
    },
    {
      "children": [
        76
      ],
      "matrix": [
        6.078582448498793e-08,
        -2.6469779601696886e-23,
        0.9999999999999982,
        0.0,
        -1.6292068488171323e-07,
        0.9999999999999867,
        9.903268172249337e-15,
        0.0,
        -0.9999999999999849,
        -1.6292068488171352e-07,
        6.078582448498793e-08,
        0.0,
        -2.303542375564575,
        0.8026244640350342,
        0.1464920938014984,
        1.0
      ],
      "name": "Gallo99_Body_Badges"
    },
    {
      "children": [
        77
      ],
      "matrix": [
        1.0,
        0.0,
        -0.0,
        0.0,
        0.0,
        1.0,
        0.0,
        0.0,
        0.0,
        0.0,
        1.0,
        0.0,
        3.7210075855255127,
        2.2810606956481934,
        0.5946963429450989,
        1.0
      ],
      "name": "Object_76"
    },
    {
      "mesh": 24,
      "name": "Gallo99_Body_Badges_Carbadges_misc_U_0"
    },
    {
      "children": [
        79
      ],
      "matrix": [
        9.219600712245289e-08,
        -1.872389560319433e-24,
        -0.5658950209617539,
        0.0,
        2.4736056704831966e-08,
        0.5658950209617609,
        4.030015416803607e-15,
        0.0,
        0.5658950209617535,
        -2.4736056704832297e-08,
        9.219600712245289e-08,
        0.0,
        2.214928388595581,
        0.6010522842407227,
        -0.13856106996536255,
        1.0
      ],
      "name": "Gallo99_Badges_Front"
    },
    {
      "children": [
        80
      ],
      "matrix": [
        1.0,
        0.0,
        -0.0,
        0.0,
        0.0,
        1.0,
        0.0,
        0.0,
        0.0,
        0.0,
        1.0,
        0.0,
        3.5937142372131348,
        2.369206428527832,
        1.6230992078781128,
        1.0
      ],
      "name": "Object_79"
    },
    {
      "mesh": 25,
      "name": "Gallo99_Badges_Front_Carbadges_misc_U_0"
    },
    {
      "children": [
        82
      ],
      "matrix": [
        -2.0927109718322523,
        -2.5628317931949724e-16,
        3.159905831302825e-07,
        0.0,
        -5.1737683352203545e-14,
        2.0927109718322474,
        -3.409458912345561e-07,
        0.0,
        -2.6429792350320786e-07,
        -2.851708116981866e-07,
        -1.750365972518878,
        0.0,
        1.3214613199234009,
        0.3248560428619385,
        -0.7634807229042053,
        1.0
      ],
      "name": "Gallo99_CaliperStock_FL"
    },
    {
      "children": [
        83
      ],
      "matrix": [
        1.0,
        0.0,
        -0.0,
        0.0,
        0.0,
        1.0,
        0.0,
        0.0,
        0.0,
        0.0,
        1.0,
        0.0,
        7.629394893626795e-09,
        1.525878978725359e-08,
        0.07691346108913422,
        1.0
      ],
      "name": "Object_82"
    },
    {
      "mesh": 26,
      "name": "Gallo99_CaliperStock_FL_RB1c_Tire_1k_0"
    },
    {
      "children": [
        85
      ],
      "matrix": [
        2.0927109718322434,
        -1.4869605813213646e-14,
        3.659012141585731e-07,
        0.0,
        9.999281537926321e-14,
        -2.092710971832173,
        -6.569364620269864e-07,
        0.0,
        3.060437122885369e-07,
        5.494687248818887e-07,
        -1.750365972518808,
        0.0,
        -1.3972991704940796,
        0.3248560428619385,
        -0.7634804844856262,
        1.0
      ],
      "name": "Gallo99_CaliperStock_RL"
    },
    {
      "children": [
        86
      ],
      "matrix": [
        1.0,
        0.0,
        -0.0,
        0.0,
        0.0,
        1.0,
        0.0,
        0.0,
        0.0,
        0.0,
        1.0,
        0.0,
        7.629394893626795e-09,
        1.525878978725359e-08,
        0.07691346108913422,
        1.0
      ],
      "name": "Object_85"
    },
    {
      "mesh": 27,
      "name": "Gallo99_CaliperStock_RL_RB1c_Tire_1k_0"
    },
    {
      "children": [
        88
      ],
      "matrix": [
        -2.0927109718322523,
        -2.5628317931948733e-16,
        3.159905831302826e-07,
        0.0,
        9.945093465375954e-14,
        -2.092710971832173,
        6.569364613060307e-07,
        0.0,
        2.642979235031984e-07,
        5.494687242788736e-07,
        1.7503659725188148,
        0.0,
        1.321461796760559,
        0.32485607266426086,
        0.7629998922348022,
        1.0
      ],
      "name": "Gallo99_CaliperStock_FR"
    },
    {
      "children": [
        89
      ],
      "matrix": [
        1.0,
        0.0,
        -0.0,
        0.0,
        0.0,
        1.0,
        0.0,
        0.0,
        0.0,
        0.0,
        1.0,
        0.0,
        7.629394893626795e-09,
        1.525878978725359e-08,
        0.07691346108913422,
        1.0
      ],
      "name": "Object_88"
    },
    {
      "mesh": 28,
      "name": "Gallo99_CaliperStock_FR_RB1c_Tire_1k_0"
    },
    {
      "children": [
        91
      ],
      "matrix": [
        2.0927109718320374,
        -6.110264771349144e-23,
        9.978823527488889e-07,
        0.0,
        -1.625756699155672e-13,
        2.0927109718322474,
        3.4094589144291307e-07,
        0.0,
        -8.346395361512657e-07,
        -2.8517081187248775e-07,
        1.7503659725186986,
        0.0,
        -1.3972986936569214,
        0.32485613226890564,
        0.7629998922348022,
        1.0
      ],
      "name": "Gallo99_CaliperStock_RR"
    },
    {
      "children": [
        92
      ],
      "matrix": [
        1.0,
        0.0,
        -0.0,
        0.0,
        0.0,
        1.0,
        0.0,
        0.0,
        0.0,
        0.0,
        1.0,
        0.0,
        7.629394893626795e-09,
        1.525878978725359e-08,
        0.07691346108913422,
        1.0
      ],
      "name": "Object_91"
    },
    {
      "mesh": 29,
      "name": "Gallo99_CaliperStock_RR_RB1c_Tire_1k_0"
    }
  ],
  "samplers": [
    {
      "magFilter": 9729,
      "minFilter": 9987,
      "wrapS": 10497,
      "wrapT": 10497
    }
  ],
  "scene": 0,
  "scenes": [
    {
      "name": "Sketchfab_Scene",
      "nodes": [
        0
      ]
    }
  ],
  "textures": [
    {
      "sampler": 0,
      "source": 0
    },
    {
      "sampler": 0,
      "source": 1
    },
    {
      "sampler": 0,
      "source": 2
    },
    {
      "sampler": 0,
      "source": 3
    },
    {
      "sampler": 0,
      "source": 4
    },
    {
      "sampler": 0,
      "source": 5
    },
    {
      "sampler": 0,
      "source": 6
    },
    {
      "sampler": 0,
      "source": 7
    },
    {
      "sampler": 0,
      "source": 8
    },
    {
      "sampler": 0,
      "source": 9
    },
    {
      "sampler": 0,
      "source": 10
    },
    {
      "sampler": 0,
      "source": 11
    },
    {
      "sampler": 0,
      "source": 12
    }
  ]
}
